<?xml version="1.0" standalone="no"?>
<!DOCTYPE svg PUBLIC "-//W3C//DTD SVG 1.1//EN" "http://www.w3.org/Graphics/SVG/1.1/DTD/svg11.dtd" >
<svg xmlns="http://www.w3.org/2000/svg" xmlns:xlink="http://www.w3.org/1999/xlink" version="1.1">
<metadata>
Created by FontForge 20150318 at Fri Nov 13 23:18:35 2015
 By uniteet7
(c) 2008 Microsoft Corporation. All rights reserved.
</metadata>
<defs>
<font id="Kalinga-Bold" horiz-adv-x="0" >
  <font-face 
    font-family="Kalinga"
    font-weight="700"
    font-stretch="normal"
    units-per-em="2048"
    panose-1="2 11 8 2 4 2 4 2 2 3"
    ascent="1638"
    descent="-410"
    x-height="1056"
    cap-height="1454"
    bbox="-1228 -997 2706 2064"
    underline-thickness="20"
    underline-position="-290"
    unicode-range="U+0020-25CC"
  />
<missing-glyph horiz-adv-x="1056" 
d="M130 0v903h796v-903h-796zM260 134h532v639h-532v-639z" />
    <glyph glyph-name=".notdef" horiz-adv-x="1056" 
d="M130 0v903h796v-903h-796zM260 134h532v639h-532v-639z" />
    <glyph glyph-name="NULL" unicode="&#x200b;" 
 />
    <glyph glyph-name="nonmarkingreturn" horiz-adv-x="584" 
 />
    <glyph glyph-name="space" unicode=" " horiz-adv-x="536" 
 />
    <glyph glyph-name="exclam" unicode="!" horiz-adv-x="618" 
d="M400 419h-177l-29 1035h233zM191 0v229h232v-229h-232z" />
    <glyph glyph-name="quotedbl" unicode="&#x22;" horiz-adv-x="870" 
d="M722 1019h-173l-23 435h218zM321 1019h-168l-23 435h216z" />
    <glyph glyph-name="numbersign" unicode="#" horiz-adv-x="1216" 
d="M757 0h-129l88 413h-358l-83 -413h-129l85 413h-206v123h235l78 379h-259v124h284l89 415h129l-89 -415h358l87 415h129l-88 -415h214v-124h-241l-81 -379h268v-123h-292zM388 536h356l79 379h-355z" />
    <glyph glyph-name="dollar" unicode="$" horiz-adv-x="1279" 
d="M573 -148v168q-227 7 -356.5 104.5t-165.5 275.5l205 39q10 -53 32 -98t59.5 -79.5t93 -55.5t132.5 -25v488q-56 14 -112 29.5t-106.5 37.5t-94 51t-76 70t-50.5 95t-18 126q0 90 34 155t94.5 107.5t144.5 64.5t184 26v132h132v-132q107 -5 184 -28.5t131.5 -66.5
t89 -105t55.5 -142l-208 -35q-20 97 -79.5 154t-172.5 67v-442q59 -14 118.5 -30t114 -37.5t102.5 -51t83 -72t55 -99.5t20 -134q0 -83 -29 -152t-90 -120t-154 -81.5t-220 -35.5v-168h-132zM994 406q0 62 -23 101t-62 64.5t-91.5 42t-112.5 31.5v-466q64 3 117 18.5
t91.5 43.5t59.5 69t21 96zM324 1081q0 -53 19.5 -89.5t53 -62t79 -43t97.5 -32.5v423q-68 -2 -115.5 -18.5t-77 -42.5t-43 -61t-13.5 -74z" />
    <glyph glyph-name="percent" unicode="%" horiz-adv-x="1990" 
d="M1879 447q0 -129 -27 -217t-73.5 -142.5t-109 -78t-132.5 -23.5q-71 0 -132.5 23.5t-107 77.5t-71.5 142t-26 218q0 137 26 227t71.5 142.5t108 73.5t135.5 21q69 0 130.5 -21t107.5 -73.5t73 -142.5t27 -227zM586 0h-155l974 1454h154zM454 1466q69 0 130 -21t106 -73.5
t71 -141t26 -224.5q0 -129 -26 -218t-71.5 -143.5t-107.5 -79t-133 -24.5t-133 24t-107.5 78.5t-72 143.5t-26.5 219q0 136 26.5 224.5t73 141t109 73.5t135.5 21zM1706 447q0 99 -11 163.5t-32.5 103t-52 54t-69.5 15.5q-41 0 -72.5 -16t-52.5 -54.5t-31.5 -103.5
t-10.5 -162q0 -94 10.5 -158t31.5 -103t51.5 -55.5t71.5 -16.5q38 0 69 16.5t52.5 55.5t33.5 103t12 158zM614 1006q0 99 -10 163.5t-30.5 103t-50.5 54t-69 15.5q-43 0 -74.5 -16t-52.5 -54.5t-31.5 -103.5t-10.5 -162q0 -94 10.5 -158t31.5 -103t52.5 -55.5t72.5 -16.5
q39 0 69 16.5t50.5 55.5t31.5 103t11 158z" />
    <glyph glyph-name="ampersand" unicode="&#x26;" horiz-adv-x="1468" 
d="M1277 -12q-50 0 -95 10.5t-85.5 28t-75 40.5t-62.5 49q-36 -30 -77 -55t-89.5 -43t-105 -28t-122.5 -10q-113 0 -200.5 27t-147.5 79t-91 128t-31 174q0 81 26.5 147.5t73.5 121t112 97.5t142 77q-35 70 -59.5 145.5t-24.5 157.5q0 69 21 129t65.5 104t115 69.5
t169.5 25.5q78 0 143 -19.5t112 -57.5t73.5 -93.5t26.5 -126.5q0 -77 -36 -136t-94.5 -105.5t-134.5 -84.5t-155 -74q65 -111 133 -211t155 -193q30 45 55 90.5t46.5 95t40 104t35.5 116.5l171 -49q-40 -138 -95.5 -251.5t-124.5 -216.5q51 -52 105.5 -73.5t102.5 -21.5
q34 0 64 3.5t58 12.5v-161q-29 -11 -63.5 -16.5t-76.5 -5.5zM911 1165q0 36 -12.5 65t-35.5 50t-56 32.5t-73 11.5q-94 0 -144.5 -51.5t-50.5 -140.5q0 -57 20.5 -118t46.5 -115q63 25 118.5 51t97 57.5t65.5 70t24 87.5zM837 231q-93 105 -171.5 217.5t-147.5 232.5
q-107 -48 -166 -116.5t-59 -168.5q0 -62 19 -110.5t55 -82.5t87.5 -51.5t116.5 -17.5q83 0 152 26.5t114 70.5z" />
    <glyph glyph-name="quotesingle" unicode="'" horiz-adv-x="474" 
d="M321 1019h-168l-23 435h216z" />
    <glyph glyph-name="parenleft" unicode="(" horiz-adv-x="771" 
d="M144 518q0 149 22 277.5t67.5 246.5t115.5 230t165 229h220q-99 -122 -170 -238t-117 -234.5t-67.5 -244.5t-21.5 -268t21.5 -268t67.5 -244.5t117 -235t170 -238.5h-220q-95 117 -165 230t-115.5 231.5t-67.5 248t-22 278.5z" />
    <glyph glyph-name="parenright" unicode=")" horiz-adv-x="771" 
d="M625 518q0 -149 -21.5 -278.5t-66.5 -248t-114.5 -231.5t-164.5 -230h-223q100 122 171 238.5t116.5 235t67 244.5t21.5 268t-21.5 268t-67 244.5t-116.5 234.5t-171 238h223q95 -117 164.5 -229t114.5 -230t66.5 -246.5t21.5 -277.5z" />
    <glyph glyph-name="asterisk" unicode="*" horiz-adv-x="924" 
d="M567 1072l202 -261l-147 -81l-162 276l-167 -274l-145 81l204 259l-303 75l54 152l293 -111l-16 313h167l-19 -311l293 107l53 -150z" />
    <glyph glyph-name="plus" unicode="+" horiz-adv-x="1194" 
d="M685 614v-441h-177v441h-435v175h435v445h177v-445h435v-175h-435z" />
    <glyph glyph-name="comma" unicode="," horiz-adv-x="488" 
d="M352.5 -50q-5.5 -48 -17 -89.5t-28.5 -77.5t-39 -70h-146q51 69 81 142t30 145h-103v254h228v-197q0 -59 -5.5 -107z" />
    <glyph glyph-name="hyphen" unicode="-" horiz-adv-x="697" 
d="M89 437v190h521v-190h-521z" />
    <glyph glyph-name="period" unicode="." horiz-adv-x="488" 
d="M130 0v254h228v-254h-228z" />
    <glyph glyph-name="slash" unicode="/" horiz-adv-x="909" 
d="M20 0l649 1501h214l-643 -1501h-220z" />
    <glyph glyph-name="zero" unicode="0" horiz-adv-x="1194" 
d="M1114 728q0 -210 -41 -353t-111.5 -230.5t-165.5 -126t-202 -38.5q-108 0 -202 38t-163.5 125.5t-109.5 231t-40 353.5q0 146 18 258.5t51 195.5t80 139t105 90t125.5 48.5t141.5 14.5q71 0 136.5 -14.5t122.5 -48.5t104 -90t80.5 -139t52 -195.5t18.5 -258.5zM895 728
q0 168 -20 278.5t-57.5 176t-92.5 92t-125 26.5q-75 0 -131.5 -27t-94 -93t-56.5 -176.5t-19 -276.5q0 -162 19.5 -272t57 -177t93 -95.5t127.5 -28.5q69 0 124.5 28.5t94.5 95.5t59.5 177t20.5 272z" />
    <glyph glyph-name="one" unicode="1" horiz-adv-x="1194" 
d="M148 167h391v1097l-350 -221v173l366 238h202v-1287h334v-167h-943v167z" />
    <glyph glyph-name="two" unicode="2" horiz-adv-x="1194" 
d="M97 0v153q36 79 86.5 148.5t110 131t123 117t124.5 107.5t115.5 102t96 101t65.5 103.5t24 110.5q0 55 -18 97t-51 70t-78.5 42t-100.5 14q-53 0 -97.5 -14.5t-78.5 -43.5t-56.5 -72t-29.5 -99l-222 17q10 79 44 150t93 124t145 84t200 31q111 0 199.5 -26t150.5 -77
t95 -125.5t33 -171.5q0 -75 -25.5 -141t-68 -125.5t-98.5 -113t-117 -104t-123 -99.5t-116.5 -99t-98 -101.5t-67.5 -107.5h737v-183h-996z" />
    <glyph glyph-name="three" unicode="3" horiz-adv-x="1194" 
d="M1108 402q0 -99 -33 -177.5t-97.5 -132.5t-159 -83t-218.5 -29q-138 0 -233.5 34t-156.5 90t-91.5 128t-39.5 148l222 20q7 -54 28.5 -98.5t58 -77t89 -50t123.5 -17.5q133 0 206.5 64.5t73.5 191.5q0 75 -33.5 121t-84 72t-109.5 35t-110 9h-108v181h101q53 0 108 10
t100 36t73.5 72t28.5 117q0 107 -65 170t-191 63q-115 0 -186.5 -59t-84.5 -166l-218 17q12 97 55 169t108.5 119.5t149 71t178.5 23.5q126 0 216 -30.5t148 -82.5t85 -121.5t27 -148.5q0 -65 -18.5 -121t-56 -100.5t-95.5 -76t-137 -47.5v-4q89 -10 154.5 -40t108 -75.5
t63.5 -103t21 -121.5z" />
    <glyph glyph-name="four" unicode="4" horiz-adv-x="1194" 
d="M939 319v-319h-217v319h-669v169l640 966h246v-968h193v-167h-193zM722 1218l-489 -732h489v732z" />
    <glyph glyph-name="five" unicode="5" horiz-adv-x="1194" 
d="M1110 478q0 -110 -34 -201.5t-100.5 -157.5t-165 -102.5t-228.5 -36.5q-119 0 -207 28t-149 76t-96 113.5t-49 140.5l220 20q10 -39 29.5 -75.5t52.5 -65t82.5 -45.5t120.5 -17q68 0 123 21t94 61t60.5 99t21.5 136q0 65 -20.5 118t-58.5 91t-92.5 59t-123.5 21
q-44 0 -81 -8t-68.5 -22t-57 -32t-47.5 -37h-214l49 792h854v-169h-651l-32 -439q48 38 122 65.5t173 27.5q110 0 197.5 -34t149 -94.5t94 -145.5t32.5 -187z" />
    <glyph glyph-name="six" unicode="6" horiz-adv-x="1194" 
d="M1106 476q0 -110 -30.5 -201t-91.5 -156.5t-151 -102t-208 -36.5q-128 0 -225.5 46.5t-163 137.5t-98.5 223.5t-33 305.5q0 194 36 340t105 244t168 147.5t225 49.5q78 0 145.5 -16t122.5 -52t95.5 -94.5t65.5 -142.5l-208 -35q-26 88 -86 127.5t-137 39.5
q-74 0 -132.5 -33.5t-100 -101.5t-63.5 -170t-22 -239q52 88 142.5 136t207.5 48q99 0 179.5 -32.5t137.5 -92.5t88.5 -146t31.5 -194zM887 468q0 70 -18 126.5t-53.5 96.5t-87 61t-118.5 21q-48 0 -96.5 -14.5t-87.5 -46t-63.5 -82t-24.5 -122.5q0 -74 19.5 -138.5
t55.5 -112.5t87.5 -76t115.5 -28q63 0 113.5 21.5t85.5 62.5t53.5 99t18.5 132z" />
    <glyph glyph-name="seven" unicode="7" horiz-adv-x="1194" 
d="M891.5 968.5q-89.5 -153.5 -156 -311t-105 -320.5t-38.5 -337h-227q0 173 40 336.5t109.5 321t162 310t197.5 303.5h-758v183h967v-177q-102 -155 -191.5 -308.5z" />
    <glyph glyph-name="eight" unicode="8" horiz-adv-x="1194" 
d="M1106 409q0 -94 -30 -172.5t-92.5 -135.5t-158 -89t-227.5 -32t-228.5 32t-159 88.5t-93 134.5t-30.5 171q0 79 24.5 140.5t65 106t93 72t108.5 36.5v4q-60 14 -108 46t-81.5 77t-51 100.5t-17.5 115.5q0 76 30 143.5t89.5 117.5t148.5 79.5t206 29.5q124 0 213.5 -30
t148 -81t86.5 -118.5t28 -142.5q0 -60 -17 -115t-49.5 -99.5t-80.5 -76t-110 -44.5v-4q63 -10 116.5 -38t92.5 -72.5t61.5 -105.5t22.5 -138zM846 1085q0 51 -13.5 94t-43.5 74.5t-78 49t-117 17.5q-67 0 -115 -17.5t-78.5 -49t-44.5 -74.5t-14 -94q0 -41 11.5 -83.5
t40 -77.5t77.5 -57.5t125 -22.5q81 0 130.5 22.5t76 58t35 78t8.5 82.5zM880 427q0 49 -13.5 95.5t-46 82.5t-87.5 58t-139 22q-77 0 -130.5 -21.5t-87.5 -57.5t-49.5 -83.5t-15.5 -99.5q0 -63 15.5 -115.5t50 -90t89.5 -58.5t134 -21q80 0 133.5 21t86 59t46.5 91t14 118z
" />
    <glyph glyph-name="nine" unicode="9" horiz-adv-x="1194" 
d="M1100 755q0 -194 -36.5 -339.5t-106 -242t-169.5 -145t-227 -48.5q-176 0 -283.5 74t-153.5 239l208 33q25 -91 83.5 -132t149.5 -41q72 0 130.5 33t100 100t64.5 168t25 237q-22 -45 -59 -80.5t-84.5 -60.5t-101.5 -38t-110 -13q-100 0 -180 34.5t-136.5 98.5
t-86.5 154.5t-30 201.5q0 113 33 203t97 153t156 96.5t211 33.5q247 0 376.5 -177t129.5 -542zM866 941q0 75 -18.5 140.5t-53.5 114.5t-87 77t-119 28q-63 0 -113.5 -22t-85.5 -63t-53.5 -98.5t-18.5 -129.5q0 -69 17 -128t51 -102t84.5 -67t116.5 -24q49 0 99 17t90.5 51
t65.5 85.5t25 120.5z" />
    <glyph glyph-name="colon" unicode=":" horiz-adv-x="488" 
d="M130 822v234h228v-234h-228zM130 0v238h228v-238h-228z" />
    <glyph glyph-name="semicolon" unicode=";" horiz-adv-x="488" 
d="M130 822v234h228v-234h-228zM358 57q0 -59 -5.5 -107t-17 -89.5t-28.5 -77.5t-39 -70h-146q51 69 81 142t30 145h-103v238h228v-181z" />
    <glyph glyph-name="less" unicode="&#x3c;" horiz-adv-x="1194" 
d="M73 573v248l1049 423v-182l-887 -365l887 -365v-181z" />
    <glyph glyph-name="equal" unicode="=" horiz-adv-x="1194" 
d="M73 878v176h1047v-176h-1047zM73 338v176h1047v-176h-1047z" />
    <glyph glyph-name="greater" unicode="&#x3e;" horiz-adv-x="1194" 
d="M73 151v181l884 365l-884 365v182l1047 -423v-248z" />
    <glyph glyph-name="question" unicode="?" horiz-adv-x="1186" 
d="M1108 1064q0 -73 -20.5 -127t-54 -96.5t-76.5 -75.5t-87 -64q-39 -29 -76.5 -56.5t-67 -60.5t-48.5 -73t-20 -92h-211q3 71 26 124.5t57.5 95.5t76.5 75.5t84 64.5q38 28 73.5 56t62.5 60t43.5 70.5t16.5 88.5q0 55 -19 100t-55 76t-88.5 48t-118.5 17q-63 0 -116 -18
t-92.5 -51.5t-64.5 -81t-32 -107.5l-222 12q12 88 49.5 165t102 134.5t156.5 90.5t213 33q120 0 214 -28.5t159.5 -81t100 -128.5t34.5 -170zM441 0v229h232v-229h-232z" />
    <glyph glyph-name="at" unicode="@" horiz-adv-x="1911" 
d="M1864 748q0 -149 -38.5 -272t-104 -212t-153 -138t-186.5 -49q-41 0 -75.5 11t-59.5 32.5t-39 55t-14 78.5q0 15 1.5 39t4.5 41h-6q-22 -47 -59 -92.5t-85.5 -82.5t-107.5 -59.5t-125 -22.5q-101 0 -166.5 35.5t-104.5 92.5t-54.5 128t-15.5 141q0 78 15.5 155.5
t46 147.5t75 130.5t102 104.5t127.5 69t152 25q110 0 185.5 -53t109.5 -140h6l43 170h132l-120 -522q-21 -86 -32 -156t-11 -112q0 -30 8 -49.5t21.5 -31t29.5 -16.5t33 -5q63 0 122.5 41t106 114.5t74.5 175.5t28 224q0 136 -43 252t-127.5 201t-209.5 133t-288 48
q-141 0 -260 -33.5t-215 -94t-169 -144t-122.5 -184t-74.5 -214.5t-25 -234q0 -139 41 -262.5t125.5 -215.5t213.5 -146t304 -54q91 0 176 12.5t163 34t149 50.5t135 62l50 -103q-62 -35 -133 -68t-154.5 -58.5t-180.5 -40.5t-211 -15q-200 0 -352.5 64t-255.5 173.5
t-155 255.5t-52 311q0 143 32.5 275t93.5 245.5t149.5 206.5t199.5 159.5t243.5 102.5t282.5 36q207 0 358.5 -60.5t250.5 -164t147 -240t48 -288.5zM1238 746q0 53 -19 97.5t-52.5 77t-80.5 51t-102 18.5q-94 0 -163 -48t-114.5 -123t-68 -166t-22.5 -177q0 -64 14 -116
t42.5 -88.5t71.5 -56t102 -19.5q54 0 109 26t104 75t88 119.5t61 160.5q4 19 9.5 42t10 46t7.5 44.5t3 36.5z" />
    <glyph glyph-name="A" unicode="A" horiz-adv-x="1370" 
d="M819 1454l546 -1454h-233l-148 409h-598l-151 -409h-235l549 1454h270zM685 1279l-248 -695h493z" />
    <glyph glyph-name="B" unicode="B" horiz-adv-x="1448" 
d="M1340 411q0 -111 -43.5 -189.5t-118 -127.5t-173 -71.5t-208.5 -22.5h-608v1454h547q123 0 219.5 -20.5t163.5 -63.5t102 -109.5t35 -158.5q0 -61 -17 -115t-51.5 -97.5t-86.5 -75t-121 -47.5q87 -10 154 -40t113 -76.5t69.5 -107t23.5 -132.5zM1023 1072q0 109 -74 161
t-223 52h-305v-445h307q78 0 134 16.5t92 47t52.5 73t16.5 95.5zM1108 429q0 66 -27 113t-74 77t-111.5 44t-140.5 14h-334v-508h348q70 0 132 13.5t108 44t72.5 80t26.5 122.5z" />
    <glyph glyph-name="C" unicode="C" horiz-adv-x="1503" 
d="M811 -20q-177 0 -308 56t-217 156.5t-128 238.5t-42 303q0 170 42 307t126.5 233t212.5 148t300 52q132 0 229 -30.5t167 -81t118 -116t81 -136.5l-206 -75q-21 46 -53 92t-78 82.5t-109 59t-145 22.5q-119 0 -204.5 -40t-140 -112.5t-80.5 -175.5t-26 -229
q0 -125 28.5 -230t86 -181t144 -118t202.5 -42q84 0 149 27t114 69t83.5 93.5t56.5 101.5l203 -84q-36 -73 -85.5 -143t-121 -125t-169.5 -88.5t-230 -33.5z" />
    <glyph glyph-name="D" unicode="D" horiz-adv-x="1596" 
d="M1476 740q0 -182 -54 -320t-149.5 -231.5t-224.5 -141t-279 -47.5h-580v1454h516q169 0 311 -41.5t244 -128.5t159 -222t57 -322zM1248 740q0 141 -40 241.5t-112.5 165t-173 94.5t-221.5 30h-280v-1088h325q108 0 199.5 35.5t159 105t105.5 174t38 242.5z" />
    <glyph glyph-name="E" unicode="E" horiz-adv-x="1338" 
d="M1244 0h-1055v1454h1011v-181h-779v-442h717v-177h-717v-475h823v-179z" />
    <glyph glyph-name="F" unicode="F" horiz-adv-x="1222" 
d="M421 0h-232v1454h945v-185h-713v-516h689v-182h-689v-571z" />
    <glyph glyph-name="G" unicode="G" horiz-adv-x="1563" 
d="M1310 133.5q-62 -45.5 -139 -79.5t-168 -54t-194 -20q-176 0 -306 56t-216 156.5t-128.5 238.5t-42.5 303q0 170 42 307t127 233t213 148t299 52q124 0 218.5 -27t165 -73.5t120 -110.5t83.5 -137l-209 -75q-22 48 -54.5 91.5t-78.5 76.5t-106.5 52.5t-138.5 19.5
q-117 0 -201 -40t-139 -112.5t-81 -175.5t-26 -229q0 -125 29 -230t86.5 -181t143.5 -118t200 -42q72 0 132.5 14t110 35.5t88 48.5t64.5 54v252h-391v173h604v-511q-45 -50 -107 -95.5z" />
    <glyph glyph-name="H" unicode="H" horiz-adv-x="1629" 
d="M189 0v1454h232v-604h795v604h226v-1454h-226v658h-795v-658h-232z" />
    <glyph glyph-name="I" unicode="I" horiz-adv-x="612" 
d="M421 0h-232v1454h232v-1454z" />
    <glyph glyph-name="J" unicode="J" horiz-adv-x="1151" 
d="M939 250q-29 -85 -86.5 -145t-142.5 -92.5t-196 -32.5q-198 0 -313 95t-154 301l225 37q25 -130 89.5 -190t154.5 -60q110 0 166 70.5t56 205.5v830h-282v185h512v-1013q0 -106 -29 -191z" />
    <glyph glyph-name="K" unicode="K" horiz-adv-x="1403" 
d="M1316 1454l-604 -631l680 -823h-272l-557 681l-142 -143v-538h-232v1454h232v-685l624 685h271z" />
    <glyph glyph-name="L" unicode="L" horiz-adv-x="1167" 
d="M421 1454v-1271h683v-183h-915v1454h232z" />
    <glyph glyph-name="M" unicode="M" horiz-adv-x="1953" 
d="M189 1454h308l418 -1005q33 -75 65 -179q36 108 69 188l407 996h305v-1454h-206v947q0 124 6 287q-45 -126 -110 -292l-383 -942h-177l-411 994q-43 106 -90 240q6 -175 6 -285v-949h-207v1454z" />
    <glyph glyph-name="N" unicode="N" horiz-adv-x="1687" 
d="M1218 0l-828 1196q6 -144 6 -264v-932h-207v1454h271l839 -1204q-8 162 -8 284v920h206v-1454h-279z" />
    <glyph glyph-name="O" unicode="O" horiz-adv-x="1659" 
d="M1539 734q0 -171 -48.5 -310t-140 -238t-224 -152.5t-299.5 -53.5q-177 0 -310.5 56t-222.5 156.5t-133.5 238.5t-44.5 303q0 170 47 307t138 233t224 148t304 52t303.5 -52.5t222.5 -149t137 -233t47 -305.5zM1305 734q0 126 -31 229t-91 175.5t-149 112.5t-205 40
q-120 0 -209.5 -40t-149.5 -112.5t-90 -175.5t-30 -229q0 -125 31 -230t91 -181t149 -118t206 -42q125 0 215.5 43t149 119t86 180.5t27.5 228.5z" />
    <glyph glyph-name="P" unicode="P" horiz-adv-x="1368" 
d="M1269 1013q0 -92 -31 -175t-94 -145.5t-159 -99t-226 -36.5h-338v-557h-232v1454h557q133 0 231 -32t163 -89.5t97 -139t32 -180.5zM1035 1011q0 130 -79 202t-238 72h-297v-561h307q80 0 138 21.5t95.5 59.5t55.5 90.5t18 115.5z" />
    <glyph glyph-name="Q" unicode="Q" horiz-adv-x="1659" 
d="M1539 734q0 -151 -37.5 -277.5t-109 -221.5t-174.5 -156t-234 -81q20 -64 47 -109t61.5 -73t77 -41t92.5 -13q29 0 63.5 4.5t58.5 10.5v-157q-44 -12 -95.5 -19t-109.5 -7q-91 0 -159 27.5t-119 78.5t-88 123.5t-65 162.5q-157 10 -275 69.5t-197.5 158.5t-119.5 231.5
t-40 288.5q0 170 47 307t138 233t224 148t304 52t303.5 -52.5t222.5 -149t137 -233t47 -305.5zM1305 734q0 126 -31 229t-91 175.5t-149 112.5t-205 40q-120 0 -209.5 -40t-149.5 -112.5t-90 -175.5t-30 -229q0 -125 31 -230t91 -181t149 -118t206 -42q125 0 215.5 43
t149 119t86 180.5t27.5 228.5z" />
    <glyph glyph-name="R" unicode="R" horiz-adv-x="1394" 
d="M1035 1029q0 125 -82 190.5t-229 65.5h-303v-520h311q79 0 136.5 20.5t94.5 56t54.5 83.5t17.5 104zM1269 1031q0 -70 -20.5 -135.5t-63 -120t-107.5 -94.5t-154 -59l406 -622h-262l-367 598h-280v-598h-232v1454h555q128 0 226 -29.5t164.5 -84t100.5 -133t34 -176.5z
" />
    <glyph glyph-name="S" unicode="S" horiz-adv-x="1409" 
d="M1295 406q0 -93 -34.5 -171.5t-107 -135t-184 -88t-264.5 -31.5q-269 0 -416.5 96.5t-189.5 279.5l222 44q13 -54 40 -98.5t73.5 -77t114.5 -50t163 -17.5q81 0 147 14t113 43t72.5 74t25.5 108q0 70 -35.5 114t-94 72.5t-133 47t-151.5 37.5q-59 14 -118 29t-113.5 36.5
t-101.5 50.5t-81.5 71t-54.5 98t-20 131q0 104 41 178t114 121.5t172.5 69.5t215.5 22q133 0 227 -21.5t158 -64.5t103 -107t62 -149l-225 -34q-12 52 -37 90.5t-64.5 64.5t-96 39t-132.5 13q-89 0 -149 -16.5t-96.5 -45.5t-52 -67.5t-15.5 -82.5q0 -61 29 -100.5t79 -66
t117 -45t144 -37.5q64 -15 129 -31t124 -37.5t110.5 -51.5t89.5 -74t59.5 -103.5t21.5 -140.5z" />
    <glyph glyph-name="T" unicode="T" horiz-adv-x="1262" 
d="M1238 1454v-185h-498v-1269h-230v1269h-483v185h1211z" />
    <glyph glyph-name="U" unicode="U" horiz-adv-x="1578" 
d="M1346.5 297q-47.5 -108 -131 -178.5t-197.5 -104.5t-247 -34q-128 0 -236 32t-187.5 99.5t-124 172t-44.5 248.5v922h232v-901q0 -103 28 -177t77.5 -121t117 -69.5t145.5 -22.5t148 23.5t123 73t84 125.5t31 180v889h229v-901q0 -148 -47.5 -256z" />
    <glyph glyph-name="V" unicode="V" horiz-adv-x="1338" 
d="M549 0l-539 1454h240l421 -1269l414 1269h241l-541 -1454h-236z" />
    <glyph glyph-name="W" unicode="W" horiz-adv-x="2112" 
d="M449 0l-441 1454h240l348 -1244l339 1244h238l343 -1244l346 1244h240l-441 -1454h-282l-323 1218l-326 -1218h-281z" />
    <glyph glyph-name="X" unicode="X" horiz-adv-x="1324" 
d="M526 765l-467 689h244l359 -553l359 553h243l-466 -689l507 -765h-241l-402 616l-402 -616h-244z" />
    <glyph glyph-name="Y" unicode="Y" horiz-adv-x="1277" 
d="M637 783l388 671h244l-519 -856v-598h-228v598l-516 856h246z" />
    <glyph glyph-name="Z" unicode="Z" horiz-adv-x="1293" 
d="M68 0v167l856 1102h-778v185h1038v-165l-856 -1106h908v-183h-1168z" />
    <glyph glyph-name="bracketleft" unicode="[" horiz-adv-x="712" 
d="M175 -470v1971h506v-153h-295v-1665h295v-153h-506z" />
    <glyph glyph-name="backslash" unicode="\" horiz-adv-x="909" 
d="M20 1501h218l647 -1501h-218z" />
    <glyph glyph-name="bracketright" unicode="]" horiz-adv-x="712" 
d="M31 -470v153h299v1665h-299v153h505v-1971h-505z" />
    <glyph glyph-name="asciicircum" unicode="^" horiz-adv-x="1194" 
d="M1145 520h-184l-365 814l-365 -814h-180l423 934h244z" />
    <glyph glyph-name="underscore" unicode="_" horiz-adv-x="1056" 
d="M-20 -276v93h1098v-93h-1098z" />
    <glyph glyph-name="grave" unicode="`" horiz-adv-x="627" 
d="M561 1200v-23h-136l-328 287v35h214z" />
    <glyph glyph-name="a" unicode="a" horiz-adv-x="1289" 
d="M330 305q0 -82 49 -126.5t147 -44.5q87 0 153 28.5t109.5 73t65.5 99t22 106.5v75l-209 -4q-69 -2 -130 -12t-107 -33.5t-73 -62.5t-27 -99zM101 295q0 94 40 158.5t109 104.5t160.5 58.5t195.5 20.5l270 4v44q0 132 -62 193t-183 61q-53 0 -96.5 -9.5t-76 -31.5t-53 -57
t-27.5 -86l-227 16q11 67 44 123t91.5 97t145.5 64t207 23q110 0 195.5 -24.5t144 -72.5t89 -119t30.5 -163v-416q0 -75 20.5 -114t73.5 -39q7 0 18 1t22.5 2.5t22 3t16.5 3.5v-132q-42 -8 -84.5 -13t-88.5 -5q-55 0 -94 13.5t-64.5 40.5t-39 67.5t-17.5 94.5h-7
q-59 -105 -160.5 -165.5t-259.5 -60.5q-87 0 -153 21.5t-111 62.5t-68 99t-23 132z" />
    <glyph glyph-name="b" unicode="b" horiz-adv-x="1320" 
d="M1222 534q0 -122 -28 -223.5t-85 -175t-144.5 -114.5t-207.5 -41q-61 0 -117.5 13t-105 38.5t-88 64t-66.5 89.5h-4q0 -25 -1.5 -55.5t-3 -57.5t-3.5 -47.5t-3 -24.5h-210q1 12 2.5 34.5t3 53.5t2 68.5t0.5 78.5v1264h217v-460q0 -31 -0.5 -61.5t-1.5 -55.5
q-1 -29 -2 -56h4q112 215 393 215q117 0 202 -41t139.5 -113.5t81 -173t26.5 -219.5zM998 534q0 187 -76.5 288.5t-232.5 101.5q-60 0 -116 -19.5t-100 -66t-70.5 -122.5t-26.5 -190q0 -111 26 -186t69.5 -120.5t99.5 -64.5t116 -19q147 0 229 98.5t82 299.5z" />
    <glyph glyph-name="c" unicode="c" horiz-adv-x="1196" 
d="M620 -20q-132 0 -230.5 39t-164 110.5t-98 171t-32.5 221.5q0 131 36 234.5t104 175t166.5 109t223.5 37.5q106 0 189 -24.5t143 -69.5t97 -108.5t52 -141.5l-223 -16q-17 98 -84 147.5t-179 49.5q-149 0 -227 -97.5t-78 -283.5q0 -198 81 -296t226 -98q54 0 100 13
t81 40t58 67.5t32 95.5l219 -20q-10 -72 -46 -136.5t-98 -113.5t-149 -77.5t-199 -28.5z" />
    <glyph glyph-name="d" unicode="d" horiz-adv-x="1320" 
d="M321 524q0 -189 76 -288.5t230 -99.5q60 0 117 20t101 66t71 122t27 188t-26 187.5t-69.5 121t-100.5 64.5t-118 19q-147 0 -227.5 -99.5t-80.5 -300.5zM95 524q0 121 28.5 223t86.5 175.5t146.5 114.5t208.5 41q129 0 225 -53.5t151 -154.5q-1 47 -1 72.5t-0.5 54.5
t-0.5 57v445h218v-1266q0 -40 0.5 -77t1.5 -68t4 -88h-208q-7 46 -9 74t-3.5 59t-1.5 56q-61 -105 -157 -156t-241 -51q-116 0 -200 40t-139.5 112t-82 171.5t-26.5 218.5z" />
    <glyph glyph-name="e" unicode="e" horiz-adv-x="1244" 
d="M324 488q0 -78 17.5 -143t55 -112t96 -73t140.5 -26q54 0 101.5 10t86 30.5t66 50t41.5 68.5l194 -39q-19 -47 -55.5 -95.5t-95.5 -88t-142.5 -65t-197.5 -25.5q-261 0 -398.5 138.5t-137.5 415.5q0 154 45.5 258.5t120.5 168t172 90.5t200 27q136 0 234 -41.5
t161 -116.5t93 -179.5t30 -230.5v-22h-827zM937 629q-5 70 -25 125.5t-56.5 94t-90 59t-126.5 20.5q-57 0 -111.5 -14.5t-98 -49t-71.5 -92t-32 -143.5h611z" />
    <glyph glyph-name="f" unicode="f" horiz-adv-x="660" 
d="M419 903v-903h-219v903h-159v153h159v152q0 64 13 118.5t46 93.5t88.5 61t140.5 22q38 0 78 -4t71 -10v-143q-19 3 -42.5 4.5t-41.5 1.5q-41 0 -67 -11t-41 -31.5t-20.5 -50t-5.5 -67.5v-136h218v-153h-218z" />
    <glyph glyph-name="g" unicode="g" horiz-adv-x="1318" 
d="M95 532q0 121 28.5 221.5t86.5 172.5t146.5 112t208.5 40q129 0 224.5 -53.5t149.5 -154.5q1 25 3 55.5t4 58t9 72.5h208q-3 -57 -4 -87.5t-1.5 -67.5t-0.5 -76v-794q0 -120 -35.5 -213.5t-103 -157t-167 -97t-226.5 -33.5q-110 0 -193.5 20t-143.5 57t-96.5 89.5
t-51.5 116.5l216 30q23 -75 92 -118.5t183 -43.5q71 0 128 21t96.5 64t62.5 108.5t23 154.5v177q-61 -105 -156.5 -157.5t-241.5 -52.5q-116 0 -200 39.5t-139.5 111t-82 170t-26.5 215.5zM321 532q0 -181 76.5 -281t229.5 -100q60 0 117 19t101 64t71 119.5t27 185.5
q0 108 -26 181.5t-69.5 119t-100.5 65t-118 19.5q-148 0 -228 -99t-80 -293z" />
    <glyph glyph-name="h" unicode="h" horiz-adv-x="1316" 
d="M378 1501v-450q0 -34 -1 -68.5t-2.5 -64.5t-2.5 -52t-2 -31h4q65 126 162 184.5t231 58.5q104 0 178.5 -29.5t122.5 -83.5t70.5 -130t22.5 -168v-667h-218v604q0 69 -14.5 126t-45.5 97t-80.5 62t-119.5 22q-66 0 -122 -26t-96.5 -72t-63.5 -109.5t-23 -138.5v-565h-217
v1501h217z" />
    <glyph glyph-name="i" unicode="i" horiz-adv-x="541" 
d="M163 1314v187h215v-187h-215zM163 0v1056h217v-1056h-217z" />
    <glyph glyph-name="j" unicode="j" horiz-adv-x="541" 
d="M163 1314v187h215v-187h-215zM380 -159q0 -66 -12.5 -123t-43 -99t-81 -65.5t-125.5 -23.5q-42 0 -79 2t-68 8v157q13 -2 31 -4t31 -2q39 0 64.5 10.5t40 32t20 55t5.5 79.5v1188h217v-1215z" />
    <glyph glyph-name="k" unicode="k" horiz-adv-x="1165" 
d="M905 0l-389 490l-136 -116v-374h-217v1501h217v-924l496 479h248l-466 -436l497 -620h-250z" />
    <glyph glyph-name="l" unicode="l" horiz-adv-x="541" 
d="M163 0v1501h217v-1501h-217z" />
    <glyph glyph-name="m" unicode="m" horiz-adv-x="2027" 
d="M909 0v594q0 69 -12 127.5t-40.5 100.5t-74.5 65.5t-115 23.5q-65 0 -118 -26t-91 -72t-59 -109.5t-21 -138.5v-565h-217v815q0 34 -0.5 72.5t-1.5 73t-4 95.5h206q4 -63 5.5 -97t2.5 -68t1 -56h4q63 125 154.5 183t217.5 58q78 0 138.5 -18.5t105 -52t73 -80
t43.5 -102.5h4q63 125 159 190t228 65q105 0 177 -33.5t116 -91.5t63.5 -135.5t19.5 -165.5v-652h-216v594q0 69 -12.5 127.5t-41 100.5t-75 65.5t-115.5 23.5q-58 0 -110 -25.5t-91.5 -70.5t-62.5 -106.5t-23 -133.5v-575h-217z" />
    <glyph glyph-name="n" unicode="n" horiz-adv-x="1316" 
d="M943 0v596q0 72 -14.5 130t-45.5 99t-80 63.5t-118 22.5q-67 0 -123 -25.5t-96.5 -71.5t-63 -109t-22.5 -138v-567h-217v817q0 34 -0.5 72.5t-2 72.5t-5.5 94h206q4 -61 6 -95t3.5 -69t1.5 -57h4q64 127 161 185t230 58q110 0 185 -33t121.5 -90t67 -134.5t20.5 -166.5
v-654h-218z" />
    <glyph glyph-name="o" unicode="o" horiz-adv-x="1295" 
d="M1200 530q0 -122 -35 -223t-105 -173.5t-174 -113t-243 -40.5q-133 0 -235 40t-171.5 112.5t-105.5 174t-36 223.5q0 118 34 218.5t102.5 174t173 114.5t245.5 41q147 0 251 -41t170.5 -114t97.5 -173.5t31 -219.5zM972 530q0 102 -20.5 176t-61 122t-100 70.5
t-136.5 22.5q-160 0 -245 -95.5t-85 -295.5q0 -102 23 -176.5t64.5 -122.5t100 -71.5t129.5 -23.5q79 0 140.5 23t104 71t64.5 122.5t22 177.5z" />
    <glyph glyph-name="p" unicode="p" horiz-adv-x="1322" 
d="M1226 534q0 -122 -28.5 -224t-86.5 -175.5t-147 -114t-209 -40.5q-60 0 -116 12.5t-104.5 38t-88 63.5t-66.5 89h-6q3 -41 4 -68t1.5 -58.5t0.5 -60.5v-466h-217v1295q0 40 -0.5 77t-2 67.5t-5.5 86.5h210q5 -45 6.5 -73.5t3 -60t1.5 -56.5h4q115 215 393 215
q117 0 202.5 -41t141 -113.5t82.5 -173t27 -219.5zM998 534q0 187 -76.5 288.5t-230.5 101.5q-60 0 -116.5 -19.5t-100.5 -66t-71 -122.5t-27 -190q0 -111 26.5 -186t70 -120.5t100 -64.5t116.5 -19q147 0 228 98.5t81 299.5z" />
    <glyph glyph-name="q" unicode="q" horiz-adv-x="1318" 
d="M1165 1056q-3 -56 -4.5 -86.5t-2.5 -67.5t-1 -77v-1295h-216v493v55t1 54q0 29 1 57h-2q-60 -104 -155.5 -156.5t-242.5 -52.5q-116 0 -200 40.5t-139.5 113t-82 173t-26.5 219.5q0 121 28.5 222.5t87 175t147.5 114t209 40.5q128 0 224 -53t148 -153h4q0 25 1.5 55.5
t3 57.5t7.5 71h210zM945 534q0 111 -26.5 186t-70 120.5t-100.5 64.5t-117 19q-147 0 -227 -98.5t-80 -299.5q0 -188 75 -289t230 -101q60 0 117 20t101 66.5t71 122.5t27 189z" />
    <glyph glyph-name="r" unicode="r" horiz-adv-x="789" 
d="M707.5 887q-27.5 4 -62.5 4q-64 0 -113.5 -27.5t-83 -77.5t-51 -119.5t-17.5 -154.5v-512h-217v797q0 36 -0.5 77.5t-1.5 79t-4 102.5h204q4 -68 6 -105.5t3.5 -74t1.5 -57.5h4q21 63 47 111.5t60.5 81.5t80.5 49.5t109 16.5q24 0 47.5 -3.5t36.5 -6.5v-192
q-22 7 -49.5 11z" />
    <glyph glyph-name="s" unicode="s" horiz-adv-x="1098" 
d="M1015 303q0 -75 -31 -135t-91 -101.5t-147 -64t-199 -22.5q-104 0 -185 14t-140 46.5t-98 86t-58 133.5l188 33q12 -53 38 -85.5t63.5 -50.5t86 -24.5t105.5 -6.5t105.5 8.5t84.5 27.5t56 49t20 74q0 46 -26 75.5t-72 49t-107.5 32.5t-131.5 28q-69 13 -134.5 33
t-117 53.5t-83 84.5t-31.5 128q0 72 28.5 129.5t84 97t137.5 61t189 21.5q88 0 162.5 -15t131.5 -48t94.5 -84.5t52.5 -123.5l-191 -26q-8 43 -30.5 72t-55.5 46t-75 24t-89 7q-117 0 -177.5 -37t-60.5 -104q0 -41 22 -67t61.5 -43t94.5 -30t121 -29q75 -16 148 -37
t130 -55.5t92 -88.5t35 -136z" />
    <glyph glyph-name="t" unicode="t" horiz-adv-x="699" 
d="M544 -9q-57 -7 -121 -7q-118 0 -181 66t-63 198v655h-140v153h142l71 253h144v-253h243v-153h-243v-608q0 -81 33 -118t99 -37q28 0 61.5 5t62.5 10v-143q-51 -14 -108 -21z" />
    <glyph glyph-name="u" unicode="u" horiz-adv-x="1316" 
d="M370 1056v-594q0 -69 13 -127t43.5 -100t80 -65.5t122.5 -23.5q68 0 124 25.5t95.5 71t61.5 109t22 138.5v566h221v-812q0 -35 0.5 -74t1.5 -74t4 -96h-206q-4 62 -5.5 96.5l-3 69t-1.5 57.5h-6q-66 -128 -161.5 -185.5t-230.5 -57.5q-108 0 -183 33t-121.5 91t-67 135.5
t-20.5 166.5v650h217z" />
    <glyph glyph-name="v" unicode="v" horiz-adv-x="1147" 
d="M697 0h-260l-419 1056h234l317 -871l328 871h229z" />
    <glyph glyph-name="w" unicode="w" horiz-adv-x="1836" 
d="M1038 1056l280 -885l272 885h212l-356 -1056h-256l-274 859l-274 -859h-256l-356 1056h212l272 -885l280 885h244z" />
    <glyph glyph-name="x" unicode="x" horiz-adv-x="1104" 
d="M549 664l266 392h239l-381 -511l405 -545h-241l-288 413l-289 -413h-235l400 543l-380 513h238z" />
    <glyph glyph-name="y" unicode="y" horiz-adv-x="1132" 
d="M660 -75q-44 -105 -86.5 -180t-89.5 -123t-100 -70t-118 -22q-48 0 -83.5 4t-70.5 10v157q20 -3 45.5 -4.5t44.5 -1.5q51 0 84.5 17t62 49t53 79.5t47.5 108.5l19 51l-450 1056h234l328 -822l303 822h231z" />
    <glyph glyph-name="z" unicode="z" horiz-adv-x="1004" 
d="M66 0v161l596 734h-555v161h798v-159l-594 -732h634v-165h-879z" />
    <glyph glyph-name="braceleft" unicode="{" horiz-adv-x="783" 
d="M569 -470q-72 0 -127 22t-92.5 62.5t-56.5 98.5t-19 130v353q0 65 -15.5 110.5t-44.5 74t-71 42.5t-94 16v153q52 2 94 16t71 42.5t44.5 73.5t15.5 109v355q0 160 80.5 236.5t227.5 76.5h175v-153h-103q-95 0 -135.5 -54.5t-40.5 -165.5v-351q0 -51 -15.5 -94t-43 -76.5
t-65 -56t-80.5 -32.5v-2q45 -11 82.5 -35t64.5 -59t42 -80.5t15 -97.5v-341q0 -109 40 -164.5t136 -55.5h103v-153h-188z" />
    <glyph glyph-name="bar" unicode="|" horiz-adv-x="577" 
d="M187 -470v1971h203v-1971h-203z" />
    <glyph glyph-name="braceright" unicode="}" horiz-adv-x="783" 
d="M214 1501q143 0 219.5 -78.5t76.5 -232.5v-357q0 -64 15 -109t44 -74t71 -43t96 -15v-155q-54 -2 -96 -15t-71 -41.5t-44 -74t-15 -110.5v-355q0 -154 -80.5 -232.5t-229.5 -78.5h-173v155h105q93 0 134 55t41 165v349q0 52 15 95.5t42 76.5t64.5 56t81.5 34
q-57 15 -96 44.5t-62.5 73.5t-34 100.5t-10.5 125.5v266q0 112 -41 166t-134 54h-105v155h187z" />
    <glyph glyph-name="asciitilde" unicode="~" horiz-adv-x="1194" 
d="M1063.5 602q-31.5 -16 -64 -25.5t-68 -13.5t-77.5 -4q-73 0 -149 22t-152 48q-69 25 -125 36.5t-104 11.5q-39 0 -73 -6t-65.5 -18t-61.5 -29t-61 -38v171q54 41 123 64t154 23q86 0 167.5 -23t159.5 -52q46 -16 101.5 -30.5t103.5 -14.5q70 0 135 25.5t121 69.5v-178
q-33 -23 -64.5 -39z" />
    <glyph glyph-name="Euro" unicode="&#x20ac;" horiz-adv-x="1194" 
d="M361 736v-39.5t2 -38.5h436v-138h-421q12 -83 36 -150t61.5 -114.5t88 -73t113.5 -25.5q60 0 105 20t77.5 52t53.5 73.5t34 85.5l204 -50q-21 -72 -58 -137t-94.5 -114t-137.5 -78t-186 -29q-115 0 -204.5 39t-154.5 109.5t-105.5 170t-57.5 221.5h-143v138h132
q-2 19 -2 39.5v40.5v34.5t2 38.5h-132v134h145q16 129 58.5 228t109 165.5t156 101t200.5 34.5q89 0 165 -24t135 -67t100.5 -103.5t61.5 -132.5l-204 -49q-13 43 -36.5 79.5t-56.5 63t-75 41.5t-92 15q-134 0 -206 -90t-95 -262h423v-134h-436q-2 -18 -2 -38v-37z" />
    <glyph glyph-name="quotesinglbase" unicode="&#x201a;" horiz-adv-x="488" 
d="M358 57q0 -59 -5.5 -107t-17 -89.5t-28.5 -77.5t-39 -70h-146q51 69 81 142t30 145h-103v221h228v-164z" />
    <glyph glyph-name="florin" unicode="&#x192;" horiz-adv-x="1161" 
d="M909 797h-232l-250 -1267h-213l244 1267h-198l31 154h197l46 233q13 61 35.5 115t62 93.5t98.5 62.5t146 23q54 0 106 -9t92 -21l-39 -145q-22 10 -55.5 16.5t-62.5 6.5q-41 0 -69 -9.5t-47 -30t-31 -51t-20 -72.5l-43 -212h234z" />
    <glyph glyph-name="quotedblbase" unicode="&#x201e;" horiz-adv-x="779" 
d="M321 57q0 -59 -5.5 -107t-16.5 -89.5t-27.5 -77.5t-38.5 -70h-146q50 69 78.5 142t28.5 145h-103v221h230v-164zM695 57q0 -59 -6 -107t-17.5 -89.5t-29 -77.5t-40.5 -70h-144q50 69 80.5 142t30.5 145h-105v221h231v-164z" />
    <glyph glyph-name="ellipsis" unicode="&#x2026;" horiz-adv-x="1466" 
d="M1108 0v254h230v-254h-230zM620 0v254h230v-254h-230zM130 0v254h228v-254h-228z" />
    <glyph glyph-name="dagger" unicode="&#x2020;" horiz-adv-x="1041" 
d="M610 928l-18 -1176h-143l-18 1176l-363 -15v180l363 -15l-6 423h191l-6 -423l366 15v-180z" />
    <glyph glyph-name="daggerdbl" unicode="&#x2021;" horiz-adv-x="1041" 
d="M604 313l372 15v-186l-370 15l10 -423h-191l10 423l-367 -15v186l369 -15l12 305l-12 310l-369 -15v180l367 -15l-10 423h191l-10 -423l370 15v-180l-372 15l-14 -310z" />
    <glyph glyph-name="circumflex" unicode="&#x2c6;" horiz-adv-x="707" 
d="M447 1466l257 -266v-23h-124l-228 155l-228 -155h-124v23l257 266h190z" />
    <glyph glyph-name="perthousand" unicode="&#x2030;" horiz-adv-x="2818" 
d="M586 0h-155l974 1454h154zM787 1004q0 -128 -26 -216.5t-71.5 -143.5t-107.5 -79t-133 -24t-133 24t-107.5 78.5t-72 143t-26.5 217.5q0 136 26.5 225.5t73 142t109 73.5t135.5 21q69 0 130 -21t106 -73.5t71 -142t26 -225.5zM614 1004q0 99 -10 164.5t-30.5 104
t-50.5 54t-69 15.5q-43 0 -74.5 -16t-52.5 -55t-31.5 -104t-10.5 -163q0 -93 10.5 -156.5t31.5 -102.5t52.5 -55.5t72.5 -16.5q39 0 69 16.5t50.5 55.5t31.5 102.5t11 156.5zM1879 447q0 -129 -27 -217t-73.5 -142.5t-109 -78t-132.5 -23.5q-71 0 -132.5 23.5t-107 77.5
t-71.5 142t-26 218q0 137 26 227t71.5 142.5t108 73.5t135.5 21q69 0 130.5 -21t107.5 -73.5t73 -142.5t27 -227zM1706 447q0 99 -11 163.5t-32 103t-51.5 54t-70.5 15.5q-41 0 -72.5 -16t-52.5 -54.5t-31.5 -103.5t-10.5 -162q0 -94 10.5 -158t31.5 -103t51.5 -55.5
t71.5 -16.5q38 0 69 16.5t52.5 55.5t33.5 103t12 158zM2706 447q0 -129 -27 -217t-73 -142.5t-108.5 -78t-132.5 -23.5q-71 0 -132.5 23.5t-106.5 77.5t-71 142t-26 218q0 137 26 227t72 142.5t108.5 73.5t135.5 21q69 0 130 -21t106.5 -73.5t72 -142.5t26.5 -227zM2533 447
q0 99 -10.5 163.5t-31.5 103t-51 54t-69 15.5q-41 0 -72.5 -16t-53 -54.5t-32.5 -103.5t-11 -162q0 -94 11 -158t32 -103t51.5 -55.5t70.5 -16.5q38 0 68.5 16.5t52.5 55.5t33.5 103t11.5 158z" />
    <glyph glyph-name="Scaron" unicode="&#x160;" horiz-adv-x="1409" 
d="M1295 406q0 -93 -34.5 -171.5t-107 -135t-184 -88t-264.5 -31.5q-269 0 -416.5 96.5t-189.5 279.5l222 44q13 -54 40 -98.5t73.5 -77t114.5 -50t163 -17.5q81 0 147 14t113 43t72.5 74t25.5 108q0 70 -35.5 114t-94 72.5t-133 47t-151.5 37.5q-59 14 -118 29t-113.5 36.5
t-101.5 50.5t-81.5 71t-54.5 98t-20 131q0 104 41 178t114 121.5t172.5 69.5t215.5 22q133 0 227 -21.5t158 -64.5t103 -107t62 -149l-225 -34q-12 52 -37 90.5t-64.5 64.5t-96 39t-132.5 13q-89 0 -149 -16.5t-96.5 -45.5t-52 -67.5t-15.5 -82.5q0 -61 29 -100.5t79 -66
t117 -45t144 -37.5q64 -15 129 -31t124 -37.5t110.5 -51.5t89.5 -74t59.5 -103.5t21.5 -140.5zM622 1578l-257 258v22h124l228 -148l228 148h124v-22l-257 -258h-190z" />
    <glyph glyph-name="guilsinglleft" unicode="&#x2039;" horiz-adv-x="689" 
d="M423 146l-346 374v70l346 380h187v-31l-346 -384l348 -378v-31h-189z" />
    <glyph glyph-name="OE" unicode="&#x152;" horiz-adv-x="2153" 
d="M116 734q0 170 47 306.5t138 232.5t224 147.5t304 51.5q108 0 200 -18h990v-181h-783v-442h720v-177h-720v-475h824v-179h-1035q-45 -8 -95 -13t-103 -5q-177 0 -310.5 56t-222.5 155.5t-133.5 237.5t-44.5 303zM348 734q0 -126 31 -230.5t92 -180t150 -117t206 -41.5
q48 0 93.5 6t85.5 18v1075q-40 13 -85 18t-92 5q-120 0 -210 -39t-150 -111.5t-90.5 -174.5t-30.5 -228z" />
    <glyph glyph-name="Zcaron" unicode="&#x17d;" horiz-adv-x="1293" 
d="M68 0v167l856 1102h-778v185h1038v-165l-856 -1106h908v-183h-1168zM566 1578l-257 258v22h124l228 -148l228 148h124v-22l-257 -258h-190z" />
    <glyph glyph-name="quoteleft" unicode="&#x2018;" horiz-adv-x="411" 
d="M243 1312q-29 -73 -29 -145h101v-222h-228v165q0 58 6 106.5t17 90t28 77.5t39 70h144q-49 -69 -78 -142z" />
    <glyph glyph-name="quoteright" unicode="&#x2019;" horiz-adv-x="411" 
d="M315.5 1181.5q-5.5 -48.5 -16.5 -89.5t-27.5 -77t-38.5 -70h-146q50 68 78.5 141.5t28.5 147.5h-103v220h230v-165q0 -59 -5.5 -107.5z" />
    <glyph glyph-name="quotedblleft" unicode="&#x201c;" horiz-adv-x="779" 
d="M695 1454q-51 -69 -80 -142t-29 -145h103v-222h-231v165q0 58 6 106.5t17.5 90t28.5 77.5t39 70h146zM321 1454q-49 -69 -78 -142t-29 -145h101v-222h-228v165q0 58 6 106.5t17 90t28 77.5t39 70h144z" />
    <glyph glyph-name="quotedblright" unicode="&#x201d;" horiz-adv-x="779" 
d="M695 1289q0 -59 -6 -107.5t-17.5 -89.5t-29 -77t-40.5 -70h-144q50 68 80.5 141.5t30.5 147.5h-105v220h231v-165zM321 1289q0 -59 -5.5 -107.5t-16.5 -89.5t-27.5 -77t-38.5 -70h-146q50 68 78.5 141.5t28.5 147.5h-103v220h230v-165z" />
    <glyph glyph-name="bullet" unicode="&#x2022;" horiz-adv-x="901" 
d="M740 699q0 -59 -23 -111.5t-63 -91.5t-93.5 -62t-113.5 -23q-59 0 -111 23t-91 62t-61.5 91.5t-22.5 111.5q0 61 22.5 114.5t61.5 93t91 62.5t111 23q60 0 113.5 -23t93.5 -62.5t63 -93t23 -114.5z" />
    <glyph glyph-name="endash" unicode="&#x2013;" horiz-adv-x="1039" 
d="M0 458v160h1039v-160h-1039z" />
    <glyph glyph-name="emdash" unicode="&#x2014;" horiz-adv-x="2114" 
d="M0 458v160h2114v-160h-2114z" />
    <glyph glyph-name="tilde" unicode="&#x2dc;" horiz-adv-x="718" 
d="M725.5 1355q-9.5 -48 -32.5 -87.5t-63 -65t-106 -25.5q-44 0 -88 20.5t-85.5 44.5t-79 44.5t-69.5 20.5q-54 0 -76.5 -35t-30.5 -95h-115q4 46 14 94t32.5 87.5t62.5 64.5t105 25q46 0 90.5 -20.5t85.5 -44.5t78 -44.5t68 -20.5q27 0 45.5 9.5t30.5 27t19 41t11 52.5h118
q-5 -45 -14.5 -93z" />
    <glyph glyph-name="trademark" unicode="&#x2122;" horiz-adv-x="1608" 
d="M400 1350v-558h-128v558h-213v104h559v-104h-218zM1336 792v526l-206 -526h-97l-200 526v-526h-119v662h177l194 -503l198 503h171v-662h-118z" />
    <glyph glyph-name="scaron" unicode="&#x161;" horiz-adv-x="1098" 
d="M1015 303q0 -75 -31 -135t-91 -101.5t-147 -64t-199 -22.5q-104 0 -185 14t-140 46.5t-98 86t-58 133.5l188 33q12 -53 38 -85.5t63.5 -50.5t86 -24.5t105.5 -6.5t105.5 8.5t84.5 27.5t56 49t20 74q0 46 -26 75.5t-72 49t-107.5 32.5t-131.5 28q-69 13 -134.5 33
t-117 53.5t-83 84.5t-31.5 128q0 72 28.5 129.5t84 97t137.5 61t189 21.5q88 0 162.5 -15t131.5 -48t94.5 -84.5t52.5 -123.5l-191 -26q-8 43 -30.5 72t-55.5 46t-75 24t-89 7q-117 0 -177.5 -37t-60.5 -104q0 -41 22 -67t61.5 -43t94.5 -30t121 -29q75 -16 148 -37
t130 -55.5t92 -88.5t35 -136zM468 1177l-253 318v23h126l222 -204l222 204h126v-23l-253 -318h-190z" />
    <glyph glyph-name="guilsinglright" unicode="&#x203a;" horiz-adv-x="689" 
d="M77 146v31l348 378l-346 384v31h185l348 -380v-70l-348 -374h-187z" />
    <glyph glyph-name="oe" unicode="&#x153;" horiz-adv-x="2112" 
d="M95 528q0 119 33.5 220t102 174.5t173 114.5t246.5 41q80 0 146 -13.5t119.5 -38.5t94.5 -60.5t71 -80.5q34 51 81 87.5t101.5 60t116 34.5t125.5 11q134 0 230.5 -42t159 -117t92.5 -179.5t30 -229.5v-22h-827q0 -79 17.5 -144t55.5 -111.5t96.5 -72.5t141.5 -26
q53 0 100.5 10t85.5 30.5t65.5 50t41.5 68.5q50 -9 98 -19.5t98 -21.5q-19 -47 -55.5 -95.5t-95 -87.5t-141.5 -64t-195 -25q-154 0 -260 49t-169 146q-63 -92 -169 -143.5t-262 -51.5q-134 0 -236 40t-171.5 112.5t-105 173t-35.5 222.5zM324 528q0 -102 23 -176t64.5 -122
t100 -71t129.5 -23q79 0 140.5 22.5t104 70.5t64.5 122t22 177q0 205 -82 299t-236 94q-161 0 -245.5 -97t-84.5 -296zM1505 926q-56 0 -110.5 -14.5t-98.5 -49t-72 -91.5t-32 -142h611q-5 69 -24.5 124t-55.5 93.5t-90 59t-128 20.5z" />
    <glyph glyph-name="zcaron" unicode="&#x17e;" horiz-adv-x="1004" 
d="M66 0v161l596 734h-555v161h798v-159l-594 -732h634v-165h-879zM421 1177l-253 318v23h126l222 -204l222 204h126v-23l-253 -318h-190z" />
    <glyph glyph-name="Ydieresis" unicode="&#x178;" horiz-adv-x="1277" 
d="M637 783l388 671h244l-519 -856v-598h-228v598l-516 856h246zM501 1779v-199h-167v199h167zM943 1779v-199h-166v199h166z" />
    <glyph glyph-name="nonbreakingspace" unicode="&#xa0;" horiz-adv-x="582" 
 />
    <glyph glyph-name="exclamdown" unicode="&#xa1;" horiz-adv-x="618" 
d="M221 639h175l29 -1035h-236zM425 1060v-229h-231v229h231z" />
    <glyph glyph-name="cent" unicode="&#xa2;" horiz-adv-x="1175" 
d="M1060 400.5q-32 -61.5 -85 -110.5t-127.5 -81.5t-168.5 -41.5v-198h-134v200q-116 9 -202.5 52.5t-143.5 114t-85.5 165t-28.5 206.5q0 121 30.5 219t89 169.5t144 114.5t196.5 54v190h134v-190q89 -7 160 -35.5t123 -74t85 -105t48 -128.5l-223 -14q-8 45 -27.5 82.5
t-52 65t-78 42.5t-104.5 15q-75 0 -132 -26.5t-95.5 -76.5t-58 -122.5t-19.5 -164.5q0 -200 81 -301.5t226 -101.5q109 0 181 57.5t87 166.5l222 -13q-10 -68 -42 -129.5z" />
    <glyph glyph-name="sterling" unicode="&#xa3;" horiz-adv-x="1252" 
d="M49 165q52 22 90.5 50t63.5 67t37 92.5t12 126.5v151h-195v161h195v208q0 95 19.5 178t69.5 144t135 96t217 35q105 0 182 -25t129.5 -69.5t81.5 -104.5t38 -130l-217 -21q-33 190 -214 190q-113 0 -171 -63t-58 -181v-257h412v-161h-412v-140q0 -120 -34.5 -205
t-124.5 -134h448q64 0 108 20t73 54t44.5 78.5t23.5 93.5l206 -31q-9 -82 -38.5 -153t-79 -123t-118.5 -82t-157 -30h-766v165z" />
    <glyph glyph-name="currency" unicode="&#xa4;" horiz-adv-x="1132" 
d="M112 705q0 71 20.5 136t58.5 124l-114 118l114 113l116 -113q58 38 124.5 60t139.5 22q72 0 138.5 -21.5t123.5 -58.5l112 111l117 -118l-113 -113q40 -56 61 -122.5t21 -137.5q0 -70 -21 -136t-63 -126l117 -113l-115 -116l-116 114q-57 -39 -122.5 -59.5t-139.5 -20.5
q-72 0 -138.5 20.5t-123.5 61.5l-122 -120l-112 118l116 115q-38 60 -58.5 126t-20.5 136zM285 707q0 -58 22.5 -109.5t61.5 -90.5t91 -61.5t111 -22.5t111 22.5t90.5 61.5t61 90.5t22.5 109.5q0 59 -22.5 111t-61 91t-90.5 62t-111 23t-111 -23t-91 -62t-61.5 -91
t-22.5 -111z" />
    <glyph glyph-name="yen" unicode="&#xa5;" horiz-adv-x="1273" 
d="M528 301h-382v138h382v157h-382v138h312l-444 720h238l381 -653l386 653h237l-443 -720h311v-138h-382v-157h382v-138h-382v-301h-214v301z" />
    <glyph glyph-name="brokenbar" unicode="&#xa6;" horiz-adv-x="577" 
d="M187 697v804h203v-804h-203zM187 -470v804h203v-804h-203z" />
    <glyph glyph-name="section" unicode="&#xa7;" horiz-adv-x="1134" 
d="M1025 124q0 -77 -30 -138.5t-88.5 -104.5t-145 -66t-200.5 -23q-101 0 -182.5 14.5t-143.5 48t-103.5 88.5t-61.5 136l186 33q13 -53 40.5 -88t67 -56t89.5 -29.5t108 -8.5q60 0 111.5 10.5t88.5 32t58 55t21 79.5q0 49 -23 83t-68 58.5t-110.5 44t-150.5 39.5
q-69 16 -136.5 40t-121 62t-87 92.5t-33.5 131.5q0 45 15.5 87t45.5 77.5t72.5 63t96.5 42.5q-42 15 -79.5 39t-66 57t-45.5 74.5t-17 91.5q0 73 28.5 130.5t84.5 97.5t138.5 61.5t189.5 21.5q84 0 158 -15.5t132 -48.5t97 -84t53 -123l-190 -28q-9 43 -32 73.5t-56 49.5
t-74.5 27.5t-87.5 8.5q-127 0 -189.5 -43.5t-62.5 -111.5q0 -45 25 -76t67 -53t97.5 -38t116.5 -31q73 -17 145.5 -40.5t131 -61t95 -92.5t36.5 -135q0 -46 -14 -90t-41 -81.5t-67.5 -65.5t-93.5 -42q48 -20 86 -46t65 -59.5t41 -76t14 -94.5zM850 652q0 45 -21.5 77.5
t-62.5 57.5t-100 43.5t-134 33.5q-53 -3 -96 -18.5t-73 -40t-46 -57.5t-16 -71q0 -45 21.5 -78t61 -57t95.5 -41.5t125 -30.5q52 1 97 12.5t78 34t52 56.5t19 79z" />
    <glyph glyph-name="dieresis" unicode="&#xa8;" horiz-adv-x="689" 
d="M206 1399v-203h-167v203h167zM648 1399v-203h-166v203h166z" />
    <glyph glyph-name="copyright" unicode="&#xa9;" horiz-adv-x="1617" 
d="M1553 730q0 -103 -26.5 -198.5t-75.5 -178.5t-117 -151t-150.5 -116.5t-177.5 -75t-197 -26.5q-103 0 -198 26.5t-178.5 75t-152 116.5t-117 151t-75.5 178.5t-27 198.5t26.5 198t75.5 177.5t117 150.5t151.5 116.5t179 75t198.5 26.5q102 0 197 -26.5t177.5 -75
t150.5 -116.5t117 -150.5t75.5 -177.5t26.5 -198zM1458 730q0 134 -51 252t-139 206t-206.5 139t-252.5 51q-135 0 -253.5 -51t-206.5 -139t-139 -206t-51 -252q0 -90 23 -173t65.5 -155t101.5 -131.5t131.5 -101.5t155.5 -65t173 -23t172.5 23t154.5 65t131.5 101.5
t102 131.5t65.5 155t23 173zM1177 520q-22 -44 -52 -86t-72 -74.5t-99.5 -52.5t-134.5 -20q-104 0 -181 33t-127.5 92.5t-75 141t-24.5 178.5q0 100 24.5 181t74.5 138t125.5 87.5t177.5 30.5q77 0 134.5 -18.5t99 -48.5t69.5 -69t47 -80l-120 -34q-12 27 -31 53t-47 46
t-65 32t-85 12q-72 0 -123.5 -23.5t-84.5 -67t-48.5 -104.5t-15.5 -135q0 -75 17 -137t51.5 -106t86 -68.5t121.5 -24.5q50 0 88.5 14t67.5 37t49.5 51.5t35.5 58.5z" />
    <glyph glyph-name="ordfeminine" unicode="&#xaa;" horiz-adv-x="951" 
d="M258 911q0 -28 8.5 -51.5t26.5 -41t45.5 -27.5t65.5 -10q57 0 102.5 22t77 55.5t48 73.5t16.5 76v52l-151 -6q-50 -2 -93.5 -9t-75.5 -23t-51 -43t-19 -68zM81 897q0 70 30 117.5t81 76t117.5 41.5t139.5 15l199 4v43q0 92 -45.5 135t-128.5 43q-84 0 -127.5 -33
t-55.5 -107l-177 12q8 48 34 90t71 73t109 49t148 18q81 0 144.5 -17t107.5 -51.5t67.5 -86t23.5 -119.5v-293q0 -59 15.5 -90.5t60.5 -31.5q12 0 26 2.5t24 6.5v-105q-27 -8 -60.5 -11t-59.5 -3q-89 0 -128.5 42.5t-44.5 117.5h-4q-45 -78 -120.5 -122t-179.5 -44
q-126 0 -196.5 58.5t-70.5 169.5z" />
    <glyph glyph-name="guillemotleft" unicode="&#xab;" horiz-adv-x="1202" 
d="M939 146l-349 374v70l349 380h187v-33l-349 -382l351 -378v-31h-189zM423 146l-346 374v70l346 380h187v-33l-346 -382l348 -378v-31h-189z" />
    <glyph glyph-name="logicalnot" unicode="&#xac;" horiz-adv-x="1194" 
d="M1120 173h-173v441h-874v175h1047v-616z" />
    <glyph glyph-name="hyphen.001" unicode="&#xad;" horiz-adv-x="697" 
d="M89 437v190h521v-190h-521z" />
    <glyph glyph-name="registered" unicode="&#xae;" horiz-adv-x="1617" 
d="M1553 730q0 -103 -26.5 -198.5t-75.5 -178.5t-117 -151t-150.5 -116.5t-177.5 -75t-197 -26.5q-103 0 -198 26.5t-178.5 75t-152 116.5t-117 151t-75.5 178.5t-27 198.5t26.5 198t75.5 177.5t117 150.5t151.5 116.5t179 75t198.5 26.5q102 0 197 -26.5t177.5 -75
t150.5 -116.5t117 -150.5t75.5 -177.5t26.5 -198zM1458 730q0 134 -51 252t-139 206t-206.5 139t-252.5 51q-135 0 -253.5 -51t-206.5 -139t-139 -206t-51 -252q0 -90 23 -173t65.5 -155t101.5 -131.5t131.5 -101.5t155.5 -65t173 -23t172.5 23t154.5 65t131.5 101.5
t102 131.5t65.5 155t23 173zM1015 299l-204 346h-168v-346h-131v858h317q146 0 223.5 -65.5t77.5 -180.5q0 -53 -14 -95t-39.5 -73.5t-61 -52.5t-78.5 -30l228 -361h-150zM1000 909q0 72 -48.5 108.5t-132.5 36.5h-176v-310h188q83 0 126 45t43 120z" />
    <glyph glyph-name="overscore" unicode="&#xaf;" horiz-adv-x="1056" 
d="M-20 1427v74h1098v-74h-1098z" />
    <glyph glyph-name="degree" unicode="&#xb0;" horiz-adv-x="819" 
d="M716 1175q0 -63 -24 -119t-65.5 -97t-97.5 -65t-120 -24q-63 0 -119 24t-98 65t-66.5 97t-24.5 119q0 64 24.5 119t66.5 95.5t98 63.5t119 23q64 0 120 -23t97.5 -63.5t65.5 -95.5t24 -119zM590 1175q0 38 -14 71t-38.5 57t-57.5 38t-71 14t-71 -14t-57.5 -38t-39 -57
t-14.5 -71t14.5 -71t39 -57.5t57.5 -38.5t71 -14t71 14t57.5 38.5t38.5 57.5t14 71z" />
    <glyph glyph-name="plusminus" unicode="&#xb1;" horiz-adv-x="1194" 
d="M683 707v-394h-175v394h-438v178h438v394h175v-394h437v-178h-437zM70 0v173h1050v-173h-1050z" />
    <glyph glyph-name="twosuperior" unicode="&#xb2;" horiz-adv-x="846" 
d="M107 582v117q22 49 55 89t71 74t79 64t80 58q37 26 70 52t58 53t40 56.5t15 64.5q0 61 -35.5 96.5t-108.5 35.5q-66 0 -108.5 -35t-50.5 -101l-154 6q7 54 31 100t65 80.5t98 54t129 19.5q140 0 217.5 -64.5t77.5 -179.5q0 -51 -19 -93.5t-50.5 -80t-71 -69.5t-81.5 -62
q-35 -26 -69 -50.5t-63 -50t-52 -51.5t-35 -55h455v-128h-643z" />
    <glyph glyph-name="threesuperior" unicode="&#xb3;" horiz-adv-x="835" 
d="M755 821q0 -120 -84 -186t-236 -66q-93 0 -154.5 20.5t-100 54t-57 77t-24.5 90.5l159 12q11 -64 52.5 -98t122.5 -34q76 0 116.5 35t40.5 105q0 43 -18.5 69.5t-46 40t-60.5 18t-61 4.5h-64v126h60q28 0 58.5 6t55.5 21t41 39.5t16 62.5q0 58 -36.5 91t-105.5 33
q-66 0 -107 -32.5t-46 -95.5l-158 12q7 61 34 106t69 75t96 44.5t116 14.5q73 0 129 -17.5t94 -47.5t57 -71t19 -88q0 -80 -45 -134.5t-140 -74.5v-4q55 -5 94 -24t64.5 -47t37.5 -63t12 -74z" />
    <glyph glyph-name="acute" unicode="&#xb4;" horiz-adv-x="627" 
d="M83 1177v25l249 297h215v-35l-328 -287h-136z" />
    <glyph glyph-name="mu" unicode="&#xb5;" horiz-adv-x="1344" 
d="M1145 -10q-103 0 -150.5 62.5t-47.5 170.5h-4q-49 -122 -130 -182.5t-201 -60.5q-77 0 -139.5 28.5t-96.5 86.5h-4q1 -17 2 -44.5t1.5 -57.5t0.5 -58.5v-46.5v-358h-215v1526h215v-594q0 -70 14 -127.5t45 -99t81 -64.5t123 -23q67 0 122.5 25t95 70t61 107.5t21.5 137.5
v568h220v-730q0 -90 17.5 -129.5t67.5 -39.5q26 0 53 6v-157q-28 -9 -71.5 -12.5t-80.5 -3.5z" />
    <glyph glyph-name="paragraph" unicode="&#xb6;" horiz-adv-x="1128" 
d="M915 1336v-1608h-132v1608h-214v-1608h-132v988q-83 0 -151.5 24t-118 71.5t-77 117t-27.5 160.5q0 87 26 154.5t75 114.5t120 71.5t161 24.5h602v-118h-132z" />
    <glyph glyph-name="periodcentered" unicode="&#xb7;" horiz-adv-x="512" 
d="M140 492v254h230v-254h-230z" />
    <glyph glyph-name="periodcentered" unicode="&#x2219;" horiz-adv-x="512" 
d="M140 492v254h230v-254h-230z" />
    <glyph glyph-name="cedilla" unicode="&#xb8;" horiz-adv-x="602" 
d="M504 -264q0 -44 -15.5 -80t-50 -62.5t-90 -41t-134.5 -14.5q-46 0 -98 6v110q52 -6 88 -6q83 0 115.5 23t32.5 61t-30.5 60.5t-102.5 22.5q-24 0 -58 -2l70 187h117l-37 -99q97 -5 145 -47.5t48 -117.5z" />
    <glyph glyph-name="onesuperior" unicode="&#xb9;" horiz-adv-x="835" 
d="M136 699h227v623l-210 -134v126l219 140h146v-755h208v-117h-590v117z" />
    <glyph glyph-name="ordmasculine" unicode="&#xba;" horiz-adv-x="1006" 
d="M913 1074q0 -90 -26 -164.5t-78 -128t-129.5 -83t-180.5 -29.5q-97 0 -172.5 29.5t-127.5 83t-79 128t-27 164.5q0 86 25.5 159t76.5 126.5t128 84t181 30.5q108 0 185.5 -30t127 -83.5t73 -126.5t23.5 -160zM736 1074q0 149 -58.5 213.5t-169.5 64.5q-116 0 -176 -65
t-60 -213q0 -77 16.5 -131.5t46 -88.5t71 -49.5t91.5 -15.5q57 0 101.5 15.5t75 49.5t46.5 88.5t16 131.5z" />
    <glyph glyph-name="guillemotright" unicode="&#xbb;" horiz-adv-x="1202" 
d="M592 146v29l347 380l-345 379v36h183l349 -382v-68l-349 -374h-185zM77 146v29l348 380l-346 379v36h187l346 -382v-68l-346 -374h-189z" />
    <glyph glyph-name="onequarter" unicode="&#xbc;" horiz-adv-x="1840" 
d="M119 699h227v623l-210 -134v126l219 140h146v-755h208v-117h-590v117zM565 0h-167l911 1454h165zM1588 188v-187h-155v187h-422v116l406 569h171v-565h128v-120h-128zM1437 727q-7 -15 -17.5 -34.5t-22.5 -39t-23 -37.5t-19 -29l-200 -279h278v279q0 71 4 140z" />
    <glyph glyph-name="onehalf" unicode="&#xbd;" horiz-adv-x="1840" 
d="M119 699h227v623l-210 -134v126l219 140h146v-755h208v-117h-590v117zM1066 1v117q22 49 55 89t71 74t79 64t80 58q37 26 70 52t58 53t40 56.5t15 64.5q0 61 -35.5 96.5t-108.5 35.5q-66 0 -108.5 -35t-50.5 -101l-154 6q7 54 31 100t65 80.5t98 54t129 19.5
q140 0 217.5 -64.5t77.5 -179.5q0 -51 -19 -93.5t-50.5 -80t-71 -69.5t-81.5 -62q-35 -26 -69 -50.5t-63 -50t-52 -51.5t-35 -55h455v-128h-643zM553 0h-167l911 1454h165z" />
    <glyph glyph-name="threequarters" unicode="&#xbe;" horiz-adv-x="1840" 
d="M755 821q0 -120 -84 -186t-236 -66q-93 0 -154.5 20.5t-100 54t-57 77t-24.5 90.5l159 12q11 -64 52.5 -98t122.5 -34q76 0 116.5 35t40.5 105q0 43 -18.5 69.5t-46 40t-60.5 18t-61 4.5h-64v126h60q28 0 58.5 6t55.5 21t41 39.5t16 62.5q0 58 -36.5 91t-105.5 33
q-66 0 -107 -32.5t-46 -95.5l-158 12q7 61 34 106t69 75t96 44.5t116 14.5q73 0 129 -17.5t94 -47.5t57 -71t19 -88q0 -80 -45 -134.5t-140 -74.5v-4q55 -5 94 -24t64.5 -47t37.5 -63t12 -74zM1588 188v-187h-155v187h-422v116l406 569h171v-565h128v-120h-128zM1437 727
q-7 -15 -17.5 -34.5t-22.5 -39t-23 -37.5t-19 -29l-200 -279h278v279q0 71 4 140zM584 0h-167l911 1454h165z" />
    <glyph glyph-name="questiondown" unicode="&#xbf;" horiz-adv-x="1186" 
d="M77 -8q0 72 20.5 126t53.5 96t75.5 75t86.5 63q40 29 77.5 57.5t67 61.5t48 73t20.5 93h210q-3 -72 -26 -126t-57.5 -96.5t-76.5 -76t-84 -64.5q-38 -28 -73 -55.5t-63 -59t-44.5 -70t-16.5 -87.5q0 -113 73.5 -178.5t208.5 -65.5q63 0 116 18t92.5 51.5t64.5 81.5
t33 107l223 -12q-12 -87 -50 -164t-102.5 -134.5t-157 -91t-212.5 -33.5t-214 29t-159.5 82t-99.5 129t-34 171zM742 1056v-229h-230v229h230z" />
    <glyph glyph-name="Agrave" unicode="&#xc0;" horiz-adv-x="1370" 
d="M819 1454l546 -1454h-233l-148 409h-598l-151 -409h-235l549 1454h270zM685 1279l-248 -695h493zM797 1602v-24h-136l-330 229v35h216z" />
    <glyph glyph-name="Aacute" unicode="&#xc1;" horiz-adv-x="1370" 
d="M819 1454l546 -1454h-233l-148 409h-598l-151 -409h-235l549 1454h270zM685 1279l-248 -695h493zM818 1844h215v-37l-329 -229h-135v24z" />
    <glyph glyph-name="Acircumflex" unicode="&#xc2;" horiz-adv-x="1370" 
d="M819 1454l546 -1454h-233l-148 409h-598l-151 -409h-235l549 1454h270zM685 1279l-248 -695h493zM777 1867l257 -266v-23h-124l-228 155l-228 -155h-124v23l257 266h190z" />
    <glyph glyph-name="Atilde" unicode="&#xc3;" horiz-adv-x="1370" 
d="M819 1454l546 -1454h-233l-148 409h-598l-151 -409h-235l549 1454h270zM685 1279l-248 -695h493zM1046.5 1754q-9.5 -48 -32.5 -87t-63 -64t-106 -25q-44 0 -88 20.5t-85.5 44.5t-79 44.5t-69.5 20.5q-54 0 -76.5 -35t-30.5 -95h-115q4 46 14 94t32.5 87t62.5 64t105 25
q46 0 90.5 -20.5t85.5 -45.5t78 -45.5t68 -20.5q27 0 45.5 10t30.5 27.5t19 41.5t11 53h118q-5 -46 -14.5 -94z" />
    <glyph glyph-name="Adieresis" unicode="&#xc4;" horiz-adv-x="1370" 
d="M819 1454l546 -1454h-233l-148 409h-598l-151 -409h-235l549 1454h270zM685 1279l-248 -695h493zM546 1779v-199h-167v199h167zM988 1779v-199h-166v199h166z" />
    <glyph glyph-name="Aring" unicode="&#xc5;" horiz-adv-x="1370" 
d="M819 1454l546 -1454h-233l-148 409h-598l-151 -409h-235l549 1454h270zM685 1279l-248 -695h493zM429 1610q0 52 20 98.5t54.5 80.5t80.5 54t99 20q52 0 98 -20t80.5 -54t55 -80.5t20.5 -98.5t-20.5 -98t-55 -80.5t-80.5 -55t-98 -20.5q-53 0 -99 20.5t-80.5 55
t-54.5 80.5t-20 98zM531 1610q0 -31 12 -58t32.5 -47t48 -31.5t59.5 -11.5t59.5 11.5t48 31.5t32 47t11.5 58t-11.5 59t-32 49t-48 33t-59.5 12t-59.5 -12t-48 -33t-32.5 -49t-12 -59z" />
    <glyph glyph-name="AE" unicode="&#xc6;" horiz-adv-x="2013" 
d="M1918 0h-1009v409h-486l-194 -409h-237l709 1454h1174v-183h-739v-440h675v-177h-675v-475h782v-179zM831 1279l-325 -695h403v695h-78z" />
    <glyph glyph-name="Ccedilla" unicode="&#xc7;" horiz-adv-x="1503" 
d="M811 -20q-177 0 -308 56t-217 156.5t-128 238.5t-42 303q0 170 42 307t126.5 233t212.5 148t300 52q132 0 229 -30.5t167 -81t118 -116t81 -136.5l-206 -75q-21 46 -53 92t-78 82.5t-109 59t-145 22.5q-119 0 -204.5 -40t-140 -112.5t-80.5 -175.5t-26 -229
q0 -125 28.5 -230t86 -181t144 -118t202.5 -42q84 0 149 27t114 69t83.5 93.5t56.5 101.5l203 -84q-36 -73 -85.5 -143t-121 -125t-169.5 -88.5t-230 -33.5zM996 -264q0 -44 -15.5 -80t-50 -62.5t-90 -41t-134.5 -14.5q-46 0 -98 6v110q52 -6 88 -6q83 0 115.5 23t32.5 61
t-30.5 60.5t-102.5 22.5q-24 0 -58 -2l70 187h117l-37 -99q97 -5 145 -47.5t48 -117.5z" />
    <glyph glyph-name="Egrave" unicode="&#xc8;" horiz-adv-x="1338" 
d="M1244 0h-1055v1454h1011v-181h-779v-442h717v-177h-717v-475h823v-179zM836 1602v-24h-136l-330 229v35h216z" />
    <glyph glyph-name="Eacute" unicode="&#xc9;" horiz-adv-x="1338" 
d="M1244 0h-1055v1454h1011v-181h-779v-442h717v-177h-717v-475h823v-179zM780 1844h215v-37l-329 -229h-135v24z" />
    <glyph glyph-name="Ecircumflex" unicode="&#xca;" horiz-adv-x="1338" 
d="M1244 0h-1055v1454h1011v-181h-779v-442h717v-177h-717v-475h823v-179zM795 1867l257 -266v-23h-124l-228 155l-228 -155h-124v23l257 266h190z" />
    <glyph glyph-name="Edieresis" unicode="&#xcb;" horiz-adv-x="1338" 
d="M1244 0h-1055v1454h1011v-181h-779v-442h717v-177h-717v-475h823v-179zM564 1779v-199h-167v199h167zM1006 1779v-199h-166v199h166z" />
    <glyph glyph-name="Igrave" unicode="&#xcc;" horiz-adv-x="612" 
d="M421 0h-232v1454h232v-1454zM432 1602v-24h-136l-330 229v35h216z" />
    <glyph glyph-name="Iacute" unicode="&#xcd;" horiz-adv-x="612" 
d="M421 0h-232v1454h232v-1454zM433 1844h215v-37l-329 -229h-135v24z" />
    <glyph glyph-name="Icircumflex" unicode="&#xce;" horiz-adv-x="612" 
d="M421 0h-232v1454h232v-1454zM401 1867l257 -266v-23h-124l-228 155l-228 -155h-124v23l257 266h190z" />
    <glyph glyph-name="Idieresis" unicode="&#xcf;" horiz-adv-x="612" 
d="M421 0h-232v1454h232v-1454zM170 1779v-199h-167v199h167zM612 1779v-199h-166v199h166z" />
    <glyph glyph-name="Eth" unicode="&#xd0;" horiz-adv-x="1596" 
d="M1476 740q0 -182 -54 -320t-149.5 -231.5t-224.5 -141t-279 -47.5h-580v631h-179v184h179v639h516q169 0 311 -41.5t244 -128.5t159 -222t57 -322zM1248 740q0 141 -40 241.5t-112.5 165t-173 94.5t-221.5 30h-280v-456h360v-184h-360v-448h325q108 0 199.5 35.5t159 105
t105.5 174t38 242.5z" />
    <glyph glyph-name="Ntilde" unicode="&#xd1;" horiz-adv-x="1687" 
d="M1218 0l-828 1196q6 -144 6 -264v-932h-207v1454h271l839 -1204q-8 162 -8 284v920h206v-1454h-279zM1222.5 1754q-9.5 -48 -32.5 -87t-63 -64t-106 -25q-44 0 -88 20.5t-85.5 44.5t-79 44.5t-69.5 20.5q-54 0 -76.5 -35t-30.5 -95h-115q4 46 14 94t32.5 87t62.5 64
t105 25q46 0 90.5 -20.5t85.5 -45.5t78 -45.5t68 -20.5q27 0 45.5 10t30.5 27.5t19 41.5t11 53h118q-5 -46 -14.5 -94z" />
    <glyph glyph-name="Ograve" unicode="&#xd2;" horiz-adv-x="1659" 
d="M1539 734q0 -171 -48.5 -310t-140 -238t-224 -152.5t-299.5 -53.5q-177 0 -310.5 56t-222.5 156.5t-133.5 238.5t-44.5 303q0 170 47 307t138 233t224 148t304 52t303.5 -52.5t222.5 -149t137 -233t47 -305.5zM1305 734q0 126 -31 229t-91 175.5t-149 112.5t-205 40
q-120 0 -209.5 -40t-149.5 -112.5t-90 -175.5t-30 -229q0 -125 31 -230t91 -181t149 -118t206 -42q125 0 215.5 43t149 119t86 180.5t27.5 228.5zM959 1602v-24h-136l-330 229v35h216z" />
    <glyph glyph-name="Oacute" unicode="&#xd3;" horiz-adv-x="1659" 
d="M1539 734q0 -171 -48.5 -310t-140 -238t-224 -152.5t-299.5 -53.5q-177 0 -310.5 56t-222.5 156.5t-133.5 238.5t-44.5 303q0 170 47 307t138 233t224 148t304 52t303.5 -52.5t222.5 -149t137 -233t47 -305.5zM1305 734q0 126 -31 229t-91 175.5t-149 112.5t-205 40
q-120 0 -209.5 -40t-149.5 -112.5t-90 -175.5t-30 -229q0 -125 31 -230t91 -181t149 -118t206 -42q125 0 215.5 43t149 119t86 180.5t27.5 228.5zM946 1844h215v-37l-329 -229h-135v24z" />
    <glyph glyph-name="Ocircumflex" unicode="&#xd4;" horiz-adv-x="1659" 
d="M1539 734q0 -171 -48.5 -310t-140 -238t-224 -152.5t-299.5 -53.5q-177 0 -310.5 56t-222.5 156.5t-133.5 238.5t-44.5 303q0 170 47 307t138 233t224 148t304 52t303.5 -52.5t222.5 -149t137 -233t47 -305.5zM1305 734q0 126 -31 229t-91 175.5t-149 112.5t-205 40
q-120 0 -209.5 -40t-149.5 -112.5t-90 -175.5t-30 -229q0 -125 31 -230t91 -181t149 -118t206 -42q125 0 215.5 43t149 119t86 180.5t27.5 228.5zM929 1867l257 -266v-23h-124l-228 155l-228 -155h-124v23l257 266h190z" />
    <glyph glyph-name="Otilde" unicode="&#xd5;" horiz-adv-x="1659" 
d="M1539 734q0 -171 -48.5 -310t-140 -238t-224 -152.5t-299.5 -53.5q-177 0 -310.5 56t-222.5 156.5t-133.5 238.5t-44.5 303q0 170 47 307t138 233t224 148t304 52t303.5 -52.5t222.5 -149t137 -233t47 -305.5zM1305 734q0 126 -31 229t-91 175.5t-149 112.5t-205 40
q-120 0 -209.5 -40t-149.5 -112.5t-90 -175.5t-30 -229q0 -125 31 -230t91 -181t149 -118t206 -42q125 0 215.5 43t149 119t86 180.5t27.5 228.5zM1197.5 1754q-9.5 -48 -32.5 -87t-63 -64t-106 -25q-44 0 -88 20.5t-85.5 44.5t-79 44.5t-69.5 20.5q-54 0 -76.5 -35
t-30.5 -95h-115q4 46 14 94t32.5 87t62.5 64t105 25q46 0 90.5 -20.5t85.5 -45.5t78 -45.5t68 -20.5q27 0 45.5 10t30.5 27.5t19 41.5t11 53h118q-5 -46 -14.5 -94z" />
    <glyph glyph-name="Odieresis" unicode="&#xd6;" horiz-adv-x="1659" 
d="M1539 734q0 -171 -48.5 -310t-140 -238t-224 -152.5t-299.5 -53.5q-177 0 -310.5 56t-222.5 156.5t-133.5 238.5t-44.5 303q0 170 47 307t138 233t224 148t304 52t303.5 -52.5t222.5 -149t137 -233t47 -305.5zM1305 734q0 126 -31 229t-91 175.5t-149 112.5t-205 40
q-120 0 -209.5 -40t-149.5 -112.5t-90 -175.5t-30 -229q0 -125 31 -230t91 -181t149 -118t206 -42q125 0 215.5 43t149 119t86 180.5t27.5 228.5zM686 1779v-199h-167v199h167zM1128 1779v-199h-166v199h166z" />
    <glyph glyph-name="multiply" unicode="&#xd7;" horiz-adv-x="1190" 
d="M1081 1066l-363 -363l365 -363l-124 -121l-363 363l-369 -368l-124 124l367 365l-363 365l126 124l361 -363l361 361z" />
    <glyph glyph-name="Oslash" unicode="&#xd8;" horiz-adv-x="1659" 
d="M1539 734q0 -171 -49 -310t-141 -238t-224.5 -152.5t-299.5 -53.5q-139 0 -249.5 34t-195.5 98l-145 -167h-172l224 253q-86 101 -128.5 237t-42.5 299q0 170 47 307t137.5 233t223 148t303.5 52q135 0 247 -33t197 -97l144 172h169l-219 -256q84 -98 129 -231t45 -295z
M348 734q0 -107 23 -199.5t66 -160.5l695 812q-57 53 -137 78t-172 25q-118 0 -207 -40t-148.5 -112.5t-89.5 -175t-30 -227.5zM1303 734q0 106 -21.5 196t-69.5 159l-694 -819q59 -51 134.5 -79t172.5 -28q125 0 215.5 42t149 118t86 181t27.5 230z" />
    <glyph glyph-name="Ugrave" unicode="&#xd9;" horiz-adv-x="1578" 
d="M1346.5 297q-47.5 -108 -131 -178.5t-197.5 -104.5t-247 -34q-128 0 -236 32t-187.5 99.5t-124 172t-44.5 248.5v922h232v-901q0 -103 28 -177t77.5 -121t117 -69.5t145.5 -22.5t148 23.5t123 73t84 125.5t31 180v889h229v-901q0 -148 -47.5 -256zM893 1602v-24h-136
l-330 229v35h216z" />
    <glyph glyph-name="Uacute" unicode="&#xda;" horiz-adv-x="1578" 
d="M1346.5 297q-47.5 -108 -131 -178.5t-197.5 -104.5t-247 -34q-128 0 -236 32t-187.5 99.5t-124 172t-44.5 248.5v922h232v-901q0 -103 28 -177t77.5 -121t117 -69.5t145.5 -22.5t148 23.5t123 73t84 125.5t31 180v889h229v-901q0 -148 -47.5 -256zM907 1844h215v-37
l-329 -229h-135v24z" />
    <glyph glyph-name="Ucircumflex" unicode="&#xdb;" horiz-adv-x="1578" 
d="M1346.5 297q-47.5 -108 -131 -178.5t-197.5 -104.5t-247 -34q-128 0 -236 32t-187.5 99.5t-124 172t-44.5 248.5v922h232v-901q0 -103 28 -177t77.5 -121t117 -69.5t145.5 -22.5t148 23.5t123 73t84 125.5t31 180v889h229v-901q0 -148 -47.5 -256zM888 1867l257 -266v-23
h-124l-228 155l-228 -155h-124v23l257 266h190z" />
    <glyph glyph-name="Udieresis" unicode="&#xdc;" horiz-adv-x="1578" 
d="M1346.5 297q-47.5 -108 -131 -178.5t-197.5 -104.5t-247 -34q-128 0 -236 32t-187.5 99.5t-124 172t-44.5 248.5v922h232v-901q0 -103 28 -177t77.5 -121t117 -69.5t145.5 -22.5t148 23.5t123 73t84 125.5t31 180v889h229v-901q0 -148 -47.5 -256zM649 1779v-199h-167
v199h167zM1091 1779v-199h-166v199h166z" />
    <glyph glyph-name="Yacute" unicode="&#xdd;" horiz-adv-x="1277" 
d="M637 783l388 671h244l-519 -856v-598h-228v598l-516 856h246zM761 1844h215v-37l-329 -229h-135v24z" />
    <glyph glyph-name="Thorn" unicode="&#xde;" horiz-adv-x="1368" 
d="M1269 759q0 -92 -31 -174.5t-94 -145t-159 -99.5t-226 -37h-338v-303h-232v1454h232v-254h325q133 0 231 -31.5t163 -89.5t97 -139t32 -181zM1035 755q0 132 -78.5 204t-238.5 72h-297v-561h307q80 0 138 21.5t95.5 59.5t55.5 90t18 114z" />
    <glyph glyph-name="germandbls" unicode="&#xdf;" horiz-adv-x="1336" 
d="M887 136q36 0 68 8.5t55 26.5t36.5 45t13.5 65q0 39 -12.5 70t-36.5 58t-57.5 52.5t-75.5 54.5q-44 31 -83 61t-68.5 62t-47 68.5t-17.5 81.5q0 40 10 71t27.5 55.5t41 44.5t51.5 38q30 20 51.5 38t36 37.5t21 42.5t6.5 53q0 72 -61 115.5t-179 43.5q-68 0 -121.5 -18
t-90 -56t-56 -97t-19.5 -140v-1017h-217v1025q0 235 129 355.5t366 120.5q108 0 193 -23t144 -65t90 -100.5t31 -128.5q0 -44 -9 -78.5t-27 -64t-44 -54t-60 -48.5q-23 -15 -43.5 -29t-36.5 -29t-25 -32t-9 -38q0 -30 17 -55t45 -49t65 -48t77 -53q39 -27 74.5 -56.5
t62.5 -66t43 -82.5t16 -106q0 -72 -26 -130t-74.5 -99.5t-117 -63.5t-153.5 -22q-88 0 -155.5 13.5t-117 45t-81.5 83t-49 128.5l189 33q12 -43 31.5 -71t45.5 -45t59 -24t74 -7z" />
    <glyph glyph-name="agrave" unicode="&#xe0;" horiz-adv-x="1289" 
d="M330 305q0 -82 49 -126.5t147 -44.5q87 0 153 28.5t109.5 73t65.5 99t22 106.5v75l-209 -4q-69 -2 -130 -12t-107 -33.5t-73 -62.5t-27 -99zM101 295q0 94 40 158.5t109 104.5t160.5 58.5t195.5 20.5l270 4v44q0 132 -62 193t-183 61q-53 0 -96.5 -9.5t-76 -31.5t-53 -57
t-27.5 -86l-227 16q11 67 44 123t91.5 97t145.5 64t207 23q110 0 195.5 -24.5t144 -72.5t89 -119t30.5 -163v-416q0 -75 20.5 -114t73.5 -39q7 0 18 1t22.5 2.5t22 3t16.5 3.5v-132q-42 -8 -84.5 -13t-88.5 -5q-55 0 -94 13.5t-64.5 40.5t-39 67.5t-17.5 94.5h-7
q-59 -105 -160.5 -165.5t-259.5 -60.5q-87 0 -153 21.5t-111 62.5t-68 99t-23 132zM759 1200v-23h-136l-328 287v35h214z" />
    <glyph glyph-name="aacute" unicode="&#xe1;" horiz-adv-x="1289" 
d="M330 305q0 -82 49 -126.5t147 -44.5q87 0 153 28.5t109.5 73t65.5 99t22 106.5v75l-209 -4q-69 -2 -130 -12t-107 -33.5t-73 -62.5t-27 -99zM101 295q0 94 40 158.5t109 104.5t160.5 58.5t195.5 20.5l270 4v44q0 132 -62 193t-183 61q-53 0 -96.5 -9.5t-76 -31.5t-53 -57
t-27.5 -86l-227 16q11 67 44 123t91.5 97t145.5 64t207 23q110 0 195.5 -24.5t144 -72.5t89 -119t30.5 -163v-416q0 -75 20.5 -114t73.5 -39q7 0 18 1t22.5 2.5t22 3t16.5 3.5v-132q-42 -8 -84.5 -13t-88.5 -5q-55 0 -94 13.5t-64.5 40.5t-39 67.5t-17.5 94.5h-7
q-59 -105 -160.5 -165.5t-259.5 -60.5q-87 0 -153 21.5t-111 62.5t-68 99t-23 132zM512 1177v25l249 297h215v-35l-328 -287h-136z" />
    <glyph glyph-name="acircumflex" unicode="&#xe2;" horiz-adv-x="1289" 
d="M330 305q0 -82 49 -126.5t147 -44.5q87 0 153 28.5t109.5 73t65.5 99t22 106.5v75l-209 -4q-69 -2 -130 -12t-107 -33.5t-73 -62.5t-27 -99zM101 295q0 94 40 158.5t109 104.5t160.5 58.5t195.5 20.5l270 4v44q0 132 -62 193t-183 61q-53 0 -96.5 -9.5t-76 -31.5t-53 -57
t-27.5 -86l-227 16q11 67 44 123t91.5 97t145.5 64t207 23q110 0 195.5 -24.5t144 -72.5t89 -119t30.5 -163v-416q0 -75 20.5 -114t73.5 -39q7 0 18 1t22.5 2.5t22 3t16.5 3.5v-132q-42 -8 -84.5 -13t-88.5 -5q-55 0 -94 13.5t-64.5 40.5t-39 67.5t-17.5 94.5h-7
q-59 -105 -160.5 -165.5t-259.5 -60.5q-87 0 -153 21.5t-111 62.5t-68 99t-23 132zM736 1466l257 -266v-23h-124l-228 155l-228 -155h-124v23l257 266h190z" />
    <glyph glyph-name="atilde" unicode="&#xe3;" horiz-adv-x="1289" 
d="M330 305q0 -82 49 -126.5t147 -44.5q87 0 153 28.5t109.5 73t65.5 99t22 106.5v75l-209 -4q-69 -2 -130 -12t-107 -33.5t-73 -62.5t-27 -99zM101 295q0 94 40 158.5t109 104.5t160.5 58.5t195.5 20.5l270 4v44q0 132 -62 193t-183 61q-53 0 -96.5 -9.5t-76 -31.5t-53 -57
t-27.5 -86l-227 16q11 67 44 123t91.5 97t145.5 64t207 23q110 0 195.5 -24.5t144 -72.5t89 -119t30.5 -163v-416q0 -75 20.5 -114t73.5 -39q7 0 18 1t22.5 2.5t22 3t16.5 3.5v-132q-42 -8 -84.5 -13t-88.5 -5q-55 0 -94 13.5t-64.5 40.5t-39 67.5t-17.5 94.5h-7
q-59 -105 -160.5 -165.5t-259.5 -60.5q-87 0 -153 21.5t-111 62.5t-68 99t-23 132zM999.5 1355q-9.5 -48 -32.5 -87.5t-63 -65t-106 -25.5q-44 0 -88 20.5t-85.5 44.5t-79 44.5t-69.5 20.5q-54 0 -76.5 -35t-30.5 -95h-115q4 46 14 94t32.5 87.5t62.5 64.5t105 25
q46 0 90.5 -20.5t85.5 -44.5t78 -44.5t68 -20.5q27 0 45.5 9.5t30.5 27t19 41t11 52.5h118q-5 -45 -14.5 -93z" />
    <glyph glyph-name="adieresis" unicode="&#xe4;" horiz-adv-x="1289" 
d="M330 305q0 -82 49 -126.5t147 -44.5q87 0 153 28.5t109.5 73t65.5 99t22 106.5v75l-209 -4q-69 -2 -130 -12t-107 -33.5t-73 -62.5t-27 -99zM101 295q0 94 40 158.5t109 104.5t160.5 58.5t195.5 20.5l270 4v44q0 132 -62 193t-183 61q-53 0 -96.5 -9.5t-76 -31.5t-53 -57
t-27.5 -86l-227 16q11 67 44 123t91.5 97t145.5 64t207 23q110 0 195.5 -24.5t144 -72.5t89 -119t30.5 -163v-416q0 -75 20.5 -114t73.5 -39q7 0 18 1t22.5 2.5t22 3t16.5 3.5v-132q-42 -8 -84.5 -13t-88.5 -5q-55 0 -94 13.5t-64.5 40.5t-39 67.5t-17.5 94.5h-7
q-59 -105 -160.5 -165.5t-259.5 -60.5q-87 0 -153 21.5t-111 62.5t-68 99t-23 132zM507 1399v-203h-167v203h167zM949 1399v-203h-166v203h166z" />
    <glyph glyph-name="aring" unicode="&#xe5;" horiz-adv-x="1289" 
d="M330 305q0 -82 49 -126.5t147 -44.5q87 0 153 28.5t109.5 73t65.5 99t22 106.5v75l-209 -4q-69 -2 -130 -12t-107 -33.5t-73 -62.5t-27 -99zM101 295q0 94 40 158.5t109 104.5t160.5 58.5t195.5 20.5l270 4v44q0 132 -62 193t-183 61q-53 0 -96.5 -9.5t-76 -31.5t-53 -57
t-27.5 -86l-227 16q11 67 44 123t91.5 97t145.5 64t207 23q110 0 195.5 -24.5t144 -72.5t89 -119t30.5 -163v-416q0 -75 20.5 -114t73.5 -39q7 0 18 1t22.5 2.5t22 3t16.5 3.5v-132q-42 -8 -84.5 -13t-88.5 -5q-55 0 -94 13.5t-64.5 40.5t-39 67.5t-17.5 94.5h-7
q-59 -105 -160.5 -165.5t-259.5 -60.5q-87 0 -153 21.5t-111 62.5t-68 99t-23 132zM895 1415q0 -53 -20.5 -99t-55 -80.5t-80.5 -54.5t-98 -20q-53 0 -99 20t-80 54.5t-54 80.5t-20 99q0 52 20 98t54 80.5t80 55t99 20.5q52 0 98 -20.5t80.5 -55t55 -80.5t20.5 -98z
M792 1415q0 31 -11.5 58.5t-32 47t-48 31t-59.5 11.5t-59.5 -11.5t-48.5 -31t-33 -47t-12 -58.5q0 -32 12 -60t33 -48.5t48.5 -32.5t59.5 -12t59.5 12t48 32.5t32 48.5t11.5 60z" />
    <glyph glyph-name="ae" unicode="&#xe6;" horiz-adv-x="2017" 
d="M101 289q0 97 39.5 163t108 106.5t160.5 58.5t197 20h270v52q0 131 -64 190.5t-181 59.5q-113 0 -177.5 -42.5t-77.5 -141.5l-228 16q11 67 44 123t91.5 97t144 64t201.5 23q143 0 239 -51.5t136 -146.5q35 53 80.5 90.5t98.5 61.5t111.5 35t120.5 11q134 0 230 -42
t157.5 -117t90.5 -179.5t29 -229.5v-22h-824q0 -78 18 -143t56.5 -112t98 -73t142.5 -26q116 0 188.5 43t100.5 116l195 -41q-21 -50 -56.5 -98.5t-92.5 -87t-139.5 -62.5t-197.5 -24q-153 0 -265.5 64.5t-169.5 190.5q-81 -128 -203.5 -191.5t-296.5 -63.5
q-87 0 -156.5 20.5t-118 60.5t-74.5 97t-26 131zM330 305q0 -82 51 -126.5t155 -44.5q80 0 143.5 26.5t107 68.5t66.5 94.5t23 105.5v83h-207q-70 -2 -132 -12t-108 -33.5t-72.5 -62.5t-26.5 -99zM1411 926q-59 0 -114 -13.5t-97.5 -47.5t-69.5 -91.5t-30 -144.5h610
q-11 148 -82 222.5t-217 74.5z" />
    <glyph glyph-name="ccedilla" unicode="&#xe7;" horiz-adv-x="1196" 
d="M620 -20q-132 0 -230.5 39t-164 110.5t-98 171t-32.5 221.5q0 131 36 234.5t104 175t166.5 109t223.5 37.5q106 0 189 -24.5t143 -69.5t97 -108.5t52 -141.5l-223 -16q-17 98 -84 147.5t-179 49.5q-149 0 -227 -97.5t-78 -283.5q0 -198 81 -296t226 -98q54 0 100 13
t81 40t58 67.5t32 95.5l219 -20q-10 -72 -46 -136.5t-98 -113.5t-149 -77.5t-199 -28.5zM830 -264q0 -44 -15.5 -80t-50 -62.5t-90 -41t-134.5 -14.5q-46 0 -98 6v110q52 -6 88 -6q83 0 115.5 23t32.5 61t-30.5 60.5t-102.5 22.5q-24 0 -58 -2l70 187h117l-37 -99
q97 -5 145 -47.5t48 -117.5z" />
    <glyph glyph-name="egrave" unicode="&#xe8;" horiz-adv-x="1244" 
d="M324 488q0 -78 17.5 -143t55 -112t96 -73t140.5 -26q54 0 101.5 10t86 30.5t66 50t41.5 68.5l194 -39q-19 -47 -55.5 -95.5t-95.5 -88t-142.5 -65t-197.5 -25.5q-261 0 -398.5 138.5t-137.5 415.5q0 154 45.5 258.5t120.5 168t172 90.5t200 27q136 0 234 -41.5
t161 -116.5t93 -179.5t30 -230.5v-22h-827zM937 629q-5 70 -25 125.5t-56.5 94t-90 59t-126.5 20.5q-57 0 -111.5 -14.5t-98 -49t-71.5 -92t-32 -143.5h611zM757 1200v-23h-136l-328 287v35h214z" />
    <glyph glyph-name="eacute" unicode="&#xe9;" horiz-adv-x="1244" 
d="M324 488q0 -78 17.5 -143t55 -112t96 -73t140.5 -26q54 0 101.5 10t86 30.5t66 50t41.5 68.5l194 -39q-19 -47 -55.5 -95.5t-95.5 -88t-142.5 -65t-197.5 -25.5q-261 0 -398.5 138.5t-137.5 415.5q0 154 45.5 258.5t120.5 168t172 90.5t200 27q136 0 234 -41.5
t161 -116.5t93 -179.5t30 -230.5v-22h-827zM937 629q-5 70 -25 125.5t-56.5 94t-90 59t-126.5 20.5q-57 0 -111.5 -14.5t-98 -49t-71.5 -92t-32 -143.5h611zM522 1177v25l249 297h215v-35l-328 -287h-136z" />
    <glyph glyph-name="ecircumflex" unicode="&#xea;" horiz-adv-x="1244" 
d="M324 488q0 -78 17.5 -143t55 -112t96 -73t140.5 -26q54 0 101.5 10t86 30.5t66 50t41.5 68.5l194 -39q-19 -47 -55.5 -95.5t-95.5 -88t-142.5 -65t-197.5 -25.5q-261 0 -398.5 138.5t-137.5 415.5q0 154 45.5 258.5t120.5 168t172 90.5t200 27q136 0 234 -41.5
t161 -116.5t93 -179.5t30 -230.5v-22h-827zM937 629q-5 70 -25 125.5t-56.5 94t-90 59t-126.5 20.5q-57 0 -111.5 -14.5t-98 -49t-71.5 -92t-32 -143.5h611zM730 1466l257 -266v-23h-124l-228 155l-228 -155h-124v23l257 266h190z" />
    <glyph glyph-name="edieresis" unicode="&#xeb;" horiz-adv-x="1244" 
d="M324 488q0 -78 17.5 -143t55 -112t96 -73t140.5 -26q54 0 101.5 10t86 30.5t66 50t41.5 68.5l194 -39q-19 -47 -55.5 -95.5t-95.5 -88t-142.5 -65t-197.5 -25.5q-261 0 -398.5 138.5t-137.5 415.5q0 154 45.5 258.5t120.5 168t172 90.5t200 27q136 0 234 -41.5
t161 -116.5t93 -179.5t30 -230.5v-22h-827zM937 629q-5 70 -25 125.5t-56.5 94t-90 59t-126.5 20.5q-57 0 -111.5 -14.5t-98 -49t-71.5 -92t-32 -143.5h611zM495 1399v-203h-167v203h167zM937 1399v-203h-166v203h166z" />
    <glyph glyph-name="igrave" unicode="&#xec;" horiz-adv-x="541" 
d="M163 0v1056h217v-1056h-217zM405 1200v-23h-136l-328 287v35h214z" />
    <glyph glyph-name="iacute" unicode="&#xed;" horiz-adv-x="541" 
d="M163 0v1056h217v-1056h-217zM140 1177v25l249 297h215v-35l-328 -287h-136z" />
    <glyph glyph-name="icircumflex" unicode="&#xee;" horiz-adv-x="541" 
d="M163 0v1056h217v-1056h-217zM367 1466l257 -266v-23h-124l-228 155l-228 -155h-124v23l257 266h190z" />
    <glyph glyph-name="idieresis" unicode="&#xef;" horiz-adv-x="541" 
d="M163 0v1056h217v-1056h-217zM134 1399v-203h-167v203h167zM576 1399v-203h-166v203h166z" />
    <glyph glyph-name="eth" unicode="&#xf0;" horiz-adv-x="1297" 
d="M1198 534q0 -122 -34.5 -224t-104 -175.5t-173.5 -114t-243 -40.5q-133 0 -235 37.5t-171.5 105.5t-105.5 162.5t-36 209.5q0 110 34 204t102.5 162.5t173 107.5t245.5 39q65 0 121.5 -13.5t96.5 -39.5q-45 82 -99 153.5t-126 137.5l-309 -136v132l213 90q-57 47 -120 89
t-136 80h245q47 -22 89.5 -47.5t86.5 -54.5l292 123v-128l-183 -78q81 -74 150 -161t119.5 -185t79 -205.5t28.5 -230.5zM972 495q0 185 -82 271t-236 86q-160 0 -245 -88t-85 -269q0 -93 23 -160.5t64.5 -111.5t100 -65.5t129.5 -21.5q158 0 244.5 86t86.5 273z" />
    <glyph glyph-name="ntilde" unicode="&#xf1;" horiz-adv-x="1316" 
d="M943 0v596q0 72 -14.5 130t-45.5 99t-80 63.5t-118 22.5q-67 0 -123 -25.5t-96.5 -71.5t-63 -109t-22.5 -138v-567h-217v817q0 34 -0.5 72.5t-2 72.5t-5.5 94h206q4 -61 6 -95t3.5 -69t1.5 -57h4q64 127 161 185t230 58q110 0 185 -33t121.5 -90t67 -134.5t20.5 -166.5
v-654h-218zM1034.5 1355q-9.5 -48 -32.5 -87.5t-63 -65t-106 -25.5q-44 0 -88 20.5t-85.5 44.5t-79 44.5t-69.5 20.5q-54 0 -76.5 -35t-30.5 -95h-115q4 46 14 94t32.5 87.5t62.5 64.5t105 25q46 0 90.5 -20.5t85.5 -44.5t78 -44.5t68 -20.5q27 0 45.5 9.5t30.5 27t19 41
t11 52.5h118q-5 -45 -14.5 -93z" />
    <glyph glyph-name="ograve" unicode="&#xf2;" horiz-adv-x="1295" 
d="M1200 530q0 -122 -35 -223t-105 -173.5t-174 -113t-243 -40.5q-133 0 -235 40t-171.5 112.5t-105.5 174t-36 223.5q0 118 34 218.5t102.5 174t173 114.5t245.5 41q147 0 251 -41t170.5 -114t97.5 -173.5t31 -219.5zM972 530q0 102 -20.5 176t-61 122t-100 70.5
t-136.5 22.5q-160 0 -245 -95.5t-85 -295.5q0 -102 23 -176.5t64.5 -122.5t100 -71.5t129.5 -23.5q79 0 140.5 23t104 71t64.5 122.5t22 177.5zM771 1200v-23h-136l-328 287v35h214z" />
    <glyph glyph-name="oacute" unicode="&#xf3;" horiz-adv-x="1295" 
d="M1200 530q0 -122 -35 -223t-105 -173.5t-174 -113t-243 -40.5q-133 0 -235 40t-171.5 112.5t-105.5 174t-36 223.5q0 118 34 218.5t102.5 174t173 114.5t245.5 41q147 0 251 -41t170.5 -114t97.5 -173.5t31 -219.5zM972 530q0 102 -20.5 176t-61 122t-100 70.5
t-136.5 22.5q-160 0 -245 -95.5t-85 -295.5q0 -102 23 -176.5t64.5 -122.5t100 -71.5t129.5 -23.5q79 0 140.5 23t104 71t64.5 122.5t22 177.5zM530 1177v25l249 297h215v-35l-328 -287h-136z" />
    <glyph glyph-name="ocircumflex" unicode="&#xf4;" horiz-adv-x="1295" 
d="M1200 530q0 -122 -35 -223t-105 -173.5t-174 -113t-243 -40.5q-133 0 -235 40t-171.5 112.5t-105.5 174t-36 223.5q0 118 34 218.5t102.5 174t173 114.5t245.5 41q147 0 251 -41t170.5 -114t97.5 -173.5t31 -219.5zM972 530q0 102 -20.5 176t-61 122t-100 70.5
t-136.5 22.5q-160 0 -245 -95.5t-85 -295.5q0 -102 23 -176.5t64.5 -122.5t100 -71.5t129.5 -23.5q79 0 140.5 23t104 71t64.5 122.5t22 177.5zM742 1466l257 -266v-23h-124l-228 155l-228 -155h-124v23l257 266h190z" />
    <glyph glyph-name="otilde" unicode="&#xf5;" horiz-adv-x="1295" 
d="M1200 530q0 -122 -35 -223t-105 -173.5t-174 -113t-243 -40.5q-133 0 -235 40t-171.5 112.5t-105.5 174t-36 223.5q0 118 34 218.5t102.5 174t173 114.5t245.5 41q147 0 251 -41t170.5 -114t97.5 -173.5t31 -219.5zM972 530q0 102 -20.5 176t-61 122t-100 70.5
t-136.5 22.5q-160 0 -245 -95.5t-85 -295.5q0 -102 23 -176.5t64.5 -122.5t100 -71.5t129.5 -23.5q79 0 140.5 23t104 71t64.5 122.5t22 177.5zM1003.5 1355q-9.5 -48 -32.5 -87.5t-63 -65t-106 -25.5q-44 0 -88 20.5t-85.5 44.5t-79 44.5t-69.5 20.5q-54 0 -76.5 -35
t-30.5 -95h-115q4 46 14 94t32.5 87.5t62.5 64.5t105 25q46 0 90.5 -20.5t85.5 -44.5t78 -44.5t68 -20.5q27 0 45.5 9.5t30.5 27t19 41t11 52.5h118q-5 -45 -14.5 -93z" />
    <glyph glyph-name="odieresis" unicode="&#xf6;" horiz-adv-x="1295" 
d="M1200 530q0 -122 -35 -223t-105 -173.5t-174 -113t-243 -40.5q-133 0 -235 40t-171.5 112.5t-105.5 174t-36 223.5q0 118 34 218.5t102.5 174t173 114.5t245.5 41q147 0 251 -41t170.5 -114t97.5 -173.5t31 -219.5zM972 530q0 102 -20.5 176t-61 122t-100 70.5
t-136.5 22.5q-160 0 -245 -95.5t-85 -295.5q0 -102 23 -176.5t64.5 -122.5t100 -71.5t129.5 -23.5q79 0 140.5 23t104 71t64.5 122.5t22 177.5zM507 1399v-203h-167v203h167zM949 1399v-203h-166v203h166z" />
    <glyph glyph-name="divide" unicode="&#xf7;" horiz-adv-x="1194" 
d="M499 990v204h194v-204h-194zM73 614v175h1047v-175h-1047zM499 214v205h194v-205h-194z" />
    <glyph glyph-name="oslash" unicode="&#xf8;" horiz-adv-x="1295" 
d="M45 -51l178 197q-63 72 -95.5 169t-32.5 215t34 218.5t102.5 174t172.5 114.5t244 41q105 0 188.5 -23t147.5 -63l103 116h157l-168 -189q64 -72 94 -171.5t30 -217.5q0 -122 -35 -223.5t-105 -174t-175 -112.5t-244 -40q-99 0 -181.5 22.5t-146.5 70.5l-111 -124h-157z
M972 530q0 73 -15 128.5t-42 96.5l-478 -553q42 -38 97 -52t118 -14q153 0 236.5 95.5t83.5 298.5zM324 530q0 -70 13.5 -126t40.5 -95l478 551q-37 31 -90 46t-116 15q-158 0 -242 -97.5t-84 -293.5z" />
    <glyph glyph-name="ugrave" unicode="&#xf9;" horiz-adv-x="1316" 
d="M370 1056v-594q0 -69 13 -127t43.5 -100t80 -65.5t122.5 -23.5q68 0 124 25.5t95.5 71t61.5 109t22 138.5v566h221v-812q0 -35 0.5 -74t1.5 -74t4 -96h-206q-4 62 -5.5 96.5l-3 69t-1.5 57.5h-6q-66 -128 -161.5 -185.5t-230.5 -57.5q-108 0 -183 33t-121.5 91t-67 135.5
t-20.5 166.5v650h217zM782 1200v-23h-136l-328 287v35h214z" />
    <glyph glyph-name="uacute" unicode="&#xfa;" horiz-adv-x="1316" 
d="M370 1056v-594q0 -69 13 -127t43.5 -100t80 -65.5t122.5 -23.5q68 0 124 25.5t95.5 71t61.5 109t22 138.5v566h221v-812q0 -35 0.5 -74t1.5 -74t4 -96h-206q-4 62 -5.5 96.5l-3 69t-1.5 57.5h-6q-66 -128 -161.5 -185.5t-230.5 -57.5q-108 0 -183 33t-121.5 91t-67 135.5
t-20.5 166.5v650h217zM528 1177v25l249 297h215v-35l-328 -287h-136z" />
    <glyph glyph-name="ucircumflex" unicode="&#xfb;" horiz-adv-x="1316" 
d="M370 1056v-594q0 -69 13 -127t43.5 -100t80 -65.5t122.5 -23.5q68 0 124 25.5t95.5 71t61.5 109t22 138.5v566h221v-812q0 -35 0.5 -74t1.5 -74t4 -96h-206q-4 62 -5.5 96.5l-3 69t-1.5 57.5h-6q-66 -128 -161.5 -185.5t-230.5 -57.5q-108 0 -183 33t-121.5 91t-67 135.5
t-20.5 166.5v650h217zM748 1466l257 -266v-23h-124l-228 155l-228 -155h-124v23l257 266h190z" />
    <glyph glyph-name="udieresis" unicode="&#xfc;" horiz-adv-x="1316" 
d="M370 1056v-594q0 -69 13 -127t43.5 -100t80 -65.5t122.5 -23.5q68 0 124 25.5t95.5 71t61.5 109t22 138.5v566h221v-812q0 -35 0.5 -74t1.5 -74t4 -96h-206q-4 62 -5.5 96.5l-3 69t-1.5 57.5h-6q-66 -128 -161.5 -185.5t-230.5 -57.5q-108 0 -183 33t-121.5 91t-67 135.5
t-20.5 166.5v650h217zM517 1399v-203h-167v203h167zM959 1399v-203h-166v203h166z" />
    <glyph glyph-name="yacute" unicode="&#xfd;" horiz-adv-x="1132" 
d="M660 -75q-44 -105 -86.5 -180t-89.5 -123t-100 -70t-118 -22q-48 0 -83.5 4t-70.5 10v157q20 -3 45.5 -4.5t44.5 -1.5q51 0 84.5 17t62 49t53 79.5t47.5 108.5l19 51l-450 1056h234l328 -822l303 822h231zM461 1177v25l249 297h215v-35l-328 -287h-136z" />
    <glyph glyph-name="thorn" unicode="&#xfe;" horiz-adv-x="1322" 
d="M1226 534q0 -122 -28.5 -223.5t-86.5 -175t-146 -114.5t-208 -41q-61 0 -117.5 12.5t-105 38t-88 63.5t-66.5 89h-6q3 -41 4 -68t1.5 -58.5t0.5 -60.5v-466h-217v1971h217v-439q0 -23 -0.5 -55t-1.5 -62t-4 -79h4q116 215 399 215q115 0 200 -41t140 -114t82 -173.5
t27 -218.5zM998 534q0 187 -76.5 288.5t-230.5 101.5q-60 0 -116.5 -19.5t-100.5 -66t-71 -122.5t-27 -190q0 -111 26.5 -186t70 -120.5t100 -64.5t116.5 -19q147 0 228 98.5t81 299.5z" />
    <glyph glyph-name="ydieresis" unicode="&#xff;" horiz-adv-x="1132" 
d="M660 -75q-44 -105 -86.5 -180t-89.5 -123t-100 -70t-118 -22q-48 0 -83.5 4t-70.5 10v157q20 -3 45.5 -4.5t44.5 -1.5q51 0 84.5 17t62 49t53 79.5t47.5 108.5l19 51l-450 1056h234l328 -822l303 822h231zM433 1399v-203h-167v203h167zM875 1399v-203h-166v203h166z" />
    <glyph glyph-name="fraction" unicode="&#x2044;" horiz-adv-x="1104" 
d="M181 0h-167l911 1454h165z" />
    <glyph glyph-name="foursuperior" unicode="&#x2074;" horiz-adv-x="835" 
d="M647 769v-187h-155v187h-422v116l406 569h171v-565h128v-120h-128zM496 1308q-7 -15 -17.5 -34.5t-22.5 -39t-23 -37.5t-19 -29l-200 -279h278v279q0 71 4 140z" />
    <glyph glyph-name="dotlessi" unicode="&#x131;" horiz-adv-x="541" 
d="M163 0v1056h217v-1056h-217z" />
    <glyph glyph-name="caron" unicode="&#x2c7;" horiz-adv-x="734" 
d="M277 1177l-253 318v23h126l222 -204l222 204h126v-23l-253 -318h-190z" />
    <glyph glyph-name="ring" unicode="&#x2da;" horiz-adv-x="674" 
d="M590 1415q0 -53 -20.5 -99t-55 -80.5t-80.5 -54.5t-98 -20q-53 0 -99 20t-80 54.5t-54 80.5t-20 99q0 52 20 98t54 80.5t80 55t99 20.5q52 0 98 -20.5t80.5 -55t55 -80.5t20.5 -98zM487 1415q0 31 -11.5 58.5t-32 47t-48 31t-59.5 11.5t-59.5 -11.5t-48.5 -31t-33 -47
t-12 -58.5q0 -32 12 -60t33 -48.5t48.5 -32.5t59.5 -12t59.5 12t48 32.5t32 48.5t11.5 60z" />
    <glyph glyph-name="dv_udatta" unicode="&#x951;" 
d="M-279 1894h172v-539h-172v539z" />
    <glyph glyph-name="dv_anudatta" unicode="&#x952;" 
d="M-1162 -63h1008v-171h-1008v171z" />
    <glyph glyph-name="dv_grave" unicode="&#x953;" 
d="M-151 1894h174v-539h-174v539zM-462 1894h174v-539h-174v539z" />
    <glyph glyph-name="dv_danda" unicode="&#x964;" horiz-adv-x="636" 
d="M305 1279h200v-1279h-200v1279z" />
    <glyph glyph-name="dv_double_danda" unicode="&#x965;" horiz-adv-x="1068" 
d="M310 1279h200v-1279h-200v1279zM724 1279h198v-1279h-198v1279z" />
    <glyph glyph-name="or_candrabindu" unicode="&#xb01;" 
d="M-415 1849q0 -52 14.5 -96t42 -75.5t67.5 -49t91 -17.5q100 0 156 61.5t56 176.5h174q0 -81 -25 -154t-74 -129t-121 -89t-166 -33q-95 0 -167 33.5t-121 89.5t-74 129t-25 153h172zM-313 1815q0 56 30.5 90t82.5 34q50 0 80 -34t30 -90q0 -57 -30 -91t-80 -34
q-52 0 -82.5 34t-30.5 91z" />
    <glyph glyph-name="or_anusvar" unicode="&#xb02;" horiz-adv-x="600" 
d="M17 1059q0 55 22 105t60 88t87.5 60t105.5 22q57 0 107.5 -22t88 -60t59.5 -88t22 -105q0 -57 -22 -107.5t-59.5 -88t-88 -59.5t-107.5 -22t-107 22t-87.5 59.5t-59 88t-21.5 107.5zM395 1059q0 21 -8 40.5t-22 34.5t-32.5 24t-40.5 9q-21 0 -39.5 -9t-32 -24
t-21.5 -34.5t-8 -40.5q0 -23 8 -43t21.5 -35t32 -23.5t39.5 -8.5q22 0 40.5 8.5t32.5 23.5t22 35t8 43z" />
    <glyph glyph-name="or_visarga" unicode="&#xb03;" horiz-adv-x="697" 
d="M63 339q0 69 41.5 144t121.5 147q-79 72 -121 157.5t-42 170.5q0 61 21.5 116t59 95.5t87.5 64.5t107 24t107.5 -24t88 -64.5t59 -95.5t21.5 -116q0 -85 -36.5 -170t-104.5 -158q70 -75 105.5 -148.5t35.5 -142.5q0 -65 -21.5 -122t-58.5 -99.5t-87.5 -67.5t-108.5 -25
q-57 0 -107.5 25t-87.5 67.5t-58.5 99.5t-21.5 122zM441 339q0 91 -103 183q-102 -93 -102 -183q0 -29 8 -54t22 -44t32.5 -30t39.5 -11t40 11t33 30t22 44t8 54zM441 958q0 25 -8 48.5t-22 40.5t-33 27.5t-40 10.5t-39.5 -10t-32.5 -27.5t-22 -40.5t-8 -49
q0 -66 26.5 -124.5t74.5 -106.5q51 55 77.5 113.5t26.5 117.5z" />
    <glyph glyph-name="or_a" unicode="&#xb05;" horiz-adv-x="1302" 
d="M75 385q0 72 27 126.5t71.5 97.5t101 78t116 68t116 66t101 72.5t71.5 88.5t27 113q0 18 -6 34t-15.5 28.5t-22.5 19.5t-27 7q-29 0 -49.5 -25.5t-20.5 -63.5v-170h-174v170q0 18 -6 34t-15.5 28.5t-22.5 19.5t-27 7q-15 0 -29 -7.5t-25.5 -19.5t-18 -28.5t-6.5 -34.5
q0 -23 10 -41.5t24 -23.5q35 -14 56.5 -41.5t21.5 -56.5q0 -34 -26.5 -56.5t-64.5 -22.5q-42 0 -77.5 20t-62 53.5t-41.5 77.5t-15 92q0 60 17.5 106.5t49.5 79t78 49t103 16.5q50 0 92 -18.5t70 -52.5q26 32 70 51.5t98 19.5t97.5 -18t74.5 -50.5t47.5 -79t16.5 -103.5
q0 -88 -27 -154.5t-71.5 -117t-101 -89t-115.5 -70t-115.5 -60t-101 -60t-71.5 -69t-27 -87.5q0 -51 26.5 -97t73 -80t108.5 -54t134 -20q81 0 154 25t128 68.5t87.5 100.5t32.5 122v826h171v-1279h-171v123q-35 -35 -80 -62.5t-97 -46.5t-109 -29t-116 -10
q-107 0 -201.5 32.5t-164.5 88t-110.5 130.5t-40.5 159z" />
    <glyph glyph-name="or_aa" unicode="&#xb06;" horiz-adv-x="1700" 
d="M75 385q0 72 27 126.5t71.5 97.5t101 78t116 68t116 66t101 72.5t71.5 88.5t27 113q0 18 -6 34t-15.5 28.5t-22.5 19.5t-27 7q-29 0 -49.5 -25.5t-20.5 -63.5v-170h-174v170q0 18 -6 34t-15.5 28.5t-22.5 19.5t-27 7q-15 0 -29 -7.5t-25.5 -19.5t-18 -28.5t-6.5 -34.5
q0 -23 10 -41.5t24 -23.5q35 -14 56.5 -41.5t21.5 -56.5q0 -34 -26.5 -56.5t-64.5 -22.5q-42 0 -77.5 20t-62 53.5t-41.5 77.5t-15 92q0 60 17.5 106.5t49.5 79t78 49t103 16.5q50 0 92 -18.5t70 -52.5q26 32 70 51.5t98 19.5t97.5 -18t74.5 -50.5t47.5 -79t16.5 -103.5
q0 -88 -27 -154.5t-71.5 -117t-101 -89t-115.5 -70t-115.5 -60t-101 -60t-71.5 -69t-27 -87.5q0 -51 26.5 -97t73 -80t108.5 -54t134 -20q81 0 154 25t128 68.5t87.5 100.5t32.5 122v826h171v-1279h-171v123q-35 -35 -80 -62.5t-97 -46.5t-109 -29t-116 -10
q-107 0 -201.5 32.5t-164.5 88t-110.5 130.5t-40.5 159zM1403 1279h171v-1279h-171v1279z" />
    <glyph glyph-name="or_i" unicode="&#xb07;" horiz-adv-x="1394" 
d="M224 389q0 23 3.5 49t10.5 47q-93 59 -141.5 148t-48.5 198q0 69 21.5 134t60.5 122t93.5 105t121 82t143 53t158.5 19q81 0 158.5 -20.5t146 -58t125.5 -90t98.5 -115.5t64.5 -134.5t23 -147.5q0 -143 -20.5 -263t-64.5 -215l170 -260l-142 -89l-222 348q51 91 78 212
t27 267q0 80 -36.5 153.5t-97.5 129t-141 88.5t-168 33q-87 0 -164 -28.5t-134.5 -77t-91.5 -112.5t-34 -135q0 -63 30.5 -119t81.5 -91q22 15 52 24t65 9q42 0 79.5 -16.5t61.5 -42.5q27 28 62.5 43.5t73.5 15.5q46 0 87 -19t72 -51.5t49 -76.5t18 -93v-200
q0 -49 -18 -92.5t-49 -76t-72 -51.5t-87 -19q-47 0 -83.5 13.5t-58.5 39.5q-49 -53 -135 -53q-46 0 -87 19t-72 51.5t-49 76t-18 92.5v175zM502 414q0 40 -14 59t-33 19q-24 0 -40.5 -19t-16.5 -59v-200q0 -41 15.5 -59t36.5 -18t36.5 18t15.5 59v200zM779 414q0 40 -14 59
t-34 19q-23 0 -39.5 -19t-16.5 -59v-200q0 -41 15.5 -59t36.5 -18q22 0 37 18t15 59v200z" />
    <glyph glyph-name="or_ii" unicode="&#xb08;" horiz-adv-x="1358" 
d="M210 736q0 -33 25.5 -62t71.5 -43q14 8 36 15.5t57 7.5q44 0 80.5 -16t60.5 -44q26 25 63 42.5t72 17.5q46 0 87.5 -19t72.5 -51.5t49 -76.5t18 -93v-200q0 -49 -18 -92.5t-49 -76t-72.5 -51.5t-87.5 -19q-45 0 -80.5 14.5t-58.5 38.5q-24 -27 -59.5 -40t-77.5 -13
q-47 0 -88 19t-71.5 51t-48 75.5t-17.5 93.5v200q0 14 6 36.5t14 42.5q-74 41 -117 103t-43 133q0 53 20.5 100.5t56.5 84.5t84.5 61.5t104.5 32.5q-14 30 -14 62q0 55 29.5 105t79 88t115.5 61t140 23q78 0 152 -24t139 -66.5t119.5 -102t93.5 -131t60.5 -152.5t21.5 -166
q0 -217 -85 -403l157 -248l-148 -86l-203 306q54 114 79 221.5t25 209.5q0 63 -15.5 123.5t-43.5 113.5t-66.5 98t-84 77t-97 50t-104.5 18q-38 0 -72 -11t-60.5 -27.5t-42 -37t-15.5 -39.5q0 -21 9 -38.5t25 -26.5q21 -8 45.5 -20t49.5 -27.5t48.5 -35t43.5 -42.5
l-104 -112q-49 41 -109 62t-125 21q-27 -2 -51.5 -12t-42.5 -25.5t-29 -36t-11 -41.5zM452 414q0 32 -14 55t-34 23q-23 0 -39.5 -23t-16.5 -55v-200q0 -32 15.5 -54.5t36.5 -22.5q22 0 37 22.5t15 54.5v200zM729 414q0 32 -15 55t-38 23q-20 0 -35 -23t-15 -55v-200
q0 -32 15 -54.5t35 -22.5q23 0 38 22.5t15 54.5v200z" />
    <glyph glyph-name="or_u" unicode="&#xb09;" horiz-adv-x="1308" 
d="M196 351q0 81 29 142q-43 24 -77.5 60.5t-59 82t-37.5 98.5t-13 110q0 102 44 193t120 159.5t176.5 108t213.5 39.5q82 0 160 -22.5t147.5 -63.5t127 -97.5t99.5 -125t65 -146t23 -160.5q0 -127 -27 -241t-81 -211l156 -235l-148 -94l-203 329q65 92 97.5 206.5
t32.5 245.5q0 91 -37 173.5t-99 144.5t-143.5 98.5t-169.5 36.5q-78 0 -147 -27.5t-120.5 -74t-82 -108t-30.5 -128.5q0 -37 6.5 -71t18.5 -62.5t29 -49t39 -29.5q39 50 96 88.5t129 64.5l60 -149q-52 -24 -94 -56t-71.5 -69.5t-45.5 -78.5t-16 -81q0 -44 15 -82.5t41 -68
t60.5 -46.5t74.5 -17q34 0 64 10t52.5 27t35.5 40.5t13 49.5q0 20 -16 42t-44 41l-92 -93l-123 123l346 346l122 -122l-140 -140q27 -15 49.5 -38.5t38 -51t24 -59t8.5 -62.5q0 -57 -26.5 -107.5t-72.5 -87.5t-107.5 -58.5t-131.5 -21.5q-74 0 -139.5 30.5t-114 82
t-76.5 119.5t-28 144z" />
    <glyph glyph-name="or_uu" unicode="&#xb0a;" horiz-adv-x="1337" 
d="M204 351q0 29 5 55.5t13 48.5q-85 58 -133 150.5t-48 200.5q0 72 20.5 140.5t57.5 128.5t88 110t113 86t132 56t145 20q74 0 146 -20t136 -56t118 -86t93 -110t61 -128.5t22 -140.5q0 -41 -12.5 -84.5t-28.5 -88.5q24 -9 43.5 -26.5t34 -41t22 -52.5t7.5 -60
q0 -60 -31 -109.5t-82 -78.5l150 -225l-145 -72l-245 376q39 7 71.5 19t56.5 26.5t37.5 30.5t13.5 33q0 12 -13.5 22.5t-37 18.5t-55.5 12.5t-69 4.5q46 57 77.5 133.5t31.5 161.5q0 73 -34.5 141t-91.5 121t-129 85t-147 32q-76 0 -145 -32t-122 -85t-84.5 -121t-31.5 -141
q0 -61 21.5 -111.5t62.5 -80.5q37 53 97.5 99t132.5 80l73 -144q-51 -23 -92 -56t-70 -72t-45 -82.5t-16 -87.5q0 -43 13 -81.5t35 -68t52 -47t65 -17.5q31 0 58.5 12t48.5 32.5t33.5 48t12.5 58.5q0 32 -13 58t-34 39l-100 -101l-123 124l338 338l121 -123l-115 -115
q47 -32 74 -90t27 -130q0 -65 -26 -121.5t-71 -99.5t-104.5 -67.5t-126.5 -24.5q-70 0 -131.5 30.5t-107.5 82t-73 119.5t-27 144z" />
    <glyph glyph-name="or_ru" unicode="&#xb0b;" horiz-adv-x="1351" 
d="M241 326q0 34 5 63t13 52q-106 54 -162.5 153.5t-56.5 223.5q0 107 46.5 202.5t125.5 167.5t183.5 114t220.5 42q76 0 148.5 -19.5t136.5 -55.5t117.5 -85.5t91.5 -109t59.5 -128t21.5 -140.5q0 -130 -42 -217q43 -27 67.5 -73t24.5 -102q0 -45 -16.5 -82t-47.5 -63
l163 -227l-143 -89l-264 397q28 0 52.5 5t43 14t29 20.5t10.5 24.5q0 29 -28.5 47t-69.5 19q-9 -1 -26 -1h-37q54 79 82 162t28 165q0 73 -33 140.5t-88.5 120t-128 84t-151.5 31.5t-151.5 -30t-128 -80.5t-89 -116.5t-33.5 -137q0 -42 9.5 -79.5t26.5 -67.5t41 -50.5
t53 -27.5q42 45 100 68t124 23q67 0 126.5 -28t104 -77t70 -114t25.5 -139q0 -71 -25.5 -134.5t-69.5 -111.5t-103.5 -76.5t-127.5 -28.5t-128 28.5t-104 76.5t-69.5 111.5t-25.5 134.5zM720 326q0 38 -11.5 72.5t-32 60t-48.5 40.5t-60 15q-31 0 -58.5 -15t-48.5 -40.5
t-33.5 -60t-12.5 -72.5t12 -71.5t32.5 -59t48.5 -40.5t60 -15t60 15t48.5 40.5t32 59t11.5 71.5z" />
    <glyph glyph-name="or_lu" unicode="&#xb0c;" horiz-adv-x="1130" 
d="M769 1037q0 33 -15 60t-41 46.5t-60 30t-73 10.5q-40 0 -75 -12t-61 -34t-41 -51.5t-15 -65.5h-174q0 67 29 126.5t79 103.5t116.5 69.5t141.5 25.5q74 0 140 -25t115.5 -67.5t78.5 -100t29 -122.5q0 -77 -31.5 -133t-83 -98t-117 -73.5t-134 -59t-134 -55t-117 -62
t-83 -79t-31.5 -106.5q0 -42 22.5 -80t61.5 -67.5t91 -48.5t111 -22q5 75 34 144t76.5 121.5t110 83.5t133.5 31q52 0 97.5 -18.5t79.5 -51t53.5 -75.5t19.5 -91q0 -156 -132.5 -235.5t-398.5 -79.5q-93 0 -188 24t-171.5 72.5t-125 122.5t-48.5 174q0 87 31.5 151t83 111.5
t117 82.5t134 63.5t134 54t117 54.5t83 65t31.5 86zM926 296q0 12 -6 24.5t-16.5 22t-24.5 15.5t-30 6q-34 0 -64 -18.5t-54 -48.5t-39.5 -69t-19.5 -81q53 3 99.5 16.5t81 33.5t54 46t19.5 53z" />
    <glyph glyph-name="or_e" unicode="&#xb0f;" horiz-adv-x="1318" 
d="M1070 0l-1048 891l107 125l889 -751v853q-20 -2 -47 -12.5t-56.5 -26t-58.5 -35.5t-53.5 -41.5t-42.5 -43t-24 -40.5q21 -10 33.5 -31.5t12.5 -49.5q0 -24 -9 -44.5t-24 -35.5t-35.5 -24t-42.5 -9q-29 0 -54 12t-43.5 32.5t-29 48t-10.5 58.5q0 50 30.5 102t80 101.5
t113 93.5t130.5 77t131.5 52t115.5 19q12 0 26 -1t28 -3v-1317h-119z" />
    <glyph glyph-name="or_ai" unicode="&#xb10;" horiz-adv-x="1554" 
d="M1114 830h137v560q0 21 -8 40t-22 33.5t-32.5 22.5t-39.5 8q-17 0 -54.5 -4t-80 -9.5t-82 -9.5t-60.5 -4q-68 0 -140.5 31t-143.5 89l101 154q59 -48 105 -74t78 -26q17 0 54 4t79 8.5t81.5 8.5t62.5 4q58 0 108 -22.5t86.5 -61t57.5 -88.5t21 -104v-1390h-171v668h-137
v-668h-159l-957 905l107 124l838 -776v878q-20 -1 -46 -11.5t-54 -27.5t-55.5 -38t-50.5 -43t-38 -44t-18 -40q23 -8 36 -30.5t13 -51.5q0 -24 -9 -44.5t-24 -35.5t-35.5 -24t-42.5 -9q-29 0 -54 12t-43.5 32.5t-29 48t-10.5 58.5q0 47 27.5 99t73 102t104 95t121.5 79.5
t125.5 54.5t114.5 20q11 0 27 -2t39 -7v-494z" />
    <glyph glyph-name="or_o" unicode="&#xb13;" horiz-adv-x="1125" 
d="M64 642q0 212 63.5 417t196.5 397l135 -89q-118 -168 -172.5 -351.5t-54.5 -373.5q0 -101 31 -192t83.5 -160.5t122 -110.5t146.5 -41q57 0 106 18t85 50.5t56 76t20 94.5q0 66 -28.5 120.5t-86.5 86.5q-20 -17 -44 -35t-49 -34.5t-49 -31t-43 -23.5l-88 142
q77 36 139.5 86.5t106.5 110t67.5 125.5t23.5 132q0 26 -9 49.5t-25 41t-36.5 27.5t-44.5 10q-23 0 -43.5 -11.5t-36.5 -30.5t-25 -44t-9 -53q0 -11 3 -25t8.5 -29.5t9.5 -27.5t4 -19q0 -31 -21.5 -53t-52.5 -22q-20 0 -41.5 17t-40.5 43t-31 57t-12 59q0 61 23 116t62 96
t91.5 65t111.5 24q60 0 112.5 -23t91.5 -62t62 -92t23 -113q0 -41 -8.5 -85t-24 -88.5t-37.5 -88.5t-50 -83q40 -26 72 -62t54 -78.5t33.5 -89.5t11.5 -96q0 -85 -34.5 -160t-94.5 -130.5t-140.5 -87.5t-171.5 -32q-88 0 -163 28.5t-136 77t-108 114t-79 140t-48.5 153
t-16.5 154.5z" />
    <glyph glyph-name="or_au" unicode="&#xb14;" horiz-adv-x="1442" 
d="M67 630q0 105 14.5 211.5t44.5 210.5t77.5 205.5t113.5 196.5l135 -89q-59 -84 -100 -173.5t-67 -182.5t-38 -188.5t-12 -190.5q0 -101 29 -190t79.5 -156.5t118.5 -106.5t145 -39q57 0 106 18t85 50.5t56.5 76t20.5 94.5q0 131 -116 195q-20 -17 -43.5 -35t-48.5 -34.5
t-49 -31t-43 -23.5l-89 142q77 36 139.5 88.5t106.5 114t68 129.5t24 134q0 26 -9 49.5t-25 41t-36.5 27.5t-44.5 10q-23 0 -43.5 -11.5t-36.5 -30.5t-25 -44t-9 -53q0 -10 3 -24t8.5 -30t9.5 -28t4 -19q0 -31 -22 -53t-53 -22q-19 0 -41 17t-40.5 43t-31 57t-12.5 59
q0 61 23 116t62.5 96t92 65t111.5 24q60 0 112.5 -23t91.5 -62t62 -92t23 -113q0 -41 -8.5 -87t-24 -93t-37.5 -92.5t-50 -84.5q18 -12 34.5 -26t33.5 -30q7 -7 19 -18t26.5 -21.5t30.5 -18t30 -7.5q56 0 66 19v846q0 38 -25.5 64.5t-64.5 26.5q-14 0 -40.5 -3t-59 -7
t-68.5 -9t-69.5 -9t-61.5 -7t-45 -3q-66 0 -137.5 26.5t-145.5 77.5l89 146q35 -36 86.5 -57t107.5 -21q15 0 41.5 3t59.5 7t69 9t69 9t61 7t44 3q54 0 102 -21t83 -56.5t55.5 -83.5t20.5 -102v-1443h-171v414q-23 -3 -41 -3q-12 0 -29 1q1 -16 1 -27q0 -85 -35 -160
t-95 -130.5t-140.5 -87.5t-171.5 -32q-88 0 -162 27.5t-134 75t-105.5 111.5t-76.5 137t-46.5 151t-15.5 153z" />
    <glyph glyph-name="or_ka" unicode="&#xb15;" horiz-adv-x="1289" 
d="M553 132q-21 -11 -43 -14.5t-47 -3.5q-54 0 -102 23t-84 63t-57 93.5t-21 114.5q0 29 3.5 51.5t12.5 43.5q-39 18 -70 50t-53 73.5t-33.5 90.5t-11.5 101q0 107 47 203t128 168t188.5 114.5t228.5 42.5q81 0 157.5 -19.5t144 -54t123.5 -83.5t96.5 -107.5t63 -125.5
t22.5 -138q0 -91 -27 -166t-81 -129l-126 110q36 47 49 90.5t13 94.5q0 74 -36 140.5t-96 116.5t-139 79.5t-164 29.5q-86 0 -162 -29.5t-133 -79.5t-90 -116.5t-33 -140.5q0 -60 23 -106.5t61 -67.5q28 28 70 43.5t88 15.5q56 0 101.5 -18.5t74.5 -51.5q29 32 68.5 51
t82.5 19q49 0 92 -19.5t75 -52t50.5 -75.5t18.5 -91v-465h-171v465q0 32 -19 54.5t-46 22.5t-47 -22.5t-20 -54.5v-465h-170v132zM553 440q0 21 -7 39.5t-19 32.5t-28.5 22t-35.5 8t-35.5 -11t-29 -29t-19.5 -42.5t-7 -51.5t7 -51t19 -42.5t28.5 -29.5t36.5 -11q19 0 35.5 8
t28.5 22.5t19 33t7 39.5v63z" />
    <glyph glyph-name="or_kha" unicode="&#xb16;" horiz-adv-x="1352" 
d="M223 836q0 -39 13.5 -76t37 -67.5t56 -52t70.5 -29.5q44 34 97 56.5t116 22.5q70 0 131.5 -28.5t107.5 -78t73 -116t27 -141.5q0 -71 -27 -134.5t-73 -111.5t-107.5 -76.5t-131.5 -28.5q-71 0 -132.5 28.5t-108 76.5t-73 111.5t-26.5 134.5q0 39 5.5 73t17.5 63
q-51 15 -96 50.5t-78.5 85t-53.5 110.5t-20 128q0 89 24 161.5t66.5 129t102 98t130 68.5t150 40t162.5 13q31 0 63.5 -2t63 -6t57.5 -9t48 -11q-41 -24 -73 -55t-55 -66.5t-35 -74t-12 -75.5q0 -28 9 -53.5t25 -44.5t36.5 -30.5t43.5 -11.5q37 0 71 20.5t60 55t41 80.5
t15 98v134h171v-1295h-171v801q-37 -29 -87 -45.5t-100 -16.5q-59 0 -111.5 24t-91.5 66t-62 98t-23 120q0 35 3.5 72.5t13.5 63.5q-81 -5 -147.5 -32t-114 -72.5t-73 -107.5t-25.5 -135zM778 328q0 39 -13 75.5t-35.5 65t-52.5 45.5t-64 17t-64 -17t-52.5 -45.5t-35.5 -65
t-13 -75.5t13 -73.5t35.5 -60.5t52.5 -41.5t64 -15.5t64 16t52.5 42t35.5 60.5t13 72.5z" />
    <glyph glyph-name="or_ga" unicode="&#xb17;" horiz-adv-x="1351" 
d="M273 326q0 35 5.5 67.5t13.5 56.5q-55 19 -100 55t-77.5 84.5t-50 107t-17.5 121.5q0 71 21 137.5t59 125t91.5 107.5t118 84t137.5 54.5t152 19.5q61 0 122.5 -13t117.5 -36.5t103.5 -56t81.5 -71.5v110h171v-1279h-171v806q0 74 -35.5 142.5t-94.5 121t-135.5 83.5
t-159.5 31t-156.5 -30t-128.5 -80.5t-87.5 -117t-32.5 -138.5q0 -37 11.5 -73t32 -66.5t49.5 -53t64 -33.5q104 98 235 98q70 0 131.5 -28.5t107.5 -78t73 -116t27 -141.5q0 -71 -27 -134.5t-73 -111.5t-107.5 -76.5t-131.5 -28.5q-71 0 -132.5 28.5t-108 76.5t-73 111.5
t-26.5 134.5zM778 328q0 39 -13 75.5t-35.5 65t-52.5 45.5t-64 17t-64 -17t-52.5 -45.5t-35.5 -65t-13 -75.5t13 -73.5t35.5 -60.5t52.5 -41.5t64 -15.5t64 16t52.5 42t35.5 60.5t13 72.5z" />
    <glyph glyph-name="or_gha" unicode="&#xb18;" horiz-adv-x="1326" 
d="M894 -25q-66 0 -120 27.5t-84 75.5q-29 -48 -81.5 -75.5t-118.5 -27.5q-60 0 -112.5 25t-91.5 68t-62 100t-23 122q0 118 29 180q-84 50 -132 148.5t-48 225.5q0 102 45 193.5t122.5 160t180 108.5t217.5 40q58 0 117 -11t113.5 -31.5t101.5 -48.5t80 -62v86h171v-1279
h-171v4q-12 -7 -28 -12.5t-34 -9t-36.5 -5.5t-34.5 -2zM606 474h171v-186q0 -30 9.5 -57.5t25 -48t37 -33t45.5 -12.5q23 0 46.5 12t43 32.5t31.5 48t12 58.5v556q0 67 -34.5 129t-91.5 108.5t-131.5 74.5t-154.5 28t-151 -28t-124.5 -74.5t-85 -108.5t-31.5 -129
q0 -66 26.5 -123.5t72.5 -97.5q50 54 115.5 87t144.5 47l37 -161q-53 -9 -98 -37t-77.5 -69t-51 -93t-18.5 -109q0 -31 9 -58.5t24.5 -48t37 -32.5t45.5 -12t45 12.5t36.5 33t25 48t9.5 57.5v186z" />
    <glyph glyph-name="or_nga" unicode="&#xb19;" horiz-adv-x="1415" 
d="M225 351q0 39 5 72t14 57q-44 25 -80 62t-61.5 82.5t-39.5 98t-14 108.5q0 69 20 134t56 122t87 104.5t112.5 82t132 53.5t146.5 19q79 0 154.5 -18t140.5 -50t116.5 -77t84.5 -100q10 3 20.5 4t22.5 1q49 0 92.5 -18.5t75.5 -50t51 -73.5t19 -90t-19 -90.5t-51 -74
t-75.5 -49.5t-92.5 -18q-48 0 -91.5 18t-76 49.5t-52 74t-19.5 90.5q0 41 13 77t36 60q-26 39 -63.5 71t-83.5 54.5t-97.5 35t-104.5 12.5q-78 0 -147.5 -29t-121 -77.5t-81.5 -112.5t-30 -134q0 -58 26.5 -111.5t79.5 -83.5q26 38 65.5 69t90.5 56l89 -140
q-41 -24 -73.5 -54.5t-55 -65.5t-34 -73t-11.5 -77q0 -44 16 -82.5t43.5 -68t64.5 -46.5t79 -17t79 12t64 32.5t43 48t16 58.5q0 17 -6 33t-16.5 28.5t-24 21t-28.5 11.5l-107 -115l-118 110l303 337l125 -106l-86 -92q28 -13 52.5 -36.5t42.5 -53.5t28 -65.5t10 -72.5
q0 -65 -30 -121.5t-81.5 -99.5t-120 -67.5t-145.5 -24.5t-146 29.5t-120.5 80.5t-81.5 119.5t-30 146.5zM1207 874q0 24 -19 42t-46 18t-45.5 -18t-18.5 -42t18.5 -41t45.5 -17t46 17t19 41z" />
    <glyph glyph-name="or_ca" unicode="&#xb1a;" horiz-adv-x="1238" 
d="M273 326q0 37 3.5 64.5t10.5 47.5q-53 18 -96.5 54.5t-75.5 86.5t-49.5 112t-17.5 132q0 106 44.5 201t121 166.5t180 113.5t221.5 42q77 0 150 -19t136.5 -52.5t116 -81t90 -104t58.5 -121t21 -133.5q0 -89 -30.5 -171t-89.5 -153l-139 87q42 59 63 119.5t21 117.5
q0 70 -32 133.5t-86.5 111.5t-126.5 76t-152 28q-83 0 -156 -29t-127 -78.5t-85.5 -115t-31.5 -138.5q0 -44 12.5 -84t35 -71.5t52 -52t64.5 -24.5q51 47 111 73t123 26q70 0 131.5 -28.5t107.5 -78t73 -116t27 -141.5q0 -71 -27 -134.5t-73 -111.5t-107.5 -76.5
t-131.5 -28.5q-71 0 -132.5 28.5t-108 76.5t-73 111.5t-26.5 134.5zM778 328q0 39 -13 75.5t-35.5 65t-52.5 45.5t-64 17t-64 -17t-52.5 -45.5t-35.5 -65t-13 -75.5t13 -73.5t35.5 -60.5t52.5 -41.5t64 -15.5t64 16t52.5 42t35.5 60.5t13 72.5z" />
    <glyph glyph-name="or_cha" unicode="&#xb1b;" horiz-adv-x="1202" 
d="M137 195q0 38 12.5 71.5t42.5 63.5l-86 74l90 124l83 -74q-5 18 -6.5 40t-1.5 48q0 49 10 88q-51 13 -93.5 43.5t-73 72.5t-47.5 94.5t-17 109.5q0 79 44 151t119.5 126.5t175.5 86.5t213 32t213.5 -32t176.5 -86.5t120 -126.5t44 -151q0 -56 -25.5 -115.5t-75.5 -117.5
l-140 94q32 41 49.5 76t17.5 63q0 46 -30.5 88.5t-82 75t-120.5 51.5t-147 19q-77 0 -146 -19t-121 -51.5t-82.5 -75t-30.5 -88.5q0 -32 10 -61t28 -51.5t42.5 -36t53.5 -15.5q41 52 105.5 82t140.5 30q70 0 132 -28.5t108.5 -77.5t73 -114t26.5 -138q-7 -96 -33 -146
q31 -9 58 -28.5t46.5 -46.5t30.5 -59t11 -66q0 -45 -19.5 -85t-53 -69.5t-78 -47t-94.5 -17.5q-54 0 -107.5 28t-98.5 83q-39 -51 -99 -81t-126 -30q-49 0 -93 17t-77 46.5t-52.5 69.5t-19.5 87zM379 137q11 0 27 4t33 11t33.5 17.5t29.5 24.5q-13 14 -29.5 24.5t-33.5 18
t-33 11.5t-27 4q-28 0 -48 -17t-20 -41t20 -40.5t48 -16.5zM882 194q0 24 -20.5 41t-48.5 17q-11 0 -26 -4t-31 -11.5t-31 -17.5t-25 -23q11 -11 27 -22t32.5 -19t31 -13t22.5 -5q28 0 48.5 16.5t20.5 40.5zM767 529q0 39 -13 75t-35.5 64.5t-53 45.5t-64.5 17
q-33 0 -63 -17t-52.5 -45t-35.5 -64.5t-13 -75.5q0 -38 13 -73t35.5 -61t52.5 -41.5t63 -15.5q34 0 64.5 16t53 42.5t35.5 61t13 71.5z" />
    <glyph glyph-name="or_ja" unicode="&#xb1c;" horiz-adv-x="1254" 
d="M221 326q0 110 35 178q-48 22 -87.5 58t-67 82t-42.5 100t-15 112q0 100 45.5 189t124 156t184.5 106t226 39q78 0 152.5 -17.5t140 -49t120 -75.5t94 -97t61.5 -113.5t22 -124.5q0 -76 -22 -141.5t-65 -114.5l-156 77q33 41 51.5 86t18.5 93q0 63 -34.5 120t-92.5 100.5
t-133 69t-157 25.5q-85 0 -159 -26.5t-129 -71.5t-86.5 -104.5t-31.5 -125.5q0 -39 10 -74t28 -63t43.5 -47.5t57.5 -27.5q58 59 154 59q44 0 81 -13.5t59 -36.5q29 25 67 37.5t82 12.5q40 0 80.5 -16t73.5 -43t54 -63.5t21 -77.5v-503h-172v503q-13 12 -21.5 18t-18.5 8.5
t-17 2.5q-21 0 -40 -10.5t-33 -28.5t-22 -41.5t-8 -49.5q0 -38 43 -76q29 -26 43.5 -61.5t14.5 -76.5q0 -44 -20 -82.5t-54.5 -67.5t-80 -46t-96.5 -17q-68 0 -127.5 28.5t-103.5 76.5t-69.5 111.5t-25.5 134.5zM625 188q0 21 -11 39.5t-32 37.5q-29 26 -43.5 62t-14.5 75
q0 74 33 128h-22q-64 0 -102.5 -55t-38.5 -149q0 -38 12 -72.5t33 -60.5t49 -41t59 -15q32 0 55 14.5t23 36.5z" />
    <glyph glyph-name="or_jha" unicode="&#xb1d;" horiz-adv-x="1289" 
d="M346 326q0 15 0.5 28t1.5 25q-66 17 -120.5 57t-93.5 96.5t-61 127t-22 147.5q0 124 52 224t137.5 170t196.5 107.5t228 37.5q25 0 56 -3.5t60 -9t52.5 -12.5t34.5 -13q-45 -51 -69 -106.5t-24 -107.5q0 -29 8.5 -54t23 -44.5t33.5 -30.5t41 -11q33 0 62 29.5t50.5 79.5
t33.5 116.5t12 140.5h169q0 -109 -25.5 -207t-70 -171.5t-104 -117t-127.5 -43.5q-57 0 -107.5 24.5t-88 67.5t-59 99.5t-21.5 121.5q0 24 1.5 47.5t5.5 41.5q-81 -4 -152 -36t-123.5 -83t-82.5 -117.5t-30 -139.5q0 -48 13.5 -91t38.5 -78t59 -59.5t75 -35.5q24 32 55 59
t67 46.5t75 30.5t78 11q70 0 132 -28.5t108 -78t72.5 -116t26.5 -141.5v-22t-1 -21l236 -89l-65 -150l-225 88q-51 -75 -125 -116t-159 -41q-70 0 -132 28.5t-108 76.5t-72.5 111.5t-26.5 134.5zM852 328q0 39 -13 75.5t-35.5 65t-52.5 45.5t-64 17t-64.5 -17t-53 -45.5
t-35.5 -65t-13 -75.5t13 -73.5t35.5 -60.5t53 -41.5t64.5 -15.5t64 16t52.5 42t35.5 60.5t13 72.5z" />
    <glyph glyph-name="or_nya" unicode="&#xb1e;" horiz-adv-x="1264" 
d="M92 491q0 90 30 169t82 130q-19 22 -37.5 51.5t-33 65.5t-23.5 77t-9 86q0 42 8.5 83.5t25 79.5t40.5 71t55 59l115 -74q-22 -29 -35.5 -58t-21.5 -57.5t-11 -55t-3 -48.5q0 -74 28 -134.5t79 -104t121.5 -67t154.5 -23.5q74 0 139.5 22t115 60.5t78 89.5t28.5 108
q0 30 -8.5 59t-23 51.5t-34.5 36.5t-42 14q-16 0 -30 -10t-24.5 -26t-17 -36t-6.5 -40v-187h-173v187q0 20 -6.5 40t-17.5 36t-25.5 26t-31.5 10t-31.5 -9t-25 -23.5t-17 -32t-6.5 -34.5q0 -23 14 -57t50 -65l-117 -98q-54 54 -82 110t-28 110q0 57 16.5 105t48 83
t76.5 54.5t102 19.5q104 0 166 -74q27 35 71 54.5t95 19.5q57 0 107 -27t87.5 -72t59.5 -103.5t22 -121.5q0 -91 -34 -168.5t-98 -131.5q28 -20 52.5 -50t42 -68t27.5 -82.5t10 -92.5q0 -93 -42.5 -175.5t-115.5 -144t-170.5 -97.5t-207.5 -36q-74 0 -143.5 18.5t-131.5 52
t-114 80.5t-89.5 104.5t-58.5 123.5t-21 137zM1017 428q0 36 -8.5 68.5t-23.5 56.5t-34.5 38.5t-41.5 14.5q-32 0 -54.5 -24.5t-22.5 -59.5v-185h-173v185q0 35 -23.5 59.5t-57.5 24.5t-57 -26.5t-23 -63.5q0 -30 21 -63.5t57 -64.5l-123 -90q-26 18 -49 40.5t-40.5 49.5
t-28 59t-10.5 69q0 42 10 78t32 62q-9 5 -17.5 10t-19.5 13q-29 -30 -47 -79.5t-18 -108.5q0 -73 32.5 -137.5t86 -112.5t123 -76t143.5 -28t140.5 22.5t117 62t80 92.5t29.5 114z" />
    <glyph glyph-name="or_tta" unicode="&#xb1f;" horiz-adv-x="1250" 
d="M275 326q0 34 4 63.5t10 51.5q-55 25 -99.5 64.5t-76 90.5t-48.5 110.5t-17 124.5q0 69 20.5 134t57.5 122t89 105t115 82t135 53t149 19q58 0 115.5 -12t109.5 -33.5t97 -51t80 -64.5v94h171v-624h-171v173q0 71 -33 135.5t-88.5 113.5t-128.5 78t-152 29
q-80 0 -151.5 -28.5t-125 -77t-84.5 -112.5t-31 -135q0 -43 11.5 -82.5t32.5 -71.5t50 -54t64 -31q51 48 111 73t123 25q70 0 132 -28.5t108 -78t72.5 -116t26.5 -141.5q0 -71 -26.5 -134.5t-72.5 -111.5t-108 -76.5t-132 -28.5t-132 28.5t-108 76.5t-72.5 111.5
t-26.5 134.5zM778 328q0 39 -13 75.5t-35.5 65t-52.5 45.5t-64 17t-64 -17t-52.5 -45.5t-35.5 -65t-13 -75.5t13 -73.5t35.5 -60.5t52.5 -41.5t64 -15.5t64 16t52.5 42t35.5 60.5t13 72.5z" />
    <glyph glyph-name="or_ttha" unicode="&#xb20;" horiz-adv-x="1298" 
d="M65 654q0 92 21 179.5t58.5 164.5t90.5 141t117 110t138 71.5t154 25.5t154 -25.5t138.5 -71.5t117.5 -110t91 -141t58.5 -164.5t20.5 -179.5t-20.5 -178.5t-58.5 -161.5t-91 -137.5t-117.5 -107.5t-138.5 -69.5t-154 -24.5t-154 24.5t-138.5 69.5t-117 107.5
t-90.5 137.5t-58.5 161.5t-20.5 178.5zM1049 654q0 106 -32 202t-86.5 169t-128.5 116t-158 43t-157.5 -43t-128 -116t-86.5 -169t-32 -202t32 -200t86.5 -164.5t128 -111.5t157.5 -41t158 41t128.5 111.5t86.5 164.5t32 200z" />
    <glyph glyph-name="or_dda" unicode="&#xb21;" horiz-adv-x="1275" 
d="M222 806q0 -32 6 -62.5t18 -56t30 -45t42 -29.5q26 43 74 82.5t101 64.5l89 -139q-83 -48 -128.5 -119.5t-45.5 -150.5q0 -44 16 -82.5t43.5 -68t64.5 -46.5t79 -17q41 0 77.5 12t64.5 32.5t44 48t16 58.5q0 17 -6 33t-16.5 28.5t-23.5 21t-28 11.5l-132 -141l-119 109
l330 366l124 -106l-85 -94q28 -13 52.5 -36t41.5 -53t27 -65.5t10 -73.5q0 -65 -30 -121.5t-81.5 -99.5t-120 -67.5t-145.5 -24.5q-78 0 -146.5 29.5t-119.5 80.5t-81 119.5t-30 146.5q0 39 3.5 64.5t9.5 45.5q-46 20 -83 55t-62.5 80.5t-39.5 99t-14 110.5q0 73 21.5 141.5
t59.5 128.5t92 109.5t119 85.5t139.5 55.5t153.5 19.5q120 0 226.5 -43.5t187 -117.5t127 -172t46.5 -207q0 -128 -80 -261l-154 87q59 104 59 174q0 76 -32 144.5t-87.5 120.5t-129 82.5t-156.5 30.5q-86 0 -162 -30.5t-133 -82.5t-90 -120.5t-33 -144.5z" />
    <glyph glyph-name="or_ddha" unicode="&#xb22;" horiz-adv-x="1276" 
d="M224 806q0 -64 23 -114.5t67 -73.5q27 45 65.5 79.5t81.5 60.5l116 -118q-75 -54 -118.5 -127.5t-43.5 -148.5q0 -44 17.5 -83.5t48 -68.5t71.5 -46t87 -17h15.5t13.5 1q-53 46 -83 104t-30 126q0 54 20 102t54 84t80 57t98 21q54 0 102 -21t83.5 -57t56.5 -84t21 -102
q0 -66 -31 -127t-88 -115l91 -72l-106 -125l-116 89q-40 -25 -84 -36.5t-97 -11.5q-81 0 -153.5 29.5t-127 81t-86.5 121.5t-32 150q0 65 10 96q-47 21 -84.5 56t-63 80.5t-39 99t-13.5 110.5q0 73 21 141.5t59.5 128.5t92.5 109.5t119 85.5t139.5 55.5t153.5 19.5
q120 0 226.5 -43.5t187 -117.5t127 -172t46.5 -207q0 -128 -80 -261l-154 87q59 104 59 174q0 76 -32 144.5t-87.5 120.5t-129 82.5t-156.5 30.5q-86 0 -162 -30.5t-133 -82.5t-90 -120.5t-33 -144.5zM899 380q0 20 -7 37.5t-19.5 31t-29.5 21t-36 7.5q-17 0 -32.5 -7.5
t-27 -21t-18.5 -31t-7 -37.5q0 -40 26 -78t71 -73q36 30 58 68.5t22 82.5z" />
    <glyph glyph-name="or_nna" unicode="&#xb23;" horiz-adv-x="1327" 
d="M51 630q0 69 27 130t73.5 108t109 76.5t133.5 35.5q-3 19 -3 41q0 63 26.5 121.5t71.5 104t104 72.5t124 27q41 0 83 -11t82 -30.5t76 -45t65 -55.5v75h171v-1279h-171v951q-31 52 -68.5 94.5t-78 73.5t-81.5 48t-78 17q-31 0 -58.5 -14t-48.5 -37t-33 -52t-12 -60
q0 -41 15 -55q51 -20 100.5 -55t87.5 -81l-114 -122q-51 51 -109.5 78.5t-116.5 27.5q-37 0 -70.5 -11.5t-60.5 -32.5t-45.5 -50.5t-24.5 -64.5q71 23 187 23q100 0 188.5 -32t155 -87.5t105 -130t38.5 -159.5q0 -61 -23.5 -114.5t-64 -93.5t-94.5 -63t-115 -23
q-80 0 -152 27.5t-133.5 75t-111 111t-84.5 136.5t-53.5 151t-18.5 154zM731 265q0 51 -25 96t-68 78t-101 52.5t-123 19.5q-56 0 -96 -6t-71 -21q15 -67 51.5 -129.5t85 -110.5t106 -77t114.5 -29q27 0 50 10.5t40.5 27.5t27 40t9.5 49z" />
    <glyph glyph-name="or_ta" unicode="&#xb24;" horiz-adv-x="1250" 
d="M222 806q0 -44 9.5 -77.5t25 -58.5t36 -40.5t43.5 -22.5q31 42 80 81t118 74l94 -127q-99 -57 -153 -132t-54 -152q0 -44 17 -82.5t46 -67.5t68 -46t83 -17q46 0 85.5 16t68.5 43.5t45.5 64t16.5 77.5q0 31 -6 52q-14 -7 -26.5 -10t-29.5 -3q-28 0 -52.5 10.5t-43 29
t-29 43t-10.5 52.5q0 29 12 54.5t33 45t48.5 30.5t58.5 11q45 0 83.5 -25t67.5 -68t45.5 -100.5t16.5 -121.5q0 -74 -30.5 -140.5t-83 -116t-122 -78.5t-148.5 -29t-148.5 29.5t-121.5 80.5t-82 119.5t-30 146.5q0 24 2 51.5t9 51.5q-57 19 -97.5 55.5t-67 83t-39 101.5
t-12.5 112q0 73 21.5 141.5t59.5 128.5t92 109.5t119 85.5t139.5 55.5t153.5 19.5q120 0 226.5 -43.5t187 -117.5t127 -172t46.5 -207q0 -128 -80 -261l-154 87q59 104 59 174q0 76 -32 144.5t-87.5 120.5t-129 82.5t-156.5 30.5q-86 0 -162 -30.5t-133 -82.5t-90 -120.5
t-33 -144.5z" />
    <glyph glyph-name="or_tha" unicode="&#xb25;" horiz-adv-x="1244" 
d="M45 390q0 70 26 123t68.5 94.5t96.5 75t111 63t111 58.5t96.5 62.5t68.5 73.5t26 93q0 30 -12.5 57.5t-34 48t-51.5 33t-66 12.5t-66 -12.5t-52.5 -33.5t-35 -48t-12.5 -57q0 -27 10 -43t21.5 -28.5t21.5 -27.5t10 -40q0 -36 -25.5 -61.5t-61.5 -25.5q-32 0 -59 18.5
t-47 49.5t-31.5 72t-11.5 86q0 62 26.5 119t72.5 100t108 68.5t132 25.5t131.5 -25.5t107.5 -68.5t73 -100t27 -119q0 -72 -26 -128t-68.5 -101.5t-97 -82t-111.5 -68.5t-111.5 -61t-97 -60t-68.5 -65.5t-26 -76.5q0 -46 24 -91t66 -81t98.5 -58t121.5 -22q83 0 157.5 26
t130.5 70.5t89 104t33 126.5v826h171v-1291h-171v118q-35 -32 -80.5 -58.5t-98.5 -45.5t-112 -29t-119 -10q-99 0 -187 33t-153.5 89t-104 131.5t-38.5 161.5z" />
    <glyph glyph-name="or_da" unicode="&#xb26;" horiz-adv-x="1247" 
d="M730 150q-57 -31 -140 -31q-65 0 -122 24.5t-100 66.5t-67.5 98t-24.5 119q0 11 0.5 22.5t2.5 22.5q-51 10 -93 42.5t-73 80t-48 108t-17 128.5q0 69 21 134t58.5 122t90 105t116 82t136 53t150.5 19q119 0 225 -41t186 -111t126.5 -163.5t46.5 -199.5q0 -68 -20 -137.5
t-58 -134.5l-156 85q60 105 60 187q0 72 -32.5 136t-88 112.5t-130.5 76.5t-159 28q-83 0 -155.5 -28.5t-126 -77t-84.5 -112.5t-31 -135q0 -39 9 -73.5t24.5 -61.5t36 -44.5t44.5 -21.5q29 44 77.5 82.5t108.5 67.5l89 -137q-37 -17 -67 -40.5t-51 -52t-32.5 -60
t-11.5 -63.5q0 -29 11 -54.5t30 -45t44 -30.5t54 -11t55 11.5t45 31t30 45t11 54.5v275h171v-703h-171v150z" />
    <glyph glyph-name="or_dha" unicode="&#xb27;" horiz-adv-x="1325" 
d="M48 414q0 75 27 144.5t75 127.5t113.5 99.5t143.5 61.5l-307 380l141 104l588 -742l-130 -107l-183 223q-62 -7 -116 -32.5t-93.5 -64.5t-62 -89t-22.5 -105q0 -58 26 -108t71 -87.5t105 -59t128 -21.5q93 0 166 26.5t129.5 73t98 109.5t70.5 135v797h171v-1279h-171v189
q-72 -99 -190.5 -156.5t-273.5 -57.5q-104 0 -196 35t-160.5 94.5t-108 139.5t-39.5 170z" />
    <glyph glyph-name="or_na" unicode="&#xb28;" horiz-adv-x="1258" 
d="M744 529q-70 -4 -131 -29.5t-106.5 -66t-71.5 -94t-26 -113.5q0 -11 8 -19.5t20 -8.5q24 0 44.5 -8.5t35.5 -22.5t23.5 -33t8.5 -41q0 -45 -32 -75t-80 -30q-41 0 -77.5 19t-63.5 51t-43 75.5t-16 92.5q0 63 19 119.5t60 105.5q-59 17 -108 53.5t-84.5 87t-55.5 111.5
t-20 128q0 69 21 134t59 122t91 105t117 82t138 53t153 19t152 -19t137.5 -52.5t117.5 -81t90.5 -105t58.5 -122.5t21 -135q0 -32 -6.5 -69t-17.5 -73t-25.5 -69.5t-30.5 -59.5l-154 84q28 46 44 94t16 93q0 72 -32 136t-87 112t-128.5 76t-155.5 28q-86 0 -159.5 -28
t-128 -76t-85.5 -112t-31 -136q0 -49 16 -92t45 -76t69 -52.5t87 -20.5q36 26 81 47t93.5 35.5t97.5 22.5t93 8h110v-703h-171v529z" />
    <glyph glyph-name="or_pa" unicode="&#xb2a;" horiz-adv-x="1349" 
d="M1039 105q-28 -27 -68 -51t-88 -41.5t-101.5 -27.5t-107.5 -10q-90 0 -170 29.5t-140 80.5t-95 119.5t-35 146.5q0 40 9.5 76t25.5 64q-49 19 -90 53.5t-70.5 79.5t-46 98t-16.5 109q0 69 21 134t59 122t91 105t117.5 82t138 53t151.5 19q61 0 120.5 -13.5t114 -37
t100.5 -56t80 -70.5v110h171v-1279h-171v105zM1039 831q0 71 -33.5 135t-90.5 112.5t-132 77t-159 28.5q-82 0 -155.5 -28.5t-129 -77t-88 -112.5t-32.5 -135q0 -35 12 -68t33 -60t50 -46t63 -27q50 45 116.5 69t145.5 24l26 -153q-53 -5 -100 -24t-81.5 -48t-54.5 -67
t-20 -80q0 -44 21.5 -82.5t57.5 -68t84 -46.5t102 -17q73 0 139 26t116 71t80 104.5t30 126.5v366z" />
    <glyph glyph-name="or_pha" unicode="&#xb2b;" horiz-adv-x="1527" 
d="M1016 116q-61 -69 -153.5 -105t-198.5 -36q-88 0 -165.5 29t-135.5 78.5t-92 115.5t-34 141q0 92 37 153q-51 22 -92.5 57.5t-71 80t-46 96t-16.5 105.5q0 69 20.5 134t58 122t89 105t114.5 82t135 53t149 19q60 0 118 -12t110.5 -34t97 -51.5t76.5 -65.5v96h171v-36
q33 15 79 15t87 -17.5t71.5 -47.5t48 -70t17.5 -85q0 -44 -17.5 -83.5t-47.5 -69.5t-71 -47.5t-88 -17.5q-43 0 -79 12v-832h-171v116zM1016 844q0 67 -33 129t-88.5 108.5t-128 74.5t-152.5 28t-151.5 -28.5t-125 -77t-85 -112.5t-31.5 -135q0 -36 11.5 -69.5t32.5 -62
t50 -49.5t64 -31q42 39 108.5 68.5t151.5 37.5l29 -155q-54 -5 -100.5 -25t-81.5 -51.5t-55 -71.5t-20 -83q0 -42 20.5 -78.5t55 -64t80.5 -43.5t97 -16q70 0 134 27t112.5 73.5t77 108.5t28.5 132v366zM1343 1038q0 30 -22.5 50.5t-54.5 20.5q-30 0 -52.5 -20.5
t-22.5 -50.5q0 -29 22 -49t53 -20q32 0 54.5 20t22.5 49z" />
    <glyph glyph-name="or_ba" unicode="&#xb2c;" horiz-adv-x="1260" 
d="M772 414q0 30 -12.5 55.5t-33.5 45t-48.5 30.5t-58.5 11q-32 0 -60 -11t-49 -30.5t-33 -45t-12 -55.5q0 -29 12 -54t33 -44.5t49 -30.5t60 -11q31 0 58.5 11t48.5 30t33.5 44.5t12.5 54.5zM48 831q0 69 21 134t58.5 122t90 105t116 82t136 53t150.5 19q119 0 225 -41
t186 -111t126.5 -163.5t46.5 -199.5q0 -68 -20 -137.5t-58 -134.5l-156 85q60 105 60 187q0 72 -32.5 136t-88 112.5t-130.5 76.5t-159 28q-83 0 -155.5 -28.5t-126 -77t-84.5 -112.5t-31 -135q0 -80 39.5 -132.5t122.5 -63.5q50 47 107.5 68.5t126.5 21.5q66 0 125 -24
t103 -66t70 -98.5t26 -122.5v-414h-171v145q-31 -17 -70.5 -27.5t-82.5 -10.5q-67 0 -126 24t-102.5 66t-69 98t-25.5 119q0 17 1.5 33t5.5 30q-55 15 -102 44t-81 73.5t-53 103.5t-19 133z" />
    <glyph glyph-name="or_bha" unicode="&#xb2d;" horiz-adv-x="1373" 
d="M188 377q0 56 8 95.5t19 66.5q-38 16 -69 46.5t-53.5 71.5t-35 90t-12.5 102q0 100 46.5 190t127 158.5t187 108.5t226.5 40q83 0 162 -23.5t149 -66.5t128.5 -102.5t100.5 -130.5t65.5 -152t23.5 -166q0 -122 -21.5 -218t-63.5 -162l125 -276l-165 -60l-160 339
q54 78 82.5 173t28.5 204q0 96 -37.5 182.5t-100.5 152.5t-145 105t-172 39q-86 0 -161 -27t-131 -73t-88.5 -107t-32.5 -128q0 -50 18 -89.5t51 -61.5q18 26 43.5 52t57.5 48l102 -102q-33 -26 -57 -61.5t-40.5 -77t-24.5 -87.5t-8 -93q0 -49 18 -92.5t49 -76t72 -51.5
t86 -19q30 0 56.5 8.5t48.5 23.5t38 36t25 46q-28 -11 -72 -11q-46 0 -86 18.5t-70 51t-47 75.5t-17 92q0 80 38 151t105 128l113 -97q-42 -41 -62.5 -89t-20.5 -93q0 -32 19 -54.5t46 -22.5q26 0 43.5 19t17.5 45v199h171v-361q0 -68 -27.5 -127.5t-74.5 -104t-110 -70.5
t-133 -26q-80 0 -152 32t-127 86.5t-87.5 127.5t-32.5 156z" />
    <glyph glyph-name="or_ma" unicode="&#xb2e;" horiz-adv-x="1325" 
d="M224 176q0 66 22 129.5t64 122.5q-58 22 -106.5 61t-83 90t-53.5 112t-19 127q0 107 45 203t122 168t180 114.5t219 42.5q58 0 114.5 -12t108.5 -33t97.5 -50.5t82.5 -64.5v113h171v-1299h-171v831q0 71 -33 135t-88.5 112.5t-128.5 77t-153 28.5q-82 0 -153.5 -29.5
t-124.5 -79.5t-83.5 -116.5t-30.5 -140.5q0 -47 15.5 -89.5t42 -76t62 -56.5t76.5 -30q91 74 174.5 119.5t160.5 58.5l62 -142q-90 -33 -162.5 -76t-125 -94t-84.5 -107.5t-41 -115.5q24 -4 44 -15t35 -27t23 -36.5t8 -43.5t-10 -43.5t-27 -35.5t-39.5 -24t-47.5 -9
q-35 0 -64.5 17t-52 45t-35 64t-12.5 75z" />
    <glyph glyph-name="or_ya" unicode="&#xb2f;" horiz-adv-x="1365" 
d="M364 314q0 9 0.5 16t1.5 15q-59 -39 -93 -78q13 -16 20.5 -37t7.5 -42q0 -26 -9.5 -49t-26.5 -40t-40 -26.5t-49 -9.5t-48.5 9.5t-39.5 26.5t-27 40t-10 49q0 72 60 146t160 140q-42 21 -76 56t-58 81.5t-37 102t-13 117.5q0 103 45 196.5t122 163.5t180 111.5t219 41.5
q58 0 114.5 -12t109 -33t98 -50.5t80.5 -63.5v104h171v-1289h-171v112q-26 -29 -61.5 -54t-77 -43.5t-86.5 -29t-89 -10.5q-77 0 -145 25t-120 70t-82 107t-30 137zM1055 843q0 68 -33 129.5t-88.5 108t-128 74t-152.5 27.5q-82 0 -153.5 -28t-125 -76t-84 -111.5
t-30.5 -135.5q0 -47 13 -90t36.5 -77t54.5 -56.5t67 -28.5l267 171l88 -142l-159 -106q-42 -26 -66 -75.5t-24 -112.5q0 -40 17 -72.5t45.5 -55.5t65.5 -35.5t76 -12.5q64 0 121 31.5t100 84.5t68 124t25 151v314z" />
    <glyph glyph-name="or_ra" unicode="&#xb30;" horiz-adv-x="1326" 
d="M233 326q0 32 2 55.5t7 43.5q-38 24 -72.5 62.5t-60.5 87.5t-41.5 107.5t-15.5 122.5q0 73 21.5 141t60 128.5t92 110.5t118 85.5t137 55.5t149.5 20q79 0 153.5 -22.5t140 -63.5t119.5 -97.5t92.5 -124t60 -144.5t21.5 -158q0 -122 -24.5 -228t-72.5 -194l144 -247
l-150 -88l-190 322q60 101 90 211t30 224q0 88 -33 168.5t-90 142.5t-132 99t-159 37q-81 0 -155 -31t-131 -83t-91 -120.5t-34 -143.5q0 -82 27 -144.5t73 -85.5q98 115 253 115q70 0 130 -28.5t104 -78t69.5 -116t25.5 -141.5q0 -71 -25.5 -134.5t-69.5 -111.5t-104 -76.5
t-130 -28.5q-71 0 -133 28.5t-107.5 76.5t-72 111.5t-26.5 134.5zM728 328q0 39 -11.5 75.5t-32.5 65t-49.5 45.5t-62.5 17q-33 0 -63 -17t-52.5 -45.5t-36 -65t-13.5 -75.5t13.5 -73.5t36 -60.5t52.5 -41.5t63 -15.5q34 0 62.5 16t49.5 42t32.5 60.5t11.5 72.5z" />
    <glyph glyph-name="or_la" unicode="&#xb32;" horiz-adv-x="1412" 
d="M239 464q-44 23 -78.5 60t-59.5 84t-38 103.5t-13 119.5q0 104 47 197.5t128 164t188.5 112t228.5 41.5q84 0 164 -22.5t150.5 -63.5t129.5 -98t101.5 -125.5t66 -146.5t23.5 -161q0 -112 -21 -215.5t-63 -197.5l156 -230l-141 -96l-204 309q100 217 100 430
q0 91 -38 174t-101.5 145t-147.5 99t-175 37q-85 0 -161 -29t-133 -77.5t-90.5 -113t-33.5 -134.5q0 -74 20.5 -128t62.5 -79q26 32 68.5 49.5t85.5 17.5q45 0 84 -17.5t65 -42.5q26 23 61.5 41.5t74.5 18.5q40 0 77.5 -17t66.5 -46.5t46 -68t17 -80.5v-478h-171v478
q0 21 -16 36.5t-33 15.5q-19 0 -35 -15.5t-16 -36.5v-478h-171v478q0 21 -15.5 36.5t-34.5 15.5q-18 0 -34.5 -15.5t-16.5 -36.5v-478h-171v464z" />
    <glyph glyph-name="or_lla" unicode="&#xb33;" horiz-adv-x="1307" 
d="M290 432q-53 14 -97 50t-76 87t-49.5 114.5t-17.5 134.5q0 106 45.5 202t124.5 168.5t184 115t225 42.5q80 0 156 -19.5t143.5 -54.5t124 -83.5t97.5 -107.5t64 -126t23 -138q0 -94 -26.5 -170t-76.5 -127l-137 96q31 46 48 97.5t17 103.5q0 74 -36.5 140.5t-96.5 116.5
t-138 79.5t-162 29.5q-83 0 -156.5 -29.5t-129 -80t-87.5 -116.5t-32 -139q0 -38 7.5 -73.5t21.5 -65t33.5 -51.5t42.5 -33q15 18 35 33t42.5 26.5t46.5 17.5t47 6q41 0 81.5 -16t67.5 -44q30 29 70 44.5t78 15.5q41 0 78.5 -18t66 -48.5t45.5 -71.5t17 -87v-453h-171v453
q0 21 -15.5 36.5t-33.5 15.5q-17 0 -33 -15.5t-16 -36.5v-453h-173v453q0 21 -16 36.5t-33 15.5q-18 0 -33.5 -15.5t-15.5 -36.5v-453h-174v432z" />
    <glyph glyph-name="or_va" unicode="&#xb35;" horiz-adv-x="1231" 
d="M765 140q-31 -17 -71.5 -27t-82.5 -10q-67 0 -126 24.5t-103.5 66.5t-70.5 98.5t-26 121.5q0 42 7 73q-53 20 -98 57.5t-78 86t-51.5 106t-18.5 118.5q0 99 45 188.5t122 156.5t179.5 106.5t218.5 39.5t219.5 -39.5t181 -106.5t123 -156.5t45.5 -188.5
q0 -76 -27.5 -147.5t-79.5 -133.5l-142 87q38 45 56 94t18 100q0 67 -31.5 126.5t-85.5 104.5t-125.5 71.5t-151.5 26.5t-151 -26.5t-124.5 -71.5t-85 -104.5t-31.5 -126.5q0 -44 12 -82.5t33 -69t50.5 -50t64.5 -24.5q48 48 107 72t125 24q67 0 126 -25t103.5 -67.5
t70 -100t25.5 -121.5v-411h-171v140zM765 414q0 30 -12.5 55.5t-33.5 45t-49 30.5t-59 11t-58.5 -11t-48.5 -30.5t-33 -45t-12 -55.5q0 -29 12 -54.5t33 -44.5t48.5 -30t58.5 -11t59 11t49 30.5t33.5 44.5t12.5 54zM615 501q37 0 62 -25.5t25 -62.5q0 -36 -25 -61.5
t-62 -25.5q-36 0 -61 25.5t-25 61.5q0 37 25 62.5t61 25.5z" />
    <glyph glyph-name="or_sha" unicode="&#xb36;" horiz-adv-x="1295" 
d="M254 326q0 29 2 51t6 40q-44 12 -85.5 36t-73.5 58t-51.5 76.5t-19.5 91.5q0 59 29 111t78.5 91.5t116.5 65.5t142 32q-13 22 -19.5 48.5t-6.5 52.5q0 51 23.5 99t64.5 85t96 59.5t117 22.5q46 0 91 -12t85.5 -33t76 -49t61.5 -61v98h171v-1289h-171v793q0 76 -25.5 147
t-69 125t-100 86.5t-119.5 32.5q-26 0 -49 -9.5t-40.5 -25t-27.5 -34.5t-10 -38q0 -31 13.5 -59t31.5 -38q109 -17 231 -97l-76 -149q-69 39 -141 59.5t-147 20.5q-51 0 -97 -10.5t-80.5 -29t-55 -43t-20.5 -52.5q0 -22 12 -40.5t31 -33t43 -23.5t47 -12q48 59 113 89.5
t142 30.5q70 0 132 -28.5t108.5 -78t73 -116t26.5 -141.5q0 -71 -26.5 -134.5t-73 -111.5t-108.5 -76.5t-132 -28.5t-131.5 28.5t-107.5 76.5t-73 111.5t-27 134.5zM759 328q0 39 -13 75.5t-35.5 65t-52.5 45.5t-65 17q-33 0 -63 -17t-52.5 -45.5t-35.5 -65t-13 -75.5
t13 -73.5t35.5 -60.5t52.5 -41.5t63 -15.5q35 0 65 16t52.5 42t35.5 60.5t13 72.5z" />
    <glyph glyph-name="or_ssa" unicode="&#xb37;" horiz-adv-x="1322" 
d="M247 288q0 55 17 103.5t44 82.5q-57 14 -105.5 46t-83 77.5t-54 102t-19.5 118.5q0 71 20 137.5t56 125t87 107.5t112.5 84t132.5 54.5t147 19.5q133 0 239 -39t173 -110v92h171v-1289h-171v132q-35 -38 -78 -67t-92 -49t-101 -30.5t-105 -10.5q-78 0 -148.5 24.5
t-124.5 67.5t-85.5 99.5t-31.5 121.5zM708 609q-49 -38 -98 -75.5t-98 -75.5q-44 -30 -67.5 -75.5t-23.5 -94.5q0 -38 20.5 -66t52 -47t70 -28.5t73.5 -9.5q46 0 91.5 13t87 37.5t78 59.5t64.5 78zM330 1069q-27 -21 -47.5 -50t-35 -62t-21.5 -68.5t-7 -70.5q0 -41 15 -78
t41.5 -64.5t61 -43.5t73.5 -16q28 0 74.5 28t118.5 88zM1013 856q0 65 -33.5 124.5t-90 104.5t-131.5 72t-157 27q-35 0 -72 -8.5t-69 -24.5l553 -658v363z" />
    <glyph glyph-name="or_sa" unicode="&#xb38;" horiz-adv-x="1303" 
d="M223 233v73l129 112q-68 27 -124.5 69.5t-96.5 96.5t-62 117t-22 130q0 103 44 196.5t119.5 164t176 112.5t214.5 42q57 0 112.5 -10t106 -29.5t94.5 -47.5t79 -65v97h171v-1167l71 -29l-69 -150zM993 843q0 68 -32.5 130t-86.5 109t-125 74.5t-148 27.5t-146 -29.5
t-121 -78.5t-82.5 -113t-30.5 -132q0 -50 21 -96t58.5 -83.5t88.5 -64.5t111 -40l219 182l123 -122l-332 -276l483 -153v665z" />
    <glyph glyph-name="or_ha" unicode="&#xb39;" horiz-adv-x="1196" 
d="M178 86v81l211 194q-42 34 -66.5 85t-24.5 108v9t1 10q-55 16 -102 49t-81.5 77.5t-54.5 98t-20 109.5q0 88 44 168t119.5 140t176 95.5t212.5 35.5q113 0 215.5 -35.5t180 -95.5t123 -140t45.5 -168q0 -69 -22 -134.5t-77 -130.5l-140 96q38 44 51 86t13 83
q0 55 -32 105t-85.5 88t-124 61t-147.5 23t-146 -23t-121 -61t-82 -88t-30 -105q0 -34 11 -65t29.5 -55t43.5 -39.5t54 -18.5q13 23 33.5 44t46 39.5t53.5 34t56 27.5l72 -146q-33 -12 -60.5 -30.5t-46.5 -41.5t-29.5 -49t-10.5 -53q0 -24 10 -45.5t27.5 -38t40.5 -26
t49 -9.5q27 0 50 8.5t40.5 24.5t27 37.5t9.5 48.5v225h171v-583h-171v107q-24 -15 -55.5 -23.5t-71.5 -8.5q-11 0 -24.5 1.5t-33.5 6.5l-84 -83l604 -114l-41 -151z" />
    <glyph glyph-name="or_nukta" unicode="&#xb3c;" 
d="M-1024 -265q0 28 10 52.5t28 42.5t42 28t52 10q27 0 51 -10t42 -28t28 -42.5t10 -52.5q0 -27 -10 -51t-28 -42t-42 -28t-51 -10q-28 0 -52 10t-42 28t-28 42t-10 51z" />
    <glyph glyph-name="or_avagraha" unicode="&#xb3d;" horiz-adv-x="973" 
d="M754 1339l100 -122l-434 -291l461 -272l-461 -272l434 -290l-100 -122l-623 412l463 272l-463 272z" />
    <glyph glyph-name="or_aakaar" unicode="&#xb3e;" horiz-adv-x="413" 
d="M116 1279h171v-1279h-171v1279z" />
    <glyph glyph-name="or_ikaar" unicode="&#xb3f;" 
d="M-1197 1549q100 100 238 154t299 54t300 -54t240 -154l-122 -122q-80 79 -187 120.5t-229 41.5t-229.5 -41.5t-186.5 -120.5z" />
    <glyph glyph-name="or_iikaar" unicode="&#xb40;" horiz-adv-x="562" 
d="M280 1081l-169 -145l-105 138l282 229q68 56 103 56q26 0 43 -17.5t17 -44.5v-1297h-171v1081z" />
    <glyph glyph-name="or_ukaar" unicode="&#xb41;" 
d="M-729 -324q0 43 20 78t54 59.5t80 37.5t98 13q57 0 101.5 -14t79.5 -34q4 15 6 36.5t2 50.5v140h171v-138q0 -52 -9.5 -104.5t-31.5 -94.5q77 -70 166 -70q41 0 82 31.5t71 85.5l111 -111q-23 -38 -52.5 -69t-64.5 -53t-74 -33.5t-79 -11.5q-63 0 -131.5 23.5
t-132.5 73.5q-40 -42 -95 -63.5t-116 -21.5q-54 0 -101 14t-81.5 39t-54 59.5t-19.5 76.5zM-478 -376q32 0 67.5 12.5t61.5 41.5q-20 23 -57.5 36.5t-71.5 13.5q-20 0 -38.5 -4.5t-32.5 -12t-22.5 -16.5t-8.5 -19q0 -22 30 -37t72 -15z" />
    <glyph glyph-name="or_uukaar" unicode="&#xb42;" 
d="M-522 -395q0 46 18 87t50 72.5t75.5 52.5t93.5 26v201h171v-361h-148q-42 0 -70 -23t-28 -55q0 -33 29.5 -59.5t81.5 -26.5q26 0 50 9t42.5 25.5t30 39t13.5 48.5l134 30l368 -203l-74 -131l-301 163q-19 -33 -46.5 -59.5t-61.5 -44.5t-73.5 -28t-81.5 -10
q-62 0 -112.5 20.5t-86 54.5t-55 79t-19.5 93z" />
    <glyph glyph-name="or_rukaar" unicode="&#xb43;" 
d="M-528 -347q0 69 27.5 129t75 104t111.5 69t137 25v-153q-39 -4 -74 -18t-60.5 -36.5t-40.5 -53t-15 -66.5q0 -24 11 -47.5t30.5 -43t44.5 -31.5t54 -12q26 0 50 6t42 16.5t28.5 24.5t10.5 30t-9.5 26.5t-20.5 10.5q-26 0 -64 -38l-93 102q29 35 70 54.5t88 19.5
q38 0 72 -13.5t59.5 -37t40 -55.5t14.5 -69q0 -48 -23.5 -90.5t-63 -74t-91.5 -49.5t-110 -18q-62 0 -116.5 24.5t-95.5 65t-65 92.5t-24 107z" />
    <glyph glyph-name="or_ekaar" unicode="&#xb47;" horiz-adv-x="993" 
d="M64 654q0 92 20 179.5t56 164.5t86.5 141t112 110t132 71.5t146.5 25.5q67 0 126.5 -20t104.5 -52.5t71 -74t26 -84.5t-25 -68.5t-63 -25.5q-35 0 -57.5 17t-39.5 46q-12 20 -27.5 38.5t-34.5 32t-39.5 21.5t-41.5 8q-75 0 -141 -39t-117 -105t-82.5 -153.5t-36.5 -184.5
q34 11 75.5 18.5t75.5 7.5q115 0 212.5 -34.5t167.5 -96.5t109.5 -148.5t39.5 -190.5q0 -68 -22 -120.5t-62.5 -88.5t-97 -55t-126.5 -19q-75 0 -145 24.5t-131 69.5t-111 107.5t-86 137.5t-55.5 161.5t-19.5 178.5zM745 258q0 64 -26 120.5t-73 98.5t-112 66.5t-143 24.5
q-41 0 -76.5 -9t-63.5 -24q10 -82 41.5 -154.5t79.5 -126.5t109.5 -85.5t129.5 -31.5q32 0 57 10t42 26.5t26 38.5t9 46z" />
    <glyph glyph-name="or_aikaar" unicode="&#xb48;" horiz-adv-x="993" 
d="M64 654q0 92 20 179.5t56 164.5t86.5 141t112 110t132 71.5t146.5 25.5q67 0 126.5 -20t104.5 -52.5t71 -74t26 -84.5t-25 -68.5t-63 -25.5q-35 0 -57.5 17t-39.5 46q-12 20 -27.5 38.5t-34.5 32t-39.5 21.5t-41.5 8q-75 0 -141 -39t-117 -105t-82.5 -153.5t-36.5 -184.5
q34 11 75.5 18.5t75.5 7.5q115 0 212.5 -34.5t167.5 -96.5t109.5 -148.5t39.5 -190.5q0 -68 -22 -120.5t-62.5 -88.5t-97 -55t-126.5 -19q-75 0 -145 24.5t-131 69.5t-111 107.5t-86 137.5t-55.5 161.5t-19.5 178.5zM745 258q0 64 -26 120.5t-73 98.5t-112 66.5t-143 24.5
q-41 0 -76.5 -9t-63.5 -24q10 -82 41.5 -154.5t79.5 -126.5t109.5 -85.5t129.5 -31.5q32 0 57 10t42 26.5t26 38.5t9 46zM864 1660q42 -38 89 -56.5t92 -18.5q22 0 63.5 9.5t93 23.5t108.5 30t109 30t95 23.5t67 9.5q54 0 101.5 -19.5t83 -53t56 -78t20.5 -95.5v-174h-171
v174q0 32 -25.5 55t-64.5 23q-28 0 -71 -9.5t-94 -23.5t-105 -30t-104.5 -30t-92.5 -23.5t-69 -9.5q-75 0 -148.5 27.5t-137.5 81.5z" />
    <glyph glyph-name="or_okaar" unicode="&#xb4b;" horiz-adv-x="1833" 
d="M64 654q0 92 20 179.5t56 164.5t86.5 141t112 110t132 71.5t146.5 25.5q67 0 126.5 -20t104.5 -52.5t71 -74t26 -84.5t-25 -68.5t-63 -25.5q-35 0 -57.5 17t-39.5 46q-12 20 -27.5 38.5t-34.5 32t-39.5 21.5t-41.5 8q-75 0 -141 -39t-117 -105t-82.5 -153.5t-36.5 -184.5
q34 11 75.5 18.5t75.5 7.5q115 0 212.5 -34.5t167.5 -96.5t109.5 -148.5t39.5 -190.5q0 -68 -22 -120.5t-62.5 -88.5t-97 -55t-126.5 -19q-75 0 -145 24.5t-131 69.5t-111 107.5t-86 137.5t-55.5 161.5t-19.5 178.5zM745 258q0 64 -26 120.5t-73 98.5t-112 66.5t-143 24.5
q-41 0 -76.5 -9t-63.5 -24q10 -82 41.5 -154.5t79.5 -126.5t109.5 -85.5t129.5 -31.5q32 0 57 10t42 26.5t26 38.5t9 46zM1536 1279h171v-1279h-171v1279z" />
    <glyph glyph-name="or_aukaar" unicode="&#xb4c;" horiz-adv-x="1967" 
d="M64 654q0 92 20 179.5t56 164.5t86.5 141t112 110t132 71.5t146.5 25.5q67 0 126.5 -20t104.5 -52.5t71 -74t26 -84.5t-25 -68.5t-63 -25.5q-35 0 -57.5 17t-39.5 46q-12 20 -27.5 38.5t-34.5 32t-39.5 21.5t-41.5 8q-75 0 -141 -39t-117 -105t-82.5 -153.5t-36.5 -184.5
q34 11 75.5 18.5t75.5 7.5q115 0 212.5 -34.5t167.5 -96.5t109.5 -148.5t39.5 -190.5q0 -68 -22 -120.5t-62.5 -88.5t-97 -55t-126.5 -19q-75 0 -145 24.5t-131 69.5t-111 107.5t-86 137.5t-55.5 161.5t-19.5 178.5zM745 258q0 64 -26 120.5t-73 98.5t-112 66.5t-143 24.5
q-41 0 -76.5 -9t-63.5 -24q10 -82 41.5 -154.5t79.5 -126.5t109.5 -85.5t129.5 -31.5q32 0 57 10t42 26.5t26 38.5t9 46zM1662 1427q0 22 -10.5 42.5t-28 35.5t-41 24t-48.5 9q-20 0 -56 -6t-80 -15.5t-92.5 -20t-93 -20t-81.5 -15.5t-58 -6q-94 0 -176.5 27.5t-146.5 80.5
l89 130q133 -77 234 -77q55 0 112 13.5t114.5 30t116.5 30.5t118 14q60 0 114 -22t95.5 -59.5t65.5 -88t24 -107.5v-1427h-171v1427z" />
    <glyph glyph-name="or_halant" unicode="&#xb4d;" 
d="M-318 -68h193l301 -425h-209z" />
    <glyph glyph-name="or_ai_lengthmk" unicode="&#xb56;" 
d="M-1105 1660q42 -38 89 -56.5t92 -18.5q22 0 63.5 9.5t93 23.5t108.5 30t109 30t95 23.5t67 9.5q54 0 101.5 -19.5t83 -53t56 -78t20.5 -95.5v-174h-171v174q0 32 -25.5 55t-64.5 23q-28 0 -71 -9.5t-94 -23.5t-105 -30t-104.5 -30t-92.5 -23.5t-69 -9.5
q-75 0 -148.5 27.5t-137.5 81.5z" />
    <glyph glyph-name="or_au_lengthmk" unicode="&#xb57;" horiz-adv-x="413" 
d="M106 1427q0 22 -10.5 42.5t-28 35.5t-41 24t-48.5 9q-20 0 -56 -6t-80 -15.5t-92.5 -20t-93 -20t-81.5 -15.5t-58 -6q-94 0 -176.5 27.5t-146.5 80.5l89 130q133 -77 234 -77q55 0 112 13.5t114.5 30t116.5 30.5t118 14q60 0 114 -22t95.5 -59.5t65.5 -88t24 -107.5
v-1427h-171v1427z" />
    <glyph glyph-name="or_rra" unicode="&#xb5c;" horiz-adv-x="1275" 
d="M222 806q0 -32 6 -62.5t18 -56t30 -45t42 -29.5q26 43 74 82.5t101 64.5l89 -139q-83 -48 -128.5 -119.5t-45.5 -150.5q0 -44 16 -82.5t43.5 -68t64.5 -46.5t79 -17q41 0 77.5 12t64.5 32.5t44 48t16 58.5q0 17 -6 33t-16.5 28.5t-23.5 21t-28 11.5l-132 -141l-119 109
l330 366l124 -106l-85 -94q28 -13 52.5 -36t41.5 -53t27 -65.5t10 -73.5q0 -65 -30 -121.5t-81.5 -99.5t-120 -67.5t-145.5 -24.5q-78 0 -146.5 29.5t-119.5 80.5t-81 119.5t-30 146.5q0 39 3.5 64.5t9.5 45.5q-46 20 -83 55t-62.5 80.5t-39.5 99t-14 110.5q0 73 21.5 141.5
t59.5 128.5t92 109.5t119 85.5t139.5 55.5t153.5 19.5q120 0 226.5 -43.5t187 -117.5t127 -172t46.5 -207q0 -128 -80 -261l-154 87q59 104 59 174q0 76 -32 144.5t-87.5 120.5t-129 82.5t-156.5 30.5q-86 0 -162 -30.5t-133 -82.5t-90 -120.5t-33 -144.5zM476 -265
q0 28 10 52.5t28 42.5t42 28t52 10q27 0 51 -10t42 -28t28 -42.5t10 -52.5q0 -27 -10 -51t-28 -42t-42 -28t-51 -10q-28 0 -52 10t-42 28t-28 42t-10 51z" />
    <glyph glyph-name="or_rha" unicode="&#xb5d;" horiz-adv-x="1276" 
d="M224 806q0 -64 23 -114.5t67 -73.5q27 45 65.5 79.5t81.5 60.5l116 -118q-75 -54 -118.5 -127.5t-43.5 -148.5q0 -44 17.5 -83.5t48 -68.5t71.5 -46t87 -17h15.5t13.5 1q-53 46 -83 104t-30 126q0 54 20 102t54 84t80 57t98 21q54 0 102 -21t83.5 -57t56.5 -84t21 -102
q0 -66 -31 -127t-88 -115l91 -72l-106 -125l-116 89q-40 -25 -84 -36.5t-97 -11.5q-81 0 -153.5 29.5t-127 81t-86.5 121.5t-32 150q0 65 10 96q-47 21 -84.5 56t-63 80.5t-39 99t-13.5 110.5q0 73 21 141.5t59.5 128.5t92.5 109.5t119 85.5t139.5 55.5t153.5 19.5
q120 0 226.5 -43.5t187 -117.5t127 -172t46.5 -207q0 -128 -80 -261l-154 87q59 104 59 174q0 76 -32 144.5t-87.5 120.5t-129 82.5t-156.5 30.5q-86 0 -162 -30.5t-133 -82.5t-90 -120.5t-33 -144.5zM899 380q0 20 -7 37.5t-19.5 31t-29.5 21t-36 7.5q-17 0 -32.5 -7.5
t-27 -21t-18.5 -31t-7 -37.5q0 -40 26 -78t71 -73q36 30 58 68.5t22 82.5zM502 -265q0 28 10 52.5t28 42.5t42 28t52 10q27 0 51 -10t42 -28t28 -42.5t10 -52.5q0 -27 -10 -51t-28 -42t-42 -28t-51 -10q-28 0 -52 10t-42 28t-28 42t-10 51z" />
    <glyph glyph-name="or_yya" unicode="&#xb5f;" horiz-adv-x="1373" 
d="M328 301q0 30 6 57q-22 -11 -42.5 -24t-34.5 -28q20 -17 30 -44t10 -62q0 -23 -10 -43t-27 -35t-39.5 -24t-48.5 -9q-27 0 -51.5 12.5t-44 33.5t-31 47.5t-11.5 55.5q0 37 18 74t49 71t73 64.5t90 56.5q-40 27 -72.5 65t-55 84.5t-34.5 99t-12 108.5q0 98 40.5 186
t109.5 154.5t161.5 105.5t197.5 39q113 0 205.5 -43.5t153.5 -113.5v100h171v-791q38 -9 69 -29.5t53 -48.5t34 -62t12 -70q0 -56 -20 -100t-48 -73l114 -57l-87 -141l-290 156q37 22 68 48.5t53.5 54.5t35.5 56.5t13 55.5q0 14 -7.5 26t-20 20.5t-28.5 13.5t-32 5
q-53 0 -83.5 -37.5t-46.5 -107.5q-12 -52 -36 -95t-60.5 -73.5t-85 -47.5t-109.5 -17q-62 0 -116.5 26t-95 70.5t-64 104t-23.5 125.5zM779 288q10 47 29 84t43.5 63.5t52 42.5t54.5 21v332q0 70 -28.5 134t-77.5 112.5t-114.5 77.5t-138.5 29q-69 0 -130.5 -26.5t-107 -71
t-72.5 -103t-27 -122.5q0 -45 12 -86.5t34 -76.5t52 -62t66 -43l222 144l105 -140l-149 -89q-48 -29 -74.5 -83.5t-26.5 -123.5q0 -34 10 -63.5t27 -52t40 -35.5t49 -13q33 0 58 12t43 32.5t30 48t19 58.5z" />
    <glyph glyph-name="or_rru" unicode="&#xb60;" horiz-adv-x="1354" 
d="M224 818q0 -42 9.5 -78.5t25.5 -66t36.5 -51t42.5 -33.5q43 49 104.5 75t132.5 26q70 0 132 -28.5t108.5 -78t73 -116t26.5 -141.5q0 -71 -26.5 -134.5t-73 -111.5t-108.5 -76.5t-132 -28.5t-131.5 28.5t-107.5 76.5t-73 111.5t-27 134.5q0 32 5.5 65.5t13.5 59.5
q-42 26 -79.5 65t-65.5 86.5t-44 102.5t-16 113q0 107 46.5 203t125.5 168t183 114.5t220 42.5q126 0 233 -44.5t185 -121.5t122 -180t44 -220q0 -56 -16.5 -102.5t-46.5 -81.5q29 -24 46 -55t17 -63q0 -23 -6.5 -42t-30.5 -38q16 -11 31.5 -25.5t28 -31.5t20 -36.5
t7.5 -40.5q0 -38 -17.5 -73.5t-49.5 -59.5l149 -212l-124 -106l-268 387q28 0 53 5t43.5 13.5t29 20t10.5 25.5q0 19 -8.5 36.5t-23.5 31.5t-35 22.5t-42 8.5v7q15 5 26 18t18 28.5t10.5 32t3.5 29.5q0 26 -30.5 50.5t-87.5 39.5q62 51 90 106t28 106q0 91 -35 165.5
t-92.5 127.5t-131 82t-150.5 29q-79 0 -151.5 -30.5t-128 -81.5t-88.5 -117t-33 -137zM741 328q0 39 -13 75.5t-35.5 65t-53 45.5t-64.5 17t-63.5 -17t-52 -45.5t-35.5 -65t-13 -75.5t13 -73.5t35.5 -60.5t52 -41.5t63.5 -15.5t64.5 16t53 42t35.5 60.5t13 72.5z" />
    <glyph glyph-name="or_llu" unicode="&#xb61;" horiz-adv-x="1127" 
d="M768 1026q0 32 -14.5 60.5t-40 50.5t-60.5 34.5t-75 12.5q-39 0 -74 -14t-61 -38t-41 -55.5t-15 -67.5h-174q0 67 29 128.5t79 107.5t116 73.5t141 27.5t141 -26t115.5 -70.5t78.5 -102.5t29 -121q0 -74 -31.5 -130t-83 -99.5t-117 -76.5t-134 -62t-134 -56.5t-117 -59
t-83 -70.5t-31.5 -90q0 -41 22 -76.5t60 -63.5t89 -45t110 -20q4 73 33.5 137t76.5 111t109 74.5t132 27.5q52 0 97.5 -18t79.5 -49t53.5 -72t19.5 -87q0 -59 -34 -112t-91.5 -93.5t-134.5 -65.5t-164 -29q14 -56 63 -130.5t130 -161.5l-120 -123q-108 112 -172 218t-77 196
q-94 4 -177 35t-145 81.5t-98 117.5t-36 143t31.5 134t83 103.5t117 80.5t134 65t134 58t117 58.5t83 66.5t31.5 83zM920 301q0 22 -22.5 37t-54.5 15q-35 0 -66 -13.5t-54.5 -37.5t-38.5 -56.5t-18 -71.5q53 2 99 12.5t80.5 27.5t54.5 39t20 48z" />
    <glyph glyph-name="or_zero" unicode="&#xb66;" horiz-adv-x="1393" 
d="M230 654q0 93 36.5 175.5t100 144t148 97t180.5 35.5t180.5 -35.5t147.5 -97t99.5 -144t36.5 -175.5t-36.5 -175t-99.5 -143.5t-147.5 -97.5t-180.5 -36t-180.5 36t-148 97.5t-100 143.5t-36.5 175zM986 654q0 60 -23 113.5t-62.5 93t-92.5 62.5t-113 23t-113 -23
t-92.5 -62.5t-63 -93t-23.5 -113.5t23.5 -112.5t63 -92.5t92.5 -63t113 -23t113 23t92.5 63t62.5 92.5t23 112.5z" />
    <glyph glyph-name="or_one" unicode="&#xb67;" horiz-adv-x="1393" 
d="M326 944q0 80 29 152.5t79.5 128t117.5 88.5t144 33q75 0 141.5 -31t116 -82.5t78.5 -119.5t29 -143t-29 -141.5t-78.5 -116t-116 -78t-141.5 -28.5q-43 0 -79.5 9t-70.5 29q24 -84 68.5 -162t107 -146.5t141.5 -125.5t171 -100l-89 -142q-141 67 -255.5 169.5
t-195.5 230t-124.5 274t-43.5 302.5zM887 970q0 42 -15 80.5t-41 68.5t-61 47.5t-74 17.5t-73.5 -19t-60.5 -50.5t-41 -72.5t-15 -84q0 -39 15 -74t41 -61t60.5 -41t73.5 -15t74 16t61 44t41 65t15 78z" />
    <glyph glyph-name="or_two" unicode="&#xb68;" horiz-adv-x="1393" 
d="M1059 944q0 -155 -44 -302t-125.5 -274.5t-196 -230t-255.5 -169.5l-89 142q93 43 172.5 100t142 125t106.5 146t67 163q-34 -20 -70 -29t-80 -9q-75 0 -141 28.5t-115.5 78t-78 116t-28.5 141.5t28.5 143t78 119.5t115.5 82.5t141 31q77 0 144.5 -33t118 -88.5t80 -128
t29.5 -152.5zM496 970q0 -41 15 -78t41.5 -65t61 -44t73.5 -16t73.5 15t60.5 41t41 61t15 74q0 43 -15 84t-41 72.5t-60.5 50.5t-73.5 19t-73.5 -17.5t-61 -47.5t-41.5 -68.5t-15 -80.5z" />
    <glyph glyph-name="or_three" unicode="&#xb69;" horiz-adv-x="1460" 
d="M663 957q0 46 -15.5 87t-40 72t-54 49.5t-57.5 18.5q-40 0 -79.5 -27t-70.5 -72.5t-50 -105t-19 -123.5q0 -48 10.5 -91.5t28 -76.5t39.5 -52.5t46 -19.5q18 0 33.5 15t15.5 35q0 30 -19.5 53.5t-61.5 31.5l39 145q42 -5 79 -26t65.5 -52.5t45 -70.5t16.5 -81
q0 -46 -16.5 -87t-45.5 -71.5t-68 -48.5t-83 -18q-60 0 -114 33t-95 90t-65 132.5t-24 159.5q0 98 33.5 186.5t89 156t126.5 107.5t147 40q78 0 138.5 -40.5t110.5 -103.5q21 33 49 59.5t60.5 45.5t67.5 29t71 10q68 0 128.5 -27t105.5 -73t71.5 -107.5t26.5 -131.5v-1007
h-171v1007q0 36 -12.5 68t-34 56t-50 38.5t-59.5 14.5q-34 0 -64.5 -18t-53 -48.5t-36 -72t-13.5 -88.5v-957h-171v957z" />
    <glyph glyph-name="or_four" unicode="&#xb6a;" horiz-adv-x="1393" 
d="M317 339q0 64 18 128t51.5 123t81 110.5t105.5 90.5q-110 73 -222 205.5t-221 323.5l173 69q37 -79 82.5 -152t99 -136.5t113 -116.5t124.5 -91q91 54 189 172.5t202 298.5l158 -70q-102 -174 -203 -300.5t-203 -203.5q60 -45 108 -99t81 -111t50.5 -115.5t17.5 -112.5
q0 -87 -33 -157t-88.5 -118.5t-128.5 -75t-153 -26.5q-82 0 -155 29t-128 78.5t-87 115.5t-32 141zM947 351q0 43 -15 89.5t-44.5 91t-72 85t-97.5 71.5q-49 -26 -90.5 -64.5t-72 -85t-48 -97.5t-17.5 -102q0 -42 18.5 -79t49.5 -64t72.5 -43t88.5 -16t88.5 17t72.5 46.5
t49 68t18 82.5z" />
    <glyph glyph-name="or_five" unicode="&#xb6b;" horiz-adv-x="1392" 
d="M269 314q0 40 15 81.5t42.5 81.5t67 78t87.5 71q-91 44 -184.5 135t-187.5 227l141 106q56 -96 108.5 -163t107.5 -108q-23 41 -34 84.5t-11 87.5q0 70 28 133.5t75.5 112t111.5 77t136 28.5q70 0 131.5 -30t107.5 -80.5t73 -116t27 -137.5q0 -41 -14.5 -82t-41.5 -81
t-65.5 -77.5t-86.5 -70.5q49 -21 94.5 -49t90 -67t90 -90t95.5 -118l-143 -106q-44 78 -90.5 135t-94.5 94q26 -51 39.5 -95.5t13.5 -86.5q0 -65 -29 -121.5t-78.5 -99.5t-115.5 -67.5t-141 -24.5t-141.5 27t-116 73t-78.5 107.5t-29 131.5zM825 288q0 78 -35 148.5
t-98 117.5q-54 -17 -99.5 -42.5t-78.5 -57.5t-51.5 -68t-18.5 -72t15 -68.5t41 -56.5t60.5 -38t73.5 -14t73.5 12t61 32.5t41.5 48t15 58.5zM937 982q0 39 -13 75t-35.5 64.5t-52.5 45.5t-64 17q-36 0 -68 -16t-56.5 -42t-38.5 -60t-14 -71q0 -60 34.5 -120.5t97.5 -116.5
q47 23 86 50.5t66.5 57t42.5 59.5t15 57z" />
    <glyph glyph-name="or_six" unicode="&#xb6c;" horiz-adv-x="1393" 
d="M145 0v174h201q95 0 185.5 22.5t170.5 64t146.5 100.5t115 132t75.5 158.5t27 179.5q0 70 -23 134t-62.5 112.5t-93 77.5t-113.5 29q-39 0 -73.5 -12t-60.5 -31.5t-41.5 -44.5t-15.5 -52q0 -26 17 -47.5t42.5 -41.5t55 -40t55 -43.5t42.5 -52t17 -64.5q0 -58 -25.5 -108
t-68.5 -87.5t-100 -59t-121 -21.5q-50 0 -98.5 16.5t-93.5 47t-85 73.5t-71 96l140 88q53 -76 107 -118t101 -42q28 0 53.5 8t44.5 22t30.5 32.5t11.5 40.5q0 21 -16.5 38t-42 34t-54.5 36t-54.5 45.5t-42 63t-16.5 86.5q0 60 29.5 114.5t79 96t115.5 65.5t139 24
q96 0 181 -42t148.5 -112.5t100 -164t36.5 -196.5q0 -120 -34 -228t-94.5 -200t-144 -166.5t-182.5 -127t-210.5 -81t-228.5 -28.5h-201z" />
    <glyph glyph-name="or_seven" unicode="&#xb6d;" horiz-adv-x="1393" 
d="M139 -25v162h149q99 0 196 22.5t184.5 64.5t161.5 102t128 136t84.5 165.5t30.5 190.5q0 73 -31.5 139.5t-86 116.5t-127 80t-154.5 30q-74 0 -139.5 -27t-115 -73t-78.5 -106t-29 -126q0 -9 0.5 -18t2.5 -20q35 61 92.5 95t127.5 34q56 0 105.5 -19.5t86 -53.5t57.5 -80
t21 -98t-21 -98t-57 -80t-84 -53.5t-102 -19.5q-83 0 -156 32.5t-127.5 88.5t-86.5 130.5t-32 159.5q0 99 42.5 188.5t115.5 157.5t170 108t207 40q118 0 222 -42.5t182 -115t123 -168.5t45 -202q0 -125 -37.5 -236.5t-104 -205t-157 -168t-197 -126.5t-224.5 -79.5
t-238 -27.5h-149zM631 692q0 16 -7.5 30t-21 24.5t-31 16.5t-36.5 6q-45 0 -77.5 -32t-46.5 -81q14 -25 49.5 -39t80.5 -14q38 0 64 25.5t26 63.5z" />
    <glyph glyph-name="or_eight" unicode="&#xb6e;" horiz-adv-x="1393" 
d="M234 1291h893v-161h-719v-1130h-174v1291z" />
    <glyph glyph-name="or_nine" unicode="&#xb6f;" horiz-adv-x="1392" 
d="M273 705q0 82 22 166.5t62.5 164.5t99 152.5t132.5 130.5h33l319 -331v331h174v-653q0 -14 -18 -25t-41 -11l-457 475q-38 -37 -66 -83t-47 -98t-28.5 -107.5t-9.5 -111.5q0 -103 38.5 -193t104.5 -163.5t155 -129.5t190 -92l-70 -159q-116 41 -223 113.5t-189.5 168.5
t-131.5 212t-49 243z" />
    <glyph glyph-name="or_isshar" unicode="&#xb70;" horiz-adv-x="1253" 
d="M126 950l165 60l273 -578l403 842l151 -53l-522 -1120h-69zM470 1049l118 124l120 -124l-120 -124z" />
    <glyph glyph-name="or_wa" unicode="&#xb71;" horiz-adv-x="1113" 
d="M595 369q-65 0 -116 8.5t-89 27.5v-15q0 -40 13 -74.5t38 -60t61.5 -40t83.5 -14.5q49 0 86 16.5t61.5 43t37 60.5t12.5 69v12q-51 -19 -95.5 -26t-92.5 -7zM54 847q0 130 55 243t154 209l127 -92q-75 -75 -118 -165t-43 -195q0 -68 28.5 -126.5t78 -101.5t116 -67.5
t143.5 -24.5q56 0 104.5 13t84.5 35t56.5 52t20.5 64q0 25 -9.5 43.5t-25 32t-35 22t-39.5 12.5q-35 -20 -85 -37.5t-108 -30.5l-60 129q69 21 126.5 47.5t99 55.5t64 61t22.5 64q0 18 -9.5 35t-25 30t-36.5 21t-44 8q-29 0 -51 -10t-36 -26.5t-21 -37.5t-7 -42
q0 -4 3.5 -12.5t7 -19t7 -21.5t3.5 -20q0 -28 -22.5 -48t-54.5 -20q-23 0 -44.5 11t-38 30.5t-26 45t-9.5 54.5q0 55 23.5 105t63.5 88.5t92.5 61.5t109.5 23q59 0 111.5 -20.5t92 -54t62.5 -77.5t23 -92q0 -23 -7 -48t-19.5 -50t-30 -48.5t-37.5 -42.5q144 -65 144 -214
q0 -37 -7 -68t-18.5 -56t-26 -44.5t-29.5 -32.5v-498h-171v101q-40 -29 -92 -46t-111 -17q-81 0 -148 25.5t-115 71.5t-75 111t-27 144q0 51 18 101q-88 69 -133.5 161t-45.5 195z" />
    <glyph glyph-name="zerowidthnonjoiner" unicode="&#x200c;" 
d="M-53 1981h106v-2629h-106v2629z" />
    <glyph glyph-name="zerowidthjoiner" unicode="&#x200d;" 
d="M53 1535v-2183h-107v2183l-201 -202l-74 73l256 252l-256 250l74 73l255 -255l250 255l74 -73l-253 -250l252 -252l-73 -73z" />
    <glyph glyph-name="glyph139" unicode="&#x2212;" horiz-adv-x="689" 
d="M14 726h661v-141h-661v141z" />
    <glyph glyph-name="dottedcircle" unicode="&#x25cc;" horiz-adv-x="1486" 
d="M743 1374q19 0 36.5 -7.5t30 -20.5t20 -30.5t7.5 -37.5q0 -19 -7.5 -36t-20 -30t-30 -20.5t-36.5 -7.5q-20 0 -37.5 7.5t-30 20.5t-20 30t-7.5 36q0 40 27.5 68t67.5 28zM743 137q19 0 36.5 -7.5t30 -20.5t20 -30t7.5 -36q0 -20 -7.5 -37.5t-20 -30.5t-30 -20.5
t-36.5 -7.5q-40 0 -67.5 28t-27.5 68q0 19 7.5 36t20 30t30 20.5t37.5 7.5zM124 756q40 0 67.5 -28t27.5 -68t-27.5 -67.5t-67.5 -27.5q-20 0 -37 7.5t-29.5 20t-20 30t-7.5 37.5t7.5 37.5t20 30.5t29.5 20.5t37 7.5zM1361 756q40 0 67.5 -28t27.5 -68t-27.5 -67.5
t-67.5 -27.5t-68 27.5t-28 67.5t28 68t68 28zM209 446q40 0 67.5 -27.5t27.5 -67.5q0 -20 -7.5 -37t-20 -29.5t-30 -20t-37.5 -7.5t-37.5 7.5t-30 20t-20 29.5t-7.5 37q0 40 27.5 67.5t67.5 27.5zM1278 1064q20 0 37.5 -7.5t30.5 -20t20.5 -30t7.5 -36.5q0 -40 -28 -67.5
t-68 -27.5q-19 0 -36 7.5t-30 20t-20.5 30t-7.5 37.5q0 19 7.5 36.5t20.5 30t30 20t36 7.5zM1051 1291q20 0 37.5 -7.5t30.5 -20t20.5 -30t7.5 -36.5q0 -40 -28 -67.5t-68 -27.5t-67.5 27.5t-27.5 67.5q0 19 7.5 36.5t20 30t30 20t37.5 7.5zM433 222q40 0 68 -28t28 -68
t-28 -68t-68 -28t-67.5 28t-27.5 68t27.5 68t67.5 28zM209 1064q20 0 37.5 -7.5t30 -20t20 -30t7.5 -36.5q0 -40 -27.5 -67.5t-67.5 -27.5t-67.5 27.5t-27.5 67.5q0 19 7.5 36.5t20 30t30 20t37.5 7.5zM1278 446q40 0 68 -27.5t28 -67.5q0 -20 -7.5 -37t-20.5 -29.5
t-30.5 -20t-37.5 -7.5q-19 0 -36 7.5t-30 20t-20.5 29.5t-7.5 37t7.5 37.5t20.5 30t30 20t36 7.5zM433 1291q20 0 37.5 -7.5t30.5 -20t20.5 -30t7.5 -36.5q0 -40 -28 -67.5t-68 -27.5t-67.5 27.5t-27.5 67.5q0 19 7.5 36.5t20 30t30 20t37.5 7.5zM1051 222q40 0 68 -28
t28 -68t-28 -68t-68 -28t-67.5 28t-27.5 68t27.5 68t67.5 28z" />
    <glyph glyph-name="or_k_ka" horiz-adv-x="1287" 
d="M811 95q-10 -3 -22.5 -4.5t-23.5 -1.5q-41 0 -76.5 14.5t-62.5 40t-44.5 60t-20.5 75.5h-78v107q-12 -3 -26 -5.5t-25 -2.5q-50 0 -92 18.5t-72 51t-46.5 76.5t-16.5 100q-76 33 -119.5 102t-43.5 155q0 96 44.5 180.5t120.5 148.5t178 101t217 37q76 0 148 -17t136 -48
t117 -74t91.5 -94.5t60 -111t21.5 -122.5q0 -69 -30.5 -140.5t-88.5 -140.5l-142 86q88 106 88 195q0 60 -33 115t-88.5 97.5t-128 67.5t-151.5 25t-149 -25t-123 -67t-84 -97.5t-31 -115.5q0 -36 16.5 -63t36.5 -39q25 30 66 52.5t98 22.5q51 0 87.5 -17t62.5 -45
q23 26 51 38t58 12q40 0 75 -17.5t61.5 -47.5t41.5 -69.5t15 -82.5v-146q5 -4 9 -7t8 -7q20 16 51 26.5t66 10.5q40 0 75.5 -16t61.5 -43.5t41.5 -63.5t15.5 -76v-328h-171v326q0 16 -8 27.5t-22 11.5q-12 0 -20.5 -11.5t-8.5 -27.5v-326h-171v120zM824 301q0 27 -15.5 46
t-36.5 19q-22 0 -37 -19t-15 -46q0 -26 15 -44.5t37 -18.5q21 0 36.5 18.5t15.5 44.5zM495 615q0 32 -18.5 54.5t-44.5 22.5q-27 0 -46 -22.5t-19 -54.5q0 -33 18.5 -54.5t44.5 -21.5t45.5 21.5t19.5 54.5zM710 628q0 17 -7.5 28.5t-18.5 11.5t-19 -11t-8 -27v-149
q12 8 25.5 13.5t27.5 10.5v123z" />
    <glyph glyph-name="or_k_ta" horiz-adv-x="1370" 
d="M399 113q54 -32 117.5 -42.5t134.5 -10.5q65 0 125.5 10t112.5 29t93.5 46t68.5 61q-85 14 -128 70.5t-43 137.5q0 74 34.5 122t95.5 72q18 38 32 90.5t14 119.5q0 73 -34.5 139.5t-91.5 116.5t-130.5 80t-151.5 30q-86 0 -163.5 -26.5t-136 -71.5t-93.5 -104.5
t-35 -125.5q0 -35 11.5 -69t29.5 -60q24 19 56 29.5t69 10.5q38 0 70 -13t55 -36q23 23 56.5 36t70.5 13q41 0 77.5 -17t64 -46t43.5 -67.5t16 -82.5v-382h-161v382q0 21 -14 36.5t-26 15.5q-11 0 -25 -15.5t-14 -36.5v-382h-161v128q-28 -10 -57 -10q-46 0 -86.5 19
t-70.5 51.5t-47 76t-17 92.5q0 18 1.5 34t6.5 31q-58 38 -89.5 107.5t-31.5 154.5q0 99 48.5 187.5t131 156t191.5 107t230 39.5q76 0 148.5 -19.5t137 -54.5t119 -84t94 -107.5t61.5 -125t22 -137.5q0 -57 -13.5 -113.5t-33.5 -102.5q58 -17 90.5 -68.5t32.5 -123.5
q0 -107 -51.5 -200t-141 -162t-208.5 -109t-254 -40q-71 0 -147 10t-161 40zM451 529q0 37 -21 63.5t-51 26.5q-29 0 -49.5 -26t-20.5 -64q0 -18 5.5 -34.5t15 -29t22 -20t27.5 -7.5q31 0 51.5 27t20.5 64zM1151 414q0 22 -17.5 37.5t-41.5 15.5t-40.5 -15.5t-16.5 -37.5
q0 -20 16.5 -35.5t40.5 -15.5t41.5 15.5t17.5 35.5z" />
    <glyph glyph-name="or_k_t_ra" horiz-adv-x="1410" 
d="M408 123q54 -32 118 -47.5t134 -15.5q65 0 125.5 10t112.5 29t93.5 46t68.5 61q-84 14 -127 70.5t-43 137.5q0 74 34 122t95 72q18 38 32 90.5t14 119.5q0 73 -36 140t-94.5 118t-133.5 81t-153 30q-86 0 -163.5 -27t-136 -72.5t-93.5 -105.5t-35 -126q0 -35 12 -69
t29 -60q24 19 56 29.5t69 10.5q38 0 70 -13t55 -36q23 23 56.5 36t70.5 13q41 0 77.5 -17t64 -46t43.5 -67.5t16 -82.5v-372h-161v372q0 21 -14 36.5t-26 15.5q-11 0 -25 -15.5t-14 -36.5v-372h-161v118q-28 -10 -57 -10q-46 0 -86 19t-70 51.5t-47.5 76t-17.5 92.5
q0 18 1.5 34t6.5 31q-58 38 -89 107.5t-31 154.5q0 99 48.5 188t130.5 157t191 108t230 40q76 0 149 -19.5t139 -55t121.5 -85t96 -108.5t63.5 -125.5t23 -137.5q0 -57 -13.5 -113.5t-34.5 -102.5q59 -17 91 -68.5t32 -123.5q0 -113 -55 -211v-597h-1003v161h832v259
q-183 -123 -429 -123q-139 0 -307 60zM451 529q0 37 -21 63.5t-51 26.5q-28 0 -49 -26t-21 -64q0 -37 20.5 -64t49.5 -27q31 0 51.5 27t20.5 64zM1161 414q0 22 -17.5 37.5t-42.5 15.5q-23 0 -40 -15.5t-17 -37.5q0 -20 17 -35.5t40 -15.5q25 0 42.5 15.5t17.5 35.5z" />
    <glyph glyph-name="or_k_va" horiz-adv-x="1333" 
d="M559 314q-20 -8 -42.5 -13t-48.5 -5q-54 0 -101.5 20.5t-83.5 56.5t-57 83.5t-21 101.5q0 16 1.5 30t6.5 29q-40 18 -71.5 45.5t-53.5 62.5t-34 75.5t-12 82.5q0 103 45 189.5t126 149t194.5 97.5t250.5 35q132 0 244 -35t193.5 -97.5t127.5 -149t46 -189.5
q0 -71 -22.5 -133t-75.5 -109l-143 71q39 48 53 90t14 81q0 63 -35.5 119t-95.5 98t-139 66.5t-167 24.5q-93 0 -173.5 -24.5t-140.5 -66.5t-94.5 -98t-34.5 -119q0 -25 6.5 -48t17 -40.5t25 -28t31.5 -10.5q35 32 79 49t94 17q52 0 98.5 -18.5t78.5 -52.5q62 71 152 71
q49 0 92.5 -17.5t75.5 -48.5t51 -72t19 -87v-383h-111q-18 -26 -18 -59q0 -29 24.5 -49.5t58.5 -20.5q35 0 59 20t24 48v172h171v-478h-171v76q-17 -7 -37 -9.5t-46 -2.5q-51 0 -95.5 19t-77.5 52t-52 77.5t-19 95.5q0 57 22 110t60 91l37 -20v261q0 24 -20.5 41t-46.5 17
q-27 0 -47.5 -17t-20.5 -41v-383h-170v100zM559 579q0 32 -26.5 54t-64.5 22t-63.5 -30.5t-25.5 -73.5q0 -21 7 -40t19 -33t28 -22.5t35 -8.5q38 0 64.5 23t26.5 56v53z" />
    <glyph glyph-name="or_k_lla" horiz-adv-x="1362" 
d="M559 214v100q-20 -8 -42.5 -13t-48.5 -5q-54 0 -101.5 20.5t-83 56.5t-56.5 83.5t-21 101.5q0 16 1 30t6 29q-40 18 -71.5 45.5t-53.5 62.5t-33.5 75.5t-11.5 82.5q0 103 45 188t126 146.5t194 95.5t250 34q132 0 244.5 -34t194 -95.5t127.5 -146.5t46 -188
q0 -71 -23 -133t-76 -109l-143 71q40 48 53.5 90t13.5 81q0 63 -35.5 117.5t-95.5 95.5t-139 64.5t-167 23.5q-92 0 -173 -23.5t-141 -64.5t-94.5 -95.5t-34.5 -117.5q0 -25 6.5 -48t17.5 -40.5t25.5 -28t30.5 -10.5q35 32 79 49t94 17q52 0 99 -18.5t79 -52.5q62 71 152 71
q49 0 92 -17.5t75 -48.5t51 -72t19 -87v-268q14 5 30.5 8.5t32.5 3.5q42 0 79 -15t64 -41.5t42.5 -61t15.5 -73.5v-244h-171v241q0 19 -10 32t-32 13q-20 0 -33.5 -13t-13.5 -32v-241h-171v241q0 19 -14 32t-33 13q-17 0 -29 -13t-12 -32v-241h-171v241q0 39 11 67h-61z
M730 324q18 8 38 12.5t43 4.5q27 0 53 -8v264q0 24 -20 41t-46 17q-28 0 -48 -17t-20 -41v-273zM559 579q0 32 -26 54t-65 22q-18 0 -34 -8t-28 -22.5t-19 -33.5t-7 -40t7 -40t19 -33t28 -22.5t34 -8.5q39 0 65 23t26 56v53z" />
    <glyph glyph-name="or_k_ssa" horiz-adv-x="1370" 
d="M394 301v21t1 19q-40 -35 -72.5 -66.5t-46.5 -50.5q17 -13 28.5 -32.5t11.5 -41.5q0 -23 -10 -43.5t-27 -35.5t-39.5 -24t-48.5 -9t-49 10t-40 27t-26.5 41t-9.5 53q0 65 55 133.5t158 143.5q-46 20 -83 53.5t-63.5 77t-40.5 95.5t-14 108q0 76 22.5 147.5t63 134.5
t97.5 115.5t125.5 90t147 58t162.5 20.5q49 0 99.5 -13.5t98.5 -35.5t90.5 -51.5t75.5 -60.5v104h171v-1289h-171v122q-29 -32 -66 -59t-78 -46.5t-84.5 -30.5t-85.5 -11q-72 0 -136 26t-112 70.5t-76 104t-28 125.5zM766 613l-149 -119q-30 -24 -46 -69.5t-16 -111.5
q0 -37 15 -69t40.5 -56t60.5 -37.5t75 -13.5q42 0 84 16t80.5 44.5t69.5 69t50 90.5zM662 722l-307 325q-22 -21 -41 -51t-32.5 -65.5t-21 -74t-7.5 -76.5q0 -45 14 -85.5t39 -71.5t58 -50t72 -20zM1060 876q-14 69 -51 125.5t-89 97t-114 63t-125 22.5q-57 0 -113 -10.5
t-98 -35.5l590 -601v339z" />
    <glyph glyph-name="or_k_ss_nna" horiz-adv-x="1356" 
d="M44 408q0 72 57 141t157 125q-37 17 -67 45.5t-51.5 64.5t-33 78.5t-11.5 88.5q0 79 39.5 150.5t106 126t155 86.5t187.5 32q51 0 97 -9t86.5 -23.5t74.5 -34t61 -40.5v52h171v-906q14 -3 30 -8.5t30 -11.5v73h171v-577h-171v327q0 10 -7.5 21t-21 20t-31.5 14.5t-39 5.5
q-8 0 -17.5 -3.5t-16.5 -10t-17 -20.5l57 -26l-69 -100q-16 16 -31 25.5t-26.5 14t-21.5 6t-20 1.5q-14 0 -32 -5.5t-33 -15.5t-24.5 -24.5t-9.5 -32.5q17 7 36 12t41 5q41 0 77.5 -11.5t64 -33t43.5 -52t16 -68.5q0 -35 -15 -64t-40.5 -51t-59.5 -34t-73 -12
q-52 0 -97.5 20.5t-79.5 56.5t-53.5 83.5t-19.5 101.5q0 50 15.5 93t45 75t71.5 53t95 28q4 33 20 57.5t42 37.5v35q-61 -44 -127 -65.5t-126 -21.5q-63 0 -115 18t-91 50t-63 77.5t-31 100.5q-36 -22 -61.5 -46.5t-39.5 -48.5q11 -19 16 -36.5t5 -27.5q0 -24 -9.5 -42.5
t-24.5 -31t-34.5 -19.5t-38.5 -7q-54 0 -86 33t-32 85zM914 -83q0 16 -16.5 27.5t-42.5 11.5t-41.5 -11.5t-15.5 -27.5t15.5 -27.5t41.5 -11.5t42.5 11.5t16.5 27.5zM699 751l-138 -77q-36 -23 -51 -40t-15 -41q0 -29 11.5 -55t32 -45t49 -30t61.5 -11q83 0 142.5 32.5
t101.5 82.5zM589 856l-249 254q-35 -26 -58.5 -67.5t-23.5 -89.5q0 -42 12.5 -75t34 -56.5t50 -37.5t61.5 -20zM583 1184q-31 0 -57 -1t-46 -5l422 -418v193q0 39 -22.5 80t-64 74.5t-100.5 55t-132 21.5z" />
    <glyph glyph-name="or_k_ss_ma" horiz-adv-x="1364" 
d="M1041 342q-60 -55 -138 -84t-165 -29q-75 0 -141.5 23t-116 62t-78 91t-28.5 111q-13 -8 -24 -14.5t-23 -14t-25 -17t-27 -23.5q13 -13 22.5 -34t9.5 -44q0 -20 -9.5 -37.5t-26 -30.5t-39.5 -21t-49 -8t-49 10t-40 27t-26.5 40t-9.5 49q0 44 47.5 98.5t132.5 110.5
q-38 17 -69 45t-53 64.5t-34 79.5t-12 90q0 60 20.5 117t58 108.5t89.5 94.5t114.5 74t133.5 48.5t146 17.5q134 0 233.5 -37.5t175.5 -102.5v107h171v-1489h-166v265q-48 -5 -86 -15.5t-69 -25.5q55 -52 55 -143q0 -38 -16 -71.5t-43.5 -58t-64 -39t-78.5 -14.5
q-39 0 -75.5 14t-64.5 39t-45 59t-17 73t13.5 74.5t37.5 64.5l-110 63l84 127l165 -89q66 35 146 60.5t163 37.5v97zM764 751q-39 -24 -76.5 -47t-75.5 -46q-36 -23 -50.5 -51t-14.5 -77q0 -31 15 -56.5t41 -43.5t61 -27.5t74 -9.5q41 0 81.5 12t77 33t66.5 50.5t51 64.5z
M1041 987q-36 40 -80 76t-95 63t-107.5 42.5t-118.5 15.5q-39 0 -74.5 -5.5t-61.5 -13.5l537 -443v265zM647 846l-292 245q-24 -16 -44.5 -38.5t-35.5 -49t-23 -56.5t-8 -61q0 -35 14.5 -66t40 -54t58.5 -37t71 -15zM793 -104q0 29 -14 52.5t-37 37.5q-51 -42 -51 -89
q0 -14 15 -25t35 -11q22 0 37 10.5t15 24.5z" />
    <glyph glyph-name="glyph149" horiz-adv-x="2136" 
d="M394 301v21t1 19q-40 -35 -72.5 -66.5t-46.5 -50.5q17 -13 28.5 -32.5t11.5 -41.5q0 -23 -10 -43.5t-27 -35.5t-39.5 -24t-48.5 -9t-49 10t-40 27t-26.5 41t-9.5 53q0 65 55 133.5t158 143.5q-46 20 -83 53.5t-63.5 77t-40.5 95.5t-14 108q0 76 22.5 147.5t63 134.5
t97.5 115.5t125.5 90t147 58t162.5 20.5q49 0 99.5 -13.5t98.5 -35.5t90.5 -51.5t75.5 -60.5v104h171v-1289h-171v122q-29 -32 -66 -59t-78 -46.5t-84.5 -30.5t-85.5 -11q-72 0 -136 26t-112 70.5t-76 104t-28 125.5zM766 613l-149 -119q-30 -24 -46 -69.5t-16 -111.5
q0 -37 15 -69t40.5 -56t60.5 -37.5t75 -13.5q42 0 84 16t80.5 44.5t69.5 69t50 90.5zM662 722l-307 325q-22 -21 -41 -51t-32.5 -65.5t-21 -74t-7.5 -76.5q0 -45 14 -85.5t39 -71.5t58 -50t72 -20zM1060 876q-14 69 -51 125.5t-89 97t-114 63t-125 22.5q-57 0 -113 -10.5
t-98 -35.5l590 -601v339zM1828 542q-44 -25 -103 -25q-57 0 -107 19.5t-88 53.5t-60 80t-22 98v511h171v-511q0 -18 8.5 -34.5t23 -29t34 -19.5t40.5 -7t40 7t33 19.5t22 29t8 34.5v511h171v-1279h-171v542z" />
    <glyph glyph-name="or_k_sa" horiz-adv-x="1318" 
d="M1035 -271h-149l-508 115l170 92q-26 7 -50.5 18t-44 27.5t-31.5 38t-12 48.5q0 44 26 81t71 64t104.5 42.5t125.5 15.5q35 0 67.5 -7.5t59.5 -21.5v374q0 24 -20.5 41t-46.5 17q-27 0 -47 -17t-20 -41v-315h-171v32q-20 -8 -42.5 -13t-48.5 -5q-54 0 -101.5 20.5
t-83.5 56.5t-57 84t-21 102q0 15 1.5 29t6.5 29q-40 18 -71.5 46t-53.5 63t-34 75t-12 82q0 103 46.5 185.5t129.5 140t197.5 88t251.5 30.5q132 0 243 -34t190.5 -95t124 -146t44.5 -188q0 -71 -18 -133t-70 -109l-144 71q20 24 31.5 46.5t17 43.5t7 41t1.5 40
q0 63 -34 117.5t-92 95t-135.5 64t-165.5 23.5q-92 0 -174.5 -20.5t-144 -57.5t-97.5 -89t-36 -114q0 -25 6.5 -48t17 -40.5t25 -28t31.5 -10.5q35 32 79 49t94 17q52 0 98.5 -18.5t78.5 -52.5q63 71 152 71q49 0 92.5 -17.5t75.5 -48.5t51 -72t19 -87v-887zM864 63
q-14 26 -48 41.5t-79 15.5q-31 0 -58.5 -4t-48.5 -11.5t-33.5 -17t-12.5 -19.5q0 -7 7.5 -15.5t23 -16t39.5 -12.5t57 -5q43 0 96 10l10 -73l-94 -46l141 -27v180zM559 599q0 32 -26.5 53.5t-64.5 21.5t-63.5 -30.5t-25.5 -73.5q0 -21 7 -40t19 -33t28 -22.5t35 -8.5
q38 0 64.5 23t26.5 56v54z" />
    <glyph glyph-name="or_g_da" horiz-adv-x="1349" 
d="M1172 1291v-877q26 -3 64 -11.5t87 -27.5l-41 -150q-62 23 -127 34.5t-130 11.5q-60 0 -115 -8.5t-97 -24t-66.5 -36.5t-24.5 -45q0 -6 5 -14.5t14 -10.5q50 38 139 38l37 -126q-25 0 -46.5 -5t-38 -14t-26 -20.5t-9.5 -24.5q0 -11 26 -24t77 -13q60 0 113.5 21.5
t88.5 63.5v140h171v-377h-171v57q-48 -27 -98.5 -42t-103.5 -15q-56 0 -106 15t-88 40.5t-60.5 60t-22.5 73.5q0 14 4.5 30t11.5 29q-41 13 -66.5 45t-25.5 73q0 60 30.5 107.5t89 81.5t142.5 52.5t192 20.5v455q-33 69 -81.5 124t-106 93.5t-122.5 59.5t-132 21
q-69 0 -131.5 -18t-109 -49.5t-74 -74.5t-27.5 -92q0 -26 7.5 -45t24.5 -27q45 47 105.5 77.5t129.5 30.5q70 0 131.5 -26.5t107.5 -71.5t73 -104t27 -123q0 -63 -27 -119.5t-73 -99t-107.5 -68t-131.5 -25.5q-69 0 -131 25.5t-108 68t-73 99t-27 119.5q0 50 7 77
q-24 18 -44 41.5t-34 51.5t-22 58t-8 61q0 86 41 160.5t111.5 129.5t164 86.5t198.5 31.5q131 0 246.5 -47.5t195.5 -135.5v128h171zM648 649q0 29 -13 54.5t-35.5 44.5t-52 30t-63.5 11t-64 -11t-52.5 -30t-36 -44.5t-13.5 -54.5t13 -53.5t35.5 -42t52.5 -27t65 -9.5
q34 0 63.5 9.5t52 27t35.5 42t13 53.5z" />
    <glyph glyph-name="or_g_dha" horiz-adv-x="1308" 
d="M205 958q0 -38 22.5 -65t57.5 -32q45 48 105.5 74.5t132.5 26.5q70 0 132 -24.5t108 -67.5t73 -100t27 -121q0 -63 -27 -116.5t-73 -93t-108 -61.5t-132 -22q-69 0 -131 22t-108 61.5t-73 93t-27 116.5q0 24 2 39.5t4 26.5q-31 14 -58.5 37.5t-48.5 55t-33 69.5t-12 81
q0 81 38.5 152t105.5 123.5t156.5 82.5t190.5 30q69 0 135.5 -13t126 -37.5t110.5 -60t90 -79.5v135h171v-1476h-171v82q-60 -56 -131 -86t-148 -30q-62 0 -116.5 17.5t-95.5 48.5t-65 72t-24 88q0 49 22 87.5t54 61.5l-158 49l55 145l501 -165l-72 -144l-143 43
q-38 -1 -62 -23t-24 -54q0 -14 10.5 -25.5t28 -20.5t40.5 -14t49 -5q77 0 149.5 52.5t129.5 145.5v636q0 82 -37 154.5t-100 127t-147 86.5t-178 32q-66 0 -125 -17t-103 -46.5t-70 -69t-26 -85.5zM688 649q0 29 -13 54.5t-35.5 44.5t-52.5 30t-64 11q-33 0 -63 -11
t-52.5 -30t-36 -44.5t-13.5 -54.5t13 -53.5t35.5 -42t52.5 -27t64 -9.5t64 9.5t52.5 27t35.5 42t13 53.5z" />
    <glyph glyph-name="or_g_na" horiz-adv-x="1303" 
d="M1156 1291v-1326h-171v203q-20 -2 -43.5 -8.5t-45 -16t-39 -21t-26.5 -24.5q15 -15 25 -40t10 -56q0 -22 -10 -41.5t-27 -34t-39.5 -23t-48.5 -8.5q-30 0 -55 11.5t-43.5 31t-29 46t-10.5 56.5q0 61 30.5 114.5t82.5 94t121.5 65t147.5 27.5v551q0 57 -33.5 109
t-90.5 91.5t-133 62.5t-161 23q-73 0 -137.5 -19.5t-113 -52t-76.5 -74.5t-28 -87t24 -79.5t66 -49.5q36 32 89 46.5t122 14.5q70 0 131.5 -26t107 -70t72 -103.5t26.5 -126.5q0 -65 -26.5 -122t-72.5 -100.5t-108 -68.5t-132 -25q-71 0 -133 25t-107.5 68.5t-71.5 100.5
t-26 122q0 74 25 126q-36 16 -65.5 43t-50.5 62t-32.5 76t-11.5 86q0 81 42.5 154t115 128t168.5 87.5t203 32.5q63 0 123 -10t114 -29t100 -45t81 -58v87h171zM677 551q0 32 -13 60t-35.5 49t-53 33t-64.5 12q-33 0 -63 -12t-52.5 -33t-36 -49t-13.5 -60t13.5 -60t36 -49
t52.5 -33t63 -12q34 0 64.5 12t53 33t35.5 49t13 60z" />
    <glyph glyph-name="or_g_lla" horiz-adv-x="1415" 
d="M214 945q0 -45 24.5 -79.5t66.5 -49.5q36 32 88.5 46.5t122.5 14.5t131 -26t107 -70t72.5 -103.5t26.5 -126.5q0 -65 -26.5 -122t-72.5 -100.5t-108 -68.5t-132 -25q-71 0 -133 25t-108 68.5t-72 100.5t-26 122q0 36 7 68.5t19 57.5q-36 16 -65.5 43t-50.5 62t-32.5 76
t-11.5 86q0 84 38 157.5t104 127.5t154.5 85.5t190.5 31.5q131 0 240.5 -37.5t177.5 -103.5v86h170v-979q14 5 30.5 8t35.5 3q40 0 75 -13.5t61.5 -39t42 -61.5t15.5 -82v-213h-171v213q0 20 -12.5 34.5t-32.5 14.5q-19 0 -31.5 -14.5t-12.5 -34.5v-213h-170v213
q0 20 -13 34.5t-32 14.5q-20 0 -32 -14.5t-12 -34.5v-213h-171v213q0 44 16 80.5t43.5 62t65 39.5t81.5 14q14 0 27 -1.5t27 -6.5v571q0 60 -33.5 112t-90.5 90.5t-133 60.5t-161 22q-67 0 -124.5 -17t-99.5 -47t-66 -71.5t-24 -90.5zM679 551q0 32 -13 60t-35 49t-52.5 33
t-64.5 12q-33 0 -63 -12t-52.5 -33t-36 -49t-13.5 -60t13.5 -60t36 -49t52.5 -33t63 -12q34 0 64.5 12t52.5 33t35 49t13 60z" />
    <glyph glyph-name="or_gh_na" horiz-adv-x="1286" 
d="M1140 1291v-1291h-171v150q-21 -2 -46 -5.5t-49.5 -10t-46 -16t-34.5 -21.5q22 -17 36 -43t14 -54q0 -24 -8.5 -44.5t-23.5 -35.5t-35.5 -24t-44.5 -9q-29 0 -54 12t-43.5 32.5t-29 48t-10.5 58.5q0 44 17 80.5t46 65.5t66.5 51.5t79.5 37.5t84.5 24t81.5 11v66
q-47 -31 -115 -31q-63 0 -116.5 26t-84.5 68q-31 -43 -88.5 -68.5t-128.5 -25.5q-56 0 -105.5 20.5t-87 56t-59 84t-21.5 104.5q0 40 6 71.5t21 58.5q-74 39 -114 101t-40 140q0 74 39 140.5t106 117t155 80t186 29.5q147 0 261.5 -37t185.5 -110v92h171zM522 1184
q-63 0 -121 -17t-101.5 -45t-69.5 -65.5t-26 -77.5q0 -36 19.5 -62.5t51.5 -40.5q19 20 46 38.5t56.5 34.5t60.5 28.5t60 20.5l54 -148q-104 -38 -159.5 -95t-55.5 -147q0 -51 29.5 -83.5t71.5 -32.5q27 0 50 12t40.5 33t27.5 48.5t10 58.5v121h174v-121q0 -31 9 -58.5
t25 -48.5t36.5 -33t43.5 -12q24 0 45 12t36.5 33t24.5 48.5t9 58.5v249q0 60 -35.5 113t-96.5 92.5t-142.5 62.5t-172.5 23z" />
    <glyph glyph-name="or_ng_ka" horiz-adv-x="1481" 
d="M704 137q-11 -6 -24.5 -8.5t-27.5 -2.5q-39 0 -72 17t-54 44q-20 -29 -51 -45t-74 -16q-53 0 -93 23.5t-67 62.5t-41 88.5t-14 101.5q0 45 9.5 81.5t20.5 59.5q-80 42 -123.5 119t-43.5 182q0 102 45.5 193.5t123 160t180 108.5t216.5 40q130 0 245.5 -32t215.5 -92
q26 21 62.5 34.5t75.5 13.5q45 0 85 -18t69.5 -49.5t47 -73.5t17.5 -90q0 -47 -17.5 -89t-47 -74t-69.5 -51t-85 -19t-85 18.5t-69.5 50.5t-47 74.5t-17.5 91.5l3 20q-66 53 -164.5 88t-218.5 35q-79 0 -150 -28t-125 -75.5t-85.5 -109t-31.5 -127.5q0 -29 7 -58.5t21 -54.5
t34.5 -42.5t48.5 -22.5q14 4 32.5 8t36.5 4q81 0 124 -58q46 58 134 58q36 0 70 -13t62 -39q28 27 63.5 39.5t74.5 12.5q46 0 87 -16.5t71.5 -45.5t48.5 -68t18 -84v-464h-171v464q0 22 -15.5 37.5t-38.5 15.5t-39 -15t-16 -37v-465h-171v137zM704 402q0 49 -15.5 82
t-36.5 33t-36.5 -33t-15.5 -82q0 -24 4 -44.5t11.5 -36t16.5 -24.5t20 -9q10 0 19.5 9t17 24.5t11.5 36t4 44.5zM1272 1037q0 29 -17.5 50.5t-41.5 21.5t-41 -21.5t-17 -50.5q0 -28 17 -48.5t41 -20.5t41.5 20.5t17.5 48.5zM453 402q0 49 -15.5 82t-36.5 33t-36.5 -33
t-15.5 -82q0 -24 4 -44.5t11.5 -36t16.5 -24.5t20 -9q10 0 19.5 9t17 24.5t11.5 36t4 44.5z" />
    <glyph glyph-name="or_ng_k_ta" horiz-adv-x="1407" 
d="M525 45q-11 -5 -21 -5.5t-24 -0.5q-57 0 -97.5 32.5t-48.5 82.5q-30 3 -56 17.5t-45 37.5t-29.5 53t-10.5 63q0 29 10.5 57.5t28.5 54t42 46.5t51 35q-48 31 -81.5 81.5t-37.5 112.5q-75 29 -120 97t-45 159q0 81 42.5 150t114.5 120t167.5 79.5t202.5 28.5
q93 0 183 -17.5t169.5 -53.5t146 -91t111.5 -130q39 -2 72.5 -19t58 -45t39 -64.5t14.5 -76.5t-16.5 -76t-44.5 -63.5t-66 -44t-81 -16.5t-80.5 16t-65.5 43t-44.5 63.5t-16.5 77.5q0 54 20 97.5t56 68.5q-39 47 -91 80.5t-111 55.5t-124 32t-129 10q-74 0 -140.5 -17.5
t-117 -48.5t-80.5 -72t-30 -87q0 -36 11.5 -64.5t28.5 -39.5q22 43 69 79.5t117 61.5l69 -124q-62 -23 -99 -61.5t-37 -81.5q0 -32 17 -61t45.5 -50.5t66.5 -34t80 -12.5q37 0 71 7t59 20t40 30t15 37q0 24 -22.5 45.5t-58.5 29.5l-78 -60l-85 110l266 199l85 -109l-63 -44
q19 -12 38.5 -28.5t35.5 -37.5t25.5 -45.5t9.5 -51.5q0 -43 -22 -80.5t-54 -62.5q54 -19 101 -52.5t83 -77t59 -94.5t28 -106l-138 -37q-7 69 -40 119.5t-81.5 83.5t-107 48.5t-115.5 15.5q-55 0 -104.5 -9.5t-86.5 -25.5t-59 -36.5t-22 -42.5q0 -11 5 -19t15 -11
q17 29 46.5 45t66.5 16q35 0 65.5 -14t51.5 -39q25 20 61.5 30.5t69.5 10.5t65 -13t57.5 -34.5t41 -50.5t15.5 -61v-185h-154v175q0 14 -13.5 21.5t-23.5 7.5q-11 0 -25 -6.5t-14 -22.5v-175h-152v45zM533 -307q50 -29 105 -44t103 -15q87 0 153.5 9.5t108.5 23.5
q-50 23 -83 74t-33 122q0 48 18.5 92t50.5 77.5t75 53t91 19.5t91 -19.5t75 -53t50.5 -77.5t18.5 -92q0 -87 -44 -157.5t-125 -120.5t-194.5 -77t-252.5 -27q-91 0 -164 21t-119 50zM1205 -139q0 18 -7 34.5t-18 29t-26.5 20t-31.5 7.5q-17 0 -32 -7.5t-26 -20t-18 -29
t-7 -34.5q0 -37 24.5 -61.5t58.5 -24.5q33 0 58 24.5t25 61.5zM1224 849q0 28 -20.5 46.5t-49.5 18.5t-49 -18.5t-20 -46.5q0 -25 20 -43.5t49 -18.5t49.5 18.5t20.5 43.5zM532 191q0 19 -14.5 33t-33.5 14q-18 0 -31.5 -14t-13.5 -33q0 -18 13.5 -31.5t31.5 -13.5
q19 0 33.5 13.5t14.5 31.5z" />
    <glyph glyph-name="or_ng_k_ssa" horiz-adv-x="1362" 
d="M909 874q0 54 23.5 96.5t60.5 66.5q-27 36 -68.5 64t-94 47.5t-116 29.5t-133.5 10q-81 0 -151.5 -19.5t-123 -53t-83 -80t-30.5 -100.5q0 -30 9.5 -52.5t24.5 -27.5q26 51 75.5 86t113.5 51l61 -125q-67 -18 -105.5 -55t-38.5 -94q0 -37 16 -68.5t44 -54t66.5 -35
t84.5 -12.5q40 0 75.5 9.5t62.5 26.5t42.5 40t15.5 50q0 30 -15 51.5t-37 24.5q-31 -22 -67.5 -48.5t-67.5 -48.5l-80 115l328 233l82 -113l-71 -50q35 -26 58 -70.5t23 -93.5q0 -45 -18 -85t-50 -69q14 -5 28 -10.5t28 -14.5v52h163v-547h-163v27q-39 -26 -100 -39
t-136 -13q-45 0 -85.5 10t-73.5 28t-56 42t-31 52q-8 -4 -18 -10t-15 -10q18 -18 18 -55q0 -17 -7.5 -32t-21 -26.5t-31 -18t-36.5 -6.5q-23 0 -42.5 9.5t-34 26t-23 38.5t-8.5 47t12.5 50t34 47t51.5 41t66 33q-24 20 -37 48.5t-13 58.5q0 35 13 62.5t35 47.5
q-36 15 -64 40t-47.5 57t-31 69.5t-12.5 78.5q-35 10 -62 32.5t-45.5 53.5t-28.5 68.5t-10 78.5q0 84 43 158.5t117 130.5t172 88.5t208 32.5q81 0 162.5 -15.5t155 -48.5t136 -83.5t104.5 -120.5q39 -2 73 -18.5t59 -44.5t39 -64.5t14 -76.5t-16.5 -76.5t-44.5 -64
t-66 -43.5t-81 -16t-80.5 16t-65.5 43t-44.5 63.5t-16.5 77.5zM666 215q-48 -8 -75.5 -23.5t-27.5 -31.5q0 -13 27.5 -22.5t66.5 -9.5q55 0 104 20zM488 392q-13 -5 -20 -17.5t-7 -24.5q0 -22 16.5 -33.5t39.5 -11.5q17 0 45 13zM881 320q-18 37 -75.5 58.5t-143.5 27.5
l219 -181v95zM1186 874q0 27 -20.5 46t-49.5 19q-28 0 -48 -19t-20 -46q0 -26 20 -44t48 -18q29 0 49.5 18t20.5 44z" />
    <glyph glyph-name="or_ng_kha" horiz-adv-x="1522" 
d="M352 264q0 -66 14.5 -96.5t50.5 -30.5q32 0 49 22.5t17 54.5v226q0 26 -20 45.5t-46 19.5q-36 0 -50.5 -26t-14.5 -77v-138zM785 402q0 51 -15 77t-50 26q-13 0 -25 -5.5t-21 -14.5t-14.5 -20.5t-5.5 -24.5v-226q0 -32 17 -54.5t49 -22.5q35 0 50 30.5t15 96.5v138z
M1181 0h-171v902q-44 -55 -103.5 -86t-125.5 -31q-56 0 -106 20.5t-87.5 56.5t-59.5 84.5t-22 103.5q0 73 25 131q-65 -6 -121 -36t-97 -75.5t-64.5 -104t-23.5 -122.5q0 -73 26.5 -127t74.5 -77q21 7 43 11t45 4q50 0 89.5 -18.5t64.5 -47.5q24 29 64.5 47.5t89.5 18.5
q235 0 235 -328q0 -351 -237 -351q-50 0 -89.5 17.5t-62.5 46.5q-24 -29 -62.5 -46.5t-88.5 -17.5q-239 0 -239 351q0 120 31 192q-37 21 -66 54.5t-49.5 75.5t-31.5 91.5t-11 103.5q0 105 43.5 201t130.5 171q44 37 91 62t98.5 40t107.5 21t117 6q106 0 189 -37
q-35 -24 -62.5 -54t-46.5 -63t-29.5 -68.5t-10.5 -71.5q0 -22 8 -40.5t22 -32.5t32.5 -22t39.5 -8q37 0 73.5 26.5t67.5 72.5t55 109t37 136h167v-18q26 10 61 10q48 0 90 -17.5t74 -47.5t50.5 -70t18.5 -85t-18.5 -84.5t-50 -69.5t-74 -47.5t-90.5 -17.5q-17 0 -32.5 2
t-28.5 5v-851zM1302 1063q0 25 -18 41.5t-42 16.5t-40.5 -16.5t-16.5 -41.5q0 -23 16.5 -40t40.5 -17t42 17t18 40z" />
    <glyph glyph-name="or_ng_ga" horiz-adv-x="1522" 
d="M720 -25q-51 0 -89.5 17.5t-62.5 46.5q-23 -29 -62 -46.5t-89 -17.5q-239 0 -239 351q0 42 4 78t12 66q-68 51 -104.5 135t-36.5 188q0 75 20.5 145t58 131t89 112t114.5 87t135 56t149 20q126 0 225 -35t167 -107v87h171v-18q26 10 60 10q48 0 90 -17.5t74 -47.5
t50.5 -70t18.5 -85t-18.5 -84.5t-50 -69.5t-74 -47.5t-90.5 -17.5q-17 0 -32 2t-28 5v-849h-171v857q0 65 -32 124t-86 103.5t-125 71t-149 26.5q-79 0 -150 -32t-125 -85.5t-86 -124t-32 -147.5q0 -56 15 -102t43 -75q55 38 130 38q50 0 89.5 -18.5t64.5 -47.5
q24 29 64.5 47.5t89.5 18.5q235 0 235 -328q0 -351 -237 -351zM352 264q0 -66 14.5 -96.5t50.5 -30.5q32 0 49 22.5t17 54.5v226q0 26 -20 45.5t-46 19.5q-36 0 -50.5 -26t-14.5 -77v-138zM785 402q0 51 -15 77t-50 26q-13 0 -25 -5.5t-21 -14.5t-14.5 -20.5t-5.5 -24.5
v-226q0 -32 17 -54.5t49 -22.5q35 0 50 30.5t15 96.5v138zM1302 1061q0 25 -18 41.5t-42 16.5t-40.5 -16.5t-16.5 -41.5q0 -23 16.5 -40t40.5 -17t42 17t18 40z" />
    <glyph glyph-name="or_ng_gha" horiz-adv-x="1531" 
d="M868 -25q-41 0 -79 9.5t-70.5 26.5t-58 40.5t-41.5 52.5q-28 -26 -67.5 -39.5t-87.5 -13.5q-57 0 -107.5 23t-88 62t-59 91.5t-21.5 111.5q0 49 7.5 92t21.5 75q-38 22 -69 55t-53 73.5t-33.5 87t-11.5 96.5q0 71 21 137.5t59 125t91 107t117 83t137 54t152 19.5
q120 0 222.5 -38t169.5 -100v83h171v-17q27 9 60 9q48 0 90.5 -17.5t74 -47t50 -69t18.5 -84.5t-18.5 -85t-50 -71t-74 -49t-90.5 -18q-16 0 -31 1.5t-29 6.5v-848h-171v33q-74 -58 -151 -58zM567 502h173v-238q0 -26 10 -49t27.5 -40.5t41 -27.5t49.5 -10q28 0 53.5 16.5
t45.5 44.5t33.5 65t18.5 78v538q0 63 -31 118t-84.5 96t-125 65t-151.5 24q-82 0 -155.5 -29.5t-129 -79.5t-88 -116t-32.5 -139q0 -29 5 -56t14 -48.5t21 -36.5t25 -21q27 38 74 78.5t109 76.5l105 -139q-49 -29 -88.5 -66.5t-67 -80t-42.5 -90t-15 -96.5q0 -26 8 -49.5
t22 -40.5t32.5 -27t39.5 -10t39.5 8t33 21.5t22.5 32.5t8 40v188zM1311 1061q0 25 -18 41.5t-43 16.5q-23 0 -39.5 -16.5t-16.5 -41.5q0 -23 16.5 -40t39.5 -17q25 0 43 17t18 40z" />
    <glyph glyph-name="or_c_ca" horiz-adv-x="1267" 
d="M246 326q0 48 7 94t22 94q-52 18 -95 51t-73.5 76.5t-47 95.5t-16.5 107q0 68 21.5 132t60 119.5t92 101.5t118.5 79.5t139 51.5t153 18q80 0 155 -18t141.5 -51.5t121.5 -79.5t94.5 -101.5t61.5 -119.5t22 -132q0 -78 -24 -147t-70 -123l-138 84q59 104 59 186
q0 67 -34.5 129t-92.5 108.5t-135 74.5t-161 28t-158.5 -28t-130.5 -74.5t-88.5 -108.5t-32.5 -129q0 -37 12.5 -70.5t34 -59.5t50.5 -43.5t62 -23.5q41 31 108 31q43 0 81 -18t64 -49q26 32 64 49.5t83 17.5q52 0 95.5 -25t74.5 -71t48 -111t17 -145q0 -78 -16 -142.5
t-47 -111t-75 -72t-100 -25.5q-40 0 -75 15t-61 42q-24 -26 -64.5 -41.5t-88.5 -15.5q-55 0 -99 25.5t-75 71.5t-47.5 110.5t-16.5 143.5zM547 326q0 191 -63 191q-32 0 -48.5 -48.5t-16.5 -142.5q0 -189 65 -189q63 0 63 189zM838 326q0 94 -17 142.5t-48 48.5
q-33 0 -48 -45t-15 -146q0 -190 53 -190q35 0 55 45t20 145z" />
    <glyph glyph-name="or_c_cha" horiz-adv-x="1231" 
d="M180 -46q0 42 17 78t48 61l-78 44l100 106l134 -64q76 -8 135 -29.5t97 -59.5q48 42 104.5 66t110.5 24q52 0 97.5 -18t79.5 -49t53.5 -72t19.5 -87q0 -41 -19 -77t-51 -63t-75.5 -43t-91.5 -16q-58 0 -113 25.5t-103 76.5q-57 -51 -118 -76.5t-121 -25.5q-46 0 -87 15.5
t-72 42t-49 63t-18 78.5zM406 -97q44 0 80.5 19t53.5 52q-53 45 -122 45q-31 0 -54 -19t-23 -46q0 -21 19 -36t46 -15zM937 -46q0 27 -26 46t-63 19q-31 0 -59.5 -11t-50.5 -31q24 -36 56 -55t67 -19q31 0 53.5 15t22.5 36zM256 466q0 32 15 79q-48 21 -88 53t-68.5 73
t-44.5 89.5t-16 102.5q0 103 45.5 191t123.5 153t180.5 102t216.5 37q116 0 221 -38.5t184 -105.5t125.5 -157.5t46.5 -194.5q0 -72 -24 -128t-71 -110l-139 84q29 52 44 86t15 68q0 70 -32.5 131t-88 106t-128.5 71t-153 26t-151.5 -25t-125 -68.5t-84.5 -102t-31 -125.5
q0 -66 36 -110.5t94 -70.5q20 15 47 24.5t63 9.5q45 0 84 -16t68 -45q29 29 68.5 45t83.5 16q115 0 176.5 -64.5t61.5 -185.5t-61.5 -186.5t-176.5 -65.5q-41 0 -79 18.5t-69 51.5q-23 -32 -60 -51t-81 -19t-84.5 15.5t-72.5 47t-51 79t-19 110.5zM546 466q0 90 -63 90
q-31 0 -48 -23t-17 -67t17 -67t48 -23q63 0 63 90zM837 466q0 44 -17 67t-48 23q-65 0 -65 -90t65 -90q31 0 48 23t17 67z" />
    <glyph glyph-name="glyph164" horiz-adv-x="2384" 
d="M273 326q0 37 3.5 64.5t10.5 47.5q-53 18 -96.5 54.5t-75.5 86.5t-49.5 112t-17.5 132q0 106 44.5 201t121 166.5t180 113.5t221.5 42q77 0 150 -19t136.5 -52.5t116 -81t90 -104t58.5 -121t21 -133.5q0 -89 -30.5 -171t-89.5 -153l-139 87q42 59 63 119.5t21 117.5
q0 70 -32 133.5t-86.5 111.5t-126.5 76t-152 28q-83 0 -156 -29t-127 -78.5t-85.5 -115t-31.5 -138.5q0 -44 12.5 -84t35 -71.5t52 -52t64.5 -24.5q51 47 111 73t123 26q70 0 131.5 -28.5t107.5 -78t73 -116t27 -141.5q0 -71 -27 -134.5t-73 -111.5t-107.5 -76.5
t-131.5 -28.5q-71 0 -132.5 28.5t-108 76.5t-73 111.5t-26.5 134.5zM778 328q0 39 -13 75.5t-35.5 65t-52.5 45.5t-64 17t-64 -17t-52.5 -45.5t-35.5 -65t-13 -75.5t13 -73.5t35.5 -60.5t52.5 -41.5t64 -15.5t64 16t52.5 42t35.5 60.5t13 72.5zM1225 491q0 90 30 169t82 130
q-19 22 -37.5 51.5t-33 65.5t-23.5 77t-9 86q0 42 8.5 83.5t25 79.5t40.5 71t55 59l115 -74q-22 -29 -35.5 -58t-21.5 -57.5t-11 -55t-3 -48.5q0 -74 28 -134.5t79 -104t121.5 -67t154.5 -23.5q74 0 139.5 22t115 60.5t78 89.5t28.5 108q0 30 -8.5 59t-23 51.5t-34.5 36.5
t-42 14q-16 0 -30 -10t-24.5 -26t-17 -36t-6.5 -40v-187h-173v187q0 20 -6.5 40t-17.5 36t-25.5 26t-31.5 10t-31.5 -9t-25 -23.5t-17 -32t-6.5 -34.5q0 -23 14 -57t50 -65l-117 -98q-54 54 -82 110t-28 110q0 57 16.5 105t48 83t76.5 54.5t102 19.5q104 0 166 -74
q27 35 71 54.5t95 19.5q57 0 107 -27t87.5 -72t59.5 -103.5t22 -121.5q0 -91 -34 -168.5t-98 -131.5q28 -20 52.5 -50t42 -68t27.5 -82.5t10 -92.5q0 -93 -42.5 -175.5t-115.5 -144t-170.5 -97.5t-207.5 -36q-74 0 -143.5 18.5t-131.5 52t-114 80.5t-89.5 104.5t-58.5 123.5
t-21 137zM2150 428q0 36 -8.5 68.5t-23.5 56.5t-34.5 38.5t-41.5 14.5q-32 0 -54.5 -24.5t-22.5 -59.5v-185h-173v185q0 35 -23.5 59.5t-57.5 24.5t-57 -26.5t-23 -63.5q0 -30 21 -63.5t57 -64.5l-123 -90q-26 18 -49 40.5t-40.5 49.5t-28 59t-10.5 69q0 42 10 78t32 62
q-9 5 -17.5 10t-19.5 13q-29 -30 -47 -79.5t-18 -108.5q0 -73 32.5 -137.5t86 -112.5t123 -76t143.5 -28t140.5 22.5t117 62t80 92.5t29.5 114z" />
    <glyph glyph-name="or_j_ja" horiz-adv-x="1271" 
d="M267 257q0 55 13 99t46 77q-40 27 -66.5 79.5t-29.5 119.5q-40 6 -74.5 30t-60 61t-40.5 84t-15 100q0 89 47.5 168.5t128.5 139.5t188.5 95.5t227.5 35.5q121 0 229.5 -36t191 -96.5t131 -140t48.5 -166.5q0 -65 -24 -128.5t-71 -118.5l-139 104q61 73 61 143
q0 55 -35 105t-94 88t-136 61t-162 23t-161 -23t-133.5 -61t-91 -88t-33.5 -105q0 -45 13.5 -79.5t36.5 -44.5q25 54 77.5 97t122.5 68l91 -129q-36 -13 -66 -32.5t-51.5 -43t-33.5 -49.5t-12 -52q0 -44 21.5 -73.5t53.5 -29.5q23 0 38 23t15 54q0 49 24.5 92.5t65.5 76
t96 51t115 18.5h150v-339h98v-515h-171v340h-77q-27 0 -46 -15t-19 -37q0 -7 6 -25.5t13 -40t13 -42t6 -30.5q0 -83 -64.5 -128.5t-173.5 -45.5q-59 0 -111.5 22.5t-91.5 60.5t-62 89.5t-23 108.5zM621 167q0 14 -4 30.5t-9 33.5t-9 33.5t-4 30.5q0 40 16.5 75.5t45 63
t65.5 45t79 21.5v192q-25 -3 -46.5 -12t-38 -22.5t-26 -30t-9.5 -35.5q0 -41 -15 -77.5t-41 -64t-62.5 -43.5t-78.5 -17q-26 -24 -41.5 -59.5t-15.5 -72.5q0 -24 10 -46t27.5 -38.5t41 -26.5t50.5 -10t46 7t19 23z" />
    <glyph glyph-name="or_j_j_va" horiz-adv-x="1316" 
d="M826 276q0 22 -16 36.5t-39 14.5q-21 0 -37 -17.5t-16 -41.5q0 -8 7.5 -24.5t14.5 -31.5q7 -14 11.5 -25.5t4.5 -35.5q0 -26 -17.5 -60.5t-48 -60t-71.5 -40.5t-87 -15q-57 0 -107.5 21.5t-88 57.5t-59.5 83.5t-22 100.5q0 60 18.5 110.5t53.5 87.5q-43 31 -69 82.5
t-29 116.5q-41 11 -75 36t-59.5 60t-39.5 78t-14 90q0 90 48 171t130.5 142.5t192.5 97.5t233 36t232.5 -36t192 -97.5t131 -142.5t48.5 -171q0 -75 -24.5 -139t-72.5 -112l-143 91q65 65 65 160q0 57 -34.5 108.5t-93.5 90.5t-136.5 62.5t-164.5 23.5q-88 0 -166 -23.5
t-136.5 -62.5t-93 -90.5t-34.5 -108.5q0 -38 15.5 -64.5t42.5 -37.5q29 52 82.5 88t124.5 55l73 -137q-36 -10 -65.5 -25.5t-51.5 -35.5t-34 -42.5t-12 -46.5q0 -23 7 -43.5t18.5 -36.5t27 -25t32.5 -9q18 0 31.5 11.5t13.5 28.5v39q0 43 19 82t51.5 67.5t75.5 45.5t92 17
q48 0 91.5 -16.5t76 -45.5t52 -68t19.5 -84v-592q0 -16 11 -27.5t28 -11.5t32.5 11.5t15.5 27.5v188h170v-502h-170v120q-26 -6 -55 -6q-43 0 -80 15.5t-64.5 42.5t-43 63.5t-15.5 78.5v252zM571 163q0 5 -4 15.5t-9 22.5q-8 17 -14 30.5t-6 31.5q0 13 4 29t9 34t9 32t4 19
q0 6 -6 9.5t-14 3.5q-24 0 -45 -12t-36.5 -33t-24.5 -48.5t-9 -58.5q0 -21 8 -39t22 -32t33 -22t40 -8q16 0 27.5 7.5t11.5 18.5zM826 616q0 22 -20.5 37t-47.5 15q-26 0 -45.5 -15t-19.5 -37v-62q0 -31 -14 -55q4 -3 9 -8l10 -10q30 8 72 8q15 0 29 -1.5t27 -6.5v135z" />
    <glyph glyph-name="or_j_jha" horiz-adv-x="1322" 
d="M647 -25q-47 0 -89.5 12t-76.5 36t-56 60t-28 84q-27 6 -50 23.5t-40.5 42t-27 55t-9.5 63.5q0 51 20.5 97t52.5 79q-33 27 -53 71.5t-20 108.5q-45 4 -86 22t-72 48.5t-49.5 72.5t-18.5 95q0 54 23 104.5t64 95.5t98 81.5t124.5 63.5t144 41.5t155.5 14.5
q120 0 229 -35.5t192 -95.5t132 -139.5t49 -168.5q0 -33 -13 -74.5t-39 -85.5l-159 60q12 19 24.5 45t12.5 55q0 55 -35 105t-94 88t-136.5 61t-162.5 23q-86 0 -164.5 -22.5t-139 -58.5t-96.5 -82t-36 -93q0 -24 22.5 -41t57.5 -22q17 42 46.5 78t77.5 70l112 -94
q-52 -45 -76.5 -99t-24.5 -133q0 -18 6.5 -35.5t18.5 -31t28.5 -22t35.5 -8.5q14 0 27 4.5t23.5 13t17 19.5t6.5 24q0 9 -12 20t-27 26.5t-27 36.5t-12 51q0 40 21 76t57 62.5t84.5 42t103.5 15.5h226v-323h-173v162h-41q-57 0 -83.5 -10t-26.5 -26q0 -15 11.5 -27
t25.5 -25.5t25.5 -30t11.5 -40.5q0 -25 -16 -49q42 -6 87 -19.5t90 -34.5q4 -38 27.5 -60t49.5 -22q10 0 23.5 4t26.5 13t22 24t9 37v124h175v-99q0 -60 -22 -108.5t-58 -83t-82 -53.5t-94 -19q-29 0 -58.5 8t-56 23t-47.5 36t-33 48q-15 22 -56 35.5t-99 13.5
q-44 0 -83 -9.5t-68.5 -27t-46.5 -41t-17 -50.5q0 -13 5 -23t13 -14q33 35 84.5 54.5t123.5 19.5q43 0 85 -12t76.5 -35t58.5 -57.5t31 -79.5l225 -107l-74 -129l-191 90q-39 -42 -96.5 -62.5t-125.5 -20.5zM758 182q0 27 -29.5 46t-72.5 19q-42 0 -71.5 -18.5t-29.5 -46.5
q0 -26 26.5 -45t63.5 -19q23 0 43.5 5t36 14t24.5 20.5t9 24.5z" />
    <glyph glyph-name="or_j_nya" horiz-adv-x="1260" 
d="M125 390q0 79 23 151.5t68 132.5q-66 51 -102.5 131t-36.5 177q0 59 9 116t28 108.5t47 95t67 75.5l108 -77q-31 -31 -50 -69.5t-29.5 -80.5t-14 -85t-3.5 -83q0 -62 29 -117.5t81.5 -97t127 -65.5t164.5 -24q75 0 141.5 26t116.5 71t79.5 105t29.5 128q0 34 -9 65.5
t-24.5 56t-37 39.5t-45.5 15q-32 0 -54.5 -25.5t-22.5 -63.5v-241h-173v253q0 32 -18.5 54.5t-46.5 22.5q-18 0 -34 -13t-28.5 -34t-19.5 -48.5t-7 -55.5q0 -15 3.5 -32.5t11 -35.5t20 -35t29.5 -32l-95 -99q-74 53 -108 116.5t-34 128.5q0 60 20.5 114.5t56.5 96t83.5 66.5
t101.5 25q48 0 88 -20t66 -52q66 72 175 72q63 0 114 -25.5t87 -70.5t55 -107t19 -135q0 -44 -10 -89.5t-29.5 -90t-48.5 -86t-68 -76.5q21 -8 41.5 -22t36 -33t25.5 -43t10 -52v-516h-171v503q0 22 -12 37.5t-27 15.5q-12 0 -26 -15.5t-14 -37.5v-503h-171v115
q-18 -8 -34.5 -11t-27.5 -3q-45 0 -77.5 14t-54.5 38q-67 -52 -150 -52q-53 0 -98 22.5t-78.5 61.5t-52.5 91.5t-19 113.5zM440 543q-27 12 -42.5 17.5t-24.5 7.5q-17 -3 -31 -18.5t-24.5 -39.5t-16.5 -55t-6 -65q0 -26 6 -49t17 -40.5t26 -28t33 -10.5q26 0 44.5 22.5
t18.5 54.5v204zM717 537q-20 -3 -46.5 -4.5t-58.5 -2.5v-216q0 -22 16 -37t38 -15q21 0 36 19t15 45v211z" />
    <glyph glyph-name="or_j_va" horiz-adv-x="1240" 
d="M204 489q0 84 37 149q-43 18 -80 45t-64 62.5t-42.5 77.5t-15.5 89q0 90 45.5 169t123.5 138t183 93t224 34q120 0 226.5 -30.5t187 -85t127 -130t46.5 -165.5q0 -68 -24.5 -130t-71.5 -112l-152 74q37 42 56 85.5t19 82.5q0 43 -20 78.5t-53.5 63t-76.5 48t-89 33.5
t-91 19.5t-83 6.5q-41 0 -86.5 -6.5t-90.5 -20.5t-86 -36t-72 -52t-49.5 -69.5t-18.5 -87.5q0 -64 37.5 -101t94.5 -39q29 17 70 30t102 13q35 0 66.5 -12t51.5 -32q29 23 65.5 33.5t80.5 10.5q40 0 76.5 -14t64 -38.5t43.5 -56.5t16 -68v-870h-171v18q-54 -33 -116 -33
q-56 0 -104 18t-83.5 50.5t-56 77.5t-20.5 99q0 38 18.5 80t50.5 77l128 -62q-17 -29 -26.5 -53.5t-9.5 -44.5q0 -17 8 -32.5t22.5 -27t33 -18t39.5 -6.5q37 0 69.5 24.5t46.5 64.5v638q0 8 -9 14.5t-20 6.5q-21 0 -39 -8.5t-32 -22.5t-22 -33.5t-8 -41.5q0 -15 16 -32.5
t34.5 -39t34.5 -49t16 -62.5q0 -39 -20 -73.5t-54.5 -60t-80 -40t-96.5 -14.5q-67 0 -126.5 24t-103.5 66t-70 98t-26 119zM607 370q0 16 -16 33.5t-34.5 39t-34.5 48.5t-16 62q0 29 8.5 55.5t22.5 50.5h-20q-63 0 -102 -46t-39 -124q0 -33 12 -63t33 -52t49 -35t60 -13
t54.5 13t22.5 31z" />
    <glyph glyph-name="or_ny_ca" horiz-adv-x="1189" 
d="M897 126q-74 -69 -178.5 -110t-225.5 -41q-90 0 -168.5 19t-136 53.5t-90.5 83t-33 107.5q0 57 24 95.5t63 64t89 41t102 27.5t102 23t89 27.5t63 41t24 63.5q0 23 -11.5 43.5t-30.5 36t-45 24.5t-54 9t-55 -7t-48 -19t-33.5 -28.5t-12.5 -35.5q0 -17 10.5 -33t27.5 -35
l-119 -99q-36 29 -60 69t-24 98q0 57 23 103.5t65 74.5q-41 28 -75.5 70.5t-59.5 92t-39.5 104t-14.5 107.5v100h171v-97q0 -149 96.5 -232.5t286.5 -83.5q57 0 107.5 18.5t88.5 48.5t60 68t22 77q0 36 -18.5 62.5t-45.5 26.5q-13 0 -26.5 -7t-24 -19.5t-17.5 -28.5t-7 -34
v-117h-152v129q0 16 -6 30t-15 24.5t-20 16.5t-22 6q-21 0 -36.5 -18.5t-15.5 -45.5q0 -8 3 -20t10 -24.5t18 -25t26 -21.5l-118 -75q-41 19 -68.5 62.5t-27.5 103.5q0 46 14 87.5t39.5 72t60.5 48.5t77 18q50 0 90.5 -17.5t66.5 -47.5q24 31 65 48t92 17q48 0 90 -20
t73.5 -54t50 -80t18.5 -97q0 -55 -23.5 -109.5t-65.5 -102t-100.5 -83.5t-127.5 -55q39 -50 39 -124q0 -62 -24 -106t-62.5 -75.5t-88.5 -52t-101.5 -35t-101.5 -25.5t-88.5 -23t-62.5 -27.5t-24 -38.5q0 -21 20.5 -39.5t55 -32t80.5 -21.5t97 -8q130 0 228 52.5t176 144.5
v457h171v-791h-171v126z" />
    <glyph glyph-name="or_ny_cha" horiz-adv-x="1216" 
d="M54 176q0 44 28 84.5t79 70.5q-23 22 -39.5 49.5t-16.5 72.5q0 49 23 82t60 55.5t84.5 37t97.5 24.5t97.5 18t84.5 19t60 27t23 35q0 13 -10 21t-27.5 13.5t-41 8.5t-49.5 3q-32 0 -59.5 -8t-48 -21t-32.5 -30.5t-13 -36.5h-160q0 35 8.5 62t22 47.5t30 36.5t33.5 30
q-50 32 -88.5 79t-65 102.5t-40.5 116.5t-14 121h174q0 -68 25 -131t68 -111.5t100.5 -78t122.5 -29.5q69 0 131 18t109 46t74.5 63t27.5 70q0 21 -15.5 36t-36.5 15q-14 0 -26 -11.5t-21 -31t-14.5 -44.5t-5.5 -53h-159v76q0 13 -6 25t-15 20.5t-20.5 13.5t-22.5 5
q-21 0 -35 -10t-14 -28q0 -9 3.5 -18.5t9.5 -20.5t13.5 -21.5t15.5 -19.5l-122 -74q-11 13 -24 32t-23.5 41t-16.5 45t-6 42q0 39 14.5 72.5t40 58.5t59.5 39t73 14q49 0 88.5 -14t63.5 -43q50 57 163 57q45 0 83.5 -15t66.5 -43.5t44 -68.5t16 -89v-904h-45q23 -31 23 -63
q0 -39 -16 -73.5t-43.5 -60t-64 -40t-77.5 -14.5q-87 0 -161 21t-129 60q-54 -39 -123.5 -60t-153.5 -21q-49 0 -92.5 16t-76 43.5t-51.5 64t-19 77.5zM324 114q14 0 34 3t42 8.5t44.5 13t40.5 16.5q-35 28 -82 43.5t-84 15.5q-39 0 -65 -12.5t-26 -32.5q0 -24 24.5 -39.5
t71.5 -15.5zM887 163q0 16 -19 27.5t-46 11.5q-21 0 -43.5 -2.5t-44 -7.5t-40 -12.5t-32.5 -17.5q10 -6 27 -12.5t37.5 -11.5t42 -8t41.5 -3q32 0 54 12t23 24zM912 875q-61 -39 -124 -56q20 -30 20 -73q0 -48 -22.5 -82.5t-60 -59t-85 -40.5t-97 -27t-97 -19.5t-85 -17
t-60 -19.5t-22.5 -28q0 -27 21.5 -50.5t57.5 -41t84.5 -27t102.5 -9.5q68 0 128.5 11.5t108.5 32.5t81.5 49.5t48.5 63.5v393z" />
    <glyph glyph-name="or_ny_ja" horiz-adv-x="1570" 
d="M106 446q0 100 29.5 181t83.5 138q-31 27 -56.5 60.5t-44 72t-28.5 79.5t-10 82q0 75 26 147t75 121l138 -74q-38 -43 -57.5 -96t-19.5 -98q0 -67 35.5 -125t96 -101t141 -67.5t170.5 -24.5q67 0 127 23t104.5 62.5t70.5 93t26 113.5q0 28 -9 55t-24.5 48.5t-36 34.5
t-44.5 13q-19 0 -35.5 -6.5t-29 -18.5t-20 -28.5t-7.5 -35.5v-187h-171v199q0 32 -19 54.5t-47 22.5q-32 0 -54.5 -25.5t-22.5 -63.5q0 -23 15.5 -58t45.5 -72l-123 -89q-26 22 -46.5 49.5t-35 56t-22 57.5t-7.5 56q0 52 19.5 97.5t53.5 79.5t79.5 54t97.5 20q44 0 86 -19.5
t78 -57.5q36 38 79 57.5t86 19.5q57 0 107 -26t87.5 -69t59 -100t21.5 -118q0 -102 -41.5 -188.5t-116.5 -149.5q32 -25 51.5 -65.5t19.5 -88.5t-20.5 -87.5t-62.5 -63.5q36 -23 59.5 -63t23.5 -91q0 -50 -20 -88.5t-54 -67.5t-78 -49t-91.5 -32t-95.5 -17.5t-89 -5.5
q-106 0 -205.5 32t-177 92.5t-124 148t-46.5 197.5zM926 233q0 27 -25 45t-60.5 29t-74.5 15.5t-68 4.5v125q46 0 87.5 6.5t73 18.5t49.5 28.5t18 35.5q0 16 -10 30t-27.5 24.5t-40.5 17t-49 6.5q-29 0 -54.5 -10t-44.5 -27.5t-30.5 -40.5t-11.5 -49h-162q0 40 5 70.5
t13 49.5q-52 8 -93 21t-76 30q-38 -31 -58 -88t-20 -129q0 -76 33.5 -135t89 -100t125.5 -62.5t144 -21.5q21 0 49 1.5t58 6t58.5 12.5t51 19.5t36.5 28t14 38.5zM1286 698l-110 -146l-111 124q50 62 93 108.5t81 77.5t73 46.5t69 15.5q30 0 53 -18t23 -45v-861h-171v698z
" />
    <glyph glyph-name="or_ny_jha" horiz-adv-x="1309" 
d="M105 226q0 60 23 98.5t60 63.5t84 40t94 28q34 9 67 19t58 24t40 33t15 47q0 21 -9.5 40t-25 32.5t-36.5 21.5t-44 8q-48 0 -81.5 -19t-33.5 -42q0 -13 6 -19.5t13 -17.5t13 -24.5t6 -29.5q0 -31 -29 -53t-71 -22q-26 0 -49 13t-40 35t-26.5 51.5t-9.5 62.5
q0 42 27.5 82.5t69.5 69.5q-67 45 -107 122.5t-40 179.5q0 27 3.5 59.5t12.5 66t24.5 66.5t39.5 61l155 -36q-22 -27 -37 -57t-24 -58.5t-13 -55t-4 -46.5q0 -54 23 -100.5t64.5 -80t98 -53t123.5 -19.5q54 0 102 18t84 49t57.5 72.5t21.5 87.5q0 71 -13 112.5t-38 41.5
q-30 0 -45.5 -15t-15.5 -35v-158h-151v143q0 21 -14.5 36t-26.5 15q-51 0 -51 -64q0 -11 1 -24.5t5 -29.5t13 -32t26 -31l-140 -53q-29 40 -44.5 86t-15.5 84q0 46 14.5 87.5t40 72t61 48.5t78.5 18q40 0 73 -15t54 -41q24 26 60 41t93 15q41 0 78.5 -16t66 -43.5
t45.5 -65.5t17 -82v-167l230 290v-225l-230 -315v-34l281 -352v-211l-281 315v-440h-171v111q-67 -62 -165.5 -99t-213.5 -37q-66 0 -125 20t-104 54t-71 79.5t-26 97.5zM810 737q-23 -18 -52 -32t-61 -22q12 -23 17 -52t5 -65q0 -57 -19 -96.5t-50 -66t-71 -42.5t-81 -27.5
t-81 -20.5t-71 -21.5t-50 -30.5t-19 -47q0 -16 14.5 -30t39 -24.5t57 -16.5t68.5 -6q58 0 113.5 18t102.5 50.5t82.5 77.5t55.5 99v355z" />
    <glyph glyph-name="or_tt_tta" horiz-adv-x="1249" 
d="M219 856q0 -65 33.5 -123.5t102.5 -90.5q22 16 52.5 26t66.5 10q44 0 81.5 -18t63.5 -49q25 31 63.5 49t82.5 18q53 0 96.5 -25t74.5 -71t48 -111t17 -145q0 -78 -16.5 -142.5t-47 -111t-75 -72t-99.5 -25.5q-42 0 -76.5 15.5t-60.5 41.5q-24 -25 -64.5 -41t-87.5 -16
q-56 0 -100.5 25.5t-75 71.5t-47 110.5t-16.5 143.5q0 50 7 94.5t24 95.5q-50 24 -90.5 60t-69.5 81t-45 95.5t-16 103.5q0 99 45.5 187.5t122.5 156t180 107t218 39.5q59 0 115.5 -10.5t107.5 -30t94 -48t75 -63.5v97h171v-661h-171v213q0 71 -31 133t-84.5 108.5t-125 73
t-151.5 26.5t-151 -26.5t-124.5 -71.5t-85 -104.5t-31.5 -125.5zM537 326q0 191 -63 191q-31 0 -48 -48.5t-17 -142.5q0 -189 65 -189q63 0 63 189zM828 326q0 94 -17 142.5t-48 48.5q-34 0 -49 -45t-15 -146q0 -190 53 -190q35 0 55.5 45t20.5 145z" />
    <glyph glyph-name="or_dd_ga" horiz-adv-x="1364" 
d="M874 -65q-33 0 -62.5 9t-53.5 25t-41.5 38.5t-25.5 49.5q-38 4 -70 22.5t-55.5 47t-36.5 64t-13 73.5q0 37 14 74t40 67q-8 -1 -15.5 -1h-15.5q-69 0 -130.5 23.5t-108 63.5t-73.5 94t-27 121q-79 21 -121.5 84t-42.5 152q0 82 45.5 155.5t122.5 129t180 87.5t218 32
q116 0 221 -37.5t184 -101.5t125.5 -148t46.5 -178q0 -39 -6.5 -78.5t-19 -76t-32 -69t-45.5 -57.5l-132 86q44 53 55.5 102t11.5 93q0 60 -33.5 115t-90 97t-130.5 66.5t-155 24.5q-79 0 -150 -19t-125 -52t-85.5 -77t-31.5 -94q0 -25 8.5 -42t19.5 -26q27 49 74 87.5
t109 61.5l92 -126q-70 -32 -110.5 -79.5t-40.5 -118.5q0 -30 14 -57t38.5 -46.5t56.5 -31t68 -11.5q44 0 83 9t68.5 25.5t46.5 38t17 47.5q0 13 -7.5 23.5t-20 18t-28 12.5t-30.5 6l-111 -87l-95 117l331 254l94 -114l-87 -68q24 -9 45.5 -25t37 -37t24.5 -46.5t9 -53.5
q0 -35 -12 -67t-33 -58q36 0 71 -7.5t67.5 -18.5t60 -26t48.5 -30v93h171v-579h-171v269q-5 25 -29 50t-59 45.5t-77.5 33t-85.5 12.5q-93 0 -146.5 -33.5t-53.5 -90.5q0 -19 8 -36t19 -25q19 50 68 80.5t112 30.5q38 0 72.5 -15t61 -41t42 -60.5t15.5 -74.5q0 -38 -15 -72
t-41 -60.5t-60.5 -42t-74.5 -15.5zM926 121q0 25 -16.5 42.5t-39.5 17.5q-24 0 -40.5 -17.5t-16.5 -42.5q0 -24 16.5 -40.5t40.5 -16.5q23 0 39.5 16.5t16.5 40.5z" />
    <glyph glyph-name="or_dd_dda" horiz-adv-x="1171" 
d="M543 -44q-53 0 -97 15.5t-76 42.5t-51.5 62.5t-23.5 75.5q-34 6 -63 22t-50 39.5t-33 54.5t-12 67q0 33 10.5 62.5t28.5 55t42.5 45.5t51.5 35q-32 28 -55 68t-28 86q-33 12 -59.5 34t-45.5 51t-29.5 63.5t-10.5 72.5q0 89 43.5 168.5t118 139.5t172 95t205.5 35
q111 0 209 -35.5t171 -95t115.5 -138t42.5 -165.5q0 -48 -18 -95.5t-52 -89.5l-153 86q49 73 49 98q0 54 -29.5 103.5t-80 87t-117 60t-141.5 22.5t-141.5 -23t-117 -61t-80 -88t-29.5 -105q0 -31 18 -52q24 48 69.5 84.5t106.5 59.5l98 -120q-35 -12 -63 -31t-48 -40.5
t-30.5 -45t-10.5 -45.5q0 -26 16 -49.5t43.5 -40.5t64.5 -27t78 -10q38 0 72.5 7t61 20t42 30t15.5 38q0 18 -20.5 31t-52.5 15l-92 -80l-98 110l278 258l106 -106l-81 -75q54 -15 88 -57.5t34 -101.5q0 -73 -64 -128q43 -14 82 -39t68.5 -58t46.5 -71.5t17 -77.5
q0 -48 -25.5 -96.5t-75.5 -82.5l-111 102q51 39 51 73q0 31 -25.5 58.5t-68.5 48t-100.5 32.5t-121.5 12q-58 0 -110 -10t-91.5 -26.5t-63 -38.5t-23.5 -47q0 -14 8.5 -23.5t21.5 -14.5q17 32 49 58t77 42l70 -94q-41 -24 -58 -48.5t-17 -51.5q0 -48 30 -75.5t72 -27.5
q23 0 43 7.5t34.5 19.5t22.5 27t8 30q0 6 -1 10l-62 -28l-60 95l236 123l59 -95l-48 -27q13 -19 21 -40t8 -41q0 -40 -21.5 -79.5t-57.5 -70.5t-83 -50.5t-98 -19.5z" />
    <glyph glyph-name="or_nn_tta" horiz-adv-x="1311" 
d="M878 -44q-38 0 -72 10t-61 28t-44.5 42t-21.5 52q-59 22 -100.5 60.5t-49.5 92.5q-96 8 -183 50.5t-153.5 110t-105.5 155.5t-39 186q0 80 30 145.5t80.5 112.5t117 73.5t138.5 27.5q-1 5 -1 9v10q0 44 21.5 85t58 72t84 49.5t99.5 18.5q62 0 115 -20.5t92 -60.5v26h171
v-788q4 -2 12 -5t17 -7.5t17.5 -10t14.5 -12.5v210h170v-433h-165q-8 29 -30 52.5t-52 40t-65.5 25.5t-68.5 9q-44 0 -83 -6t-68.5 -19.5t-47 -34t-17.5 -48.5q0 -8 11 -18t28 -14q21 36 61 54.5t90 18.5q42 0 78.5 -13.5t64 -37t43.5 -55.5t16 -68q0 -37 -15.5 -69
t-43 -55.5t-64.5 -37t-79 -13.5zM958 131q0 14 -21 25t-52 11q-29 0 -50 -11t-21 -25q0 -16 21 -27t50 -11q31 0 52 11t21 27zM652 497q0 36 -18 67t-48.5 53.5t-72 35t-88.5 12.5q-62 0 -104.5 -16t-69.5 -30q15 -49 42.5 -89t64 -68.5t79.5 -44.5t89 -16q27 0 50 9
t40 22.5t26.5 30.5t9.5 34zM883 521v469q-18 43 -41 79t-50 61.5t-56.5 39.5t-59.5 14q-19 0 -35.5 -6t-29 -16t-20 -22t-7.5 -24q0 -9 2.5 -20t8 -21.5t21.5 -24.5q18 -7 33 -13.5t32 -17t38 -26.5t51 -43l-90 -125q-32 29 -63.5 49.5t-64.5 35t-68.5 22t-77.5 7.5
q-30 0 -59 -11.5t-53.5 -32.5t-42.5 -49t-25 -61q45 20 95 29.5t104 9.5q77 0 146.5 -22t123 -62t87 -96t38.5 -123h63z" />
    <glyph glyph-name="or_nn_ttha" horiz-adv-x="1313" 
d="M911 -31q-65 0 -123 20.5t-101.5 56t-69 83.5t-26.5 104q-27 -7 -64 -7q-99 0 -186 41.5t-152.5 112.5t-103 166.5t-37.5 202.5q0 73 26 138t73 113.5t112 77t143 28.5h25q0 50 23.5 93t63 75.5t92 52t110.5 19.5q79 0 148 -27.5t118 -75.5v48h171v-866q35 -35 57 -85
t22 -102q0 -56 -25.5 -105t-69 -85.5t-102 -57.5t-124.5 -21zM1058 236q0 25 -12 46t-32 37t-46.5 25t-56.5 9t-56.5 -9t-46.5 -25t-31.5 -37t-11.5 -46t11.5 -46.5t31 -37.5t46.5 -25t57 -9q31 0 58 9.5t46.5 25.5t31 37.5t11.5 45.5zM641 491q0 34 -19 63.5t-52 52
t-77 35.5t-93 13q-52 0 -92.5 -14.5t-65.5 -30.5q12 -47 38.5 -87.5t63.5 -70.5t83.5 -47t99.5 -17q24 0 44.5 8t36 22t24.5 33t9 40zM908 502q21 0 39 -1t35 -5v443q-20 55 -49 100.5t-64 77.5t-74.5 49.5t-78.5 17.5q-24 0 -44.5 -7t-36.5 -18.5t-25 -25.5t-9 -27
q0 -14 4.5 -25t12.5 -19q32 -13 68 -31.5t79 -46.5l-79 -135q-41 23 -76.5 40t-68.5 28t-64.5 16.5t-65.5 5.5q-77 0 -128 -44.5t-60 -120.5q38 20 84 31.5t91 11.5q87 0 163 -25.5t132.5 -70t89.5 -104t33 -126.5q22 5 37 7t30.5 3t24.5 1z" />
    <glyph glyph-name="or_nn_dda" horiz-adv-x="1354" 
d="M429 258q48 -34 90.5 -57t81.5 -37.5t76 -20.5t75 -6t69.5 1t54.5 4q-45 29 -71 79t-26 108q0 50 17.5 95t48 80t71.5 57.5t89 27.5v364q-10 48 -36 90t-63.5 73.5t-83.5 49.5t-96 18q-29 0 -54 -8t-44.5 -20.5t-30.5 -28.5t-11 -32q0 -35 47.5 -68.5t126.5 -53.5
l-75 -140q-63 36 -128.5 54t-131.5 18q-76 0 -132 -32.5t-77 -108.5q54 28 103.5 42t112.5 14q67 0 127 -20t104.5 -55.5t70.5 -85t26 -108.5q0 -60 -21.5 -108.5t-60.5 -82t-94.5 -52t-122.5 -18.5q-85 0 -160.5 32t-132 90t-89.5 139t-33 178q0 68 28 127.5t77 104.5
t113.5 73t138.5 33q-1 7 -1.5 13.5t-0.5 14.5q0 52 22.5 98t65 80t102.5 53.5t135 19.5q82 0 154 -26t125 -74v45h171v-733q57 -26 93.5 -80t36.5 -139q0 -81 -42 -148t-116 -115t-175.5 -74.5t-220.5 -26.5q-48 0 -96.5 5t-100.5 20t-106.5 42t-114.5 70zM1132 331
q0 42 -26.5 70t-64.5 28q-37 0 -63.5 -28t-26.5 -70q0 -19 7 -36t19.5 -29.5t29 -20t34.5 -7.5q19 0 35.5 7.5t29 20t19.5 29.5t7 36zM586 551q0 22 -12.5 41.5t-33.5 33t-49 21.5t-59 8q-63 0 -108.5 -14.5t-86.5 -40.5q28 -71 89 -103.5t135 -32.5q62 0 93.5 21t31.5 66z
" />
    <glyph glyph-name="or_nn_dd_ra" horiz-adv-x="1354" 
d="M435 242q48 -35 96.5 -55.5t91 -31.5t76.5 -14.5t53 -3.5q38 0 69.5 1t54.5 4q-45 29 -71 79t-26 108q0 50 17.5 95t48 80t71.5 57.5t89 27.5v364q-10 48 -36 90t-63.5 73.5t-83.5 49.5t-96 18q-29 0 -54 -8t-44.5 -20.5t-30.5 -28.5t-11 -32q0 -35 47.5 -68.5
t126.5 -53.5l-75 -140q-63 36 -128.5 54t-131.5 18q-38 0 -71.5 -11t-61 -29t-47.5 -42t-30 -50q58 26 121.5 38.5t124.5 12.5q67 0 124 -19t97.5 -53.5t63.5 -83t23 -108.5q0 -59 -26 -110.5t-70.5 -89t-104 -59t-126.5 -21.5q-85 0 -157.5 34t-125.5 94t-83 142t-30 179
q0 68 28 127.5t77 104.5t113.5 73t138.5 33q-1 7 -1.5 13.5t-0.5 14.5q0 52 22.5 98t65 80t102.5 53.5t135 19.5q82 0 154 -26t125 -74v45h171v-733q57 -26 93.5 -80t36.5 -139q0 -69 -35 -132.5t-95 -111.5v-493h-949v161h779v246q-111 -34 -254 -34q-27 0 -70.5 4.5
t-96.5 18.5t-113 40t-120 70zM595 560q0 45 -35.5 70t-98.5 25q-64 0 -121.5 -14.5t-102.5 -40.5q26 -75 79 -115t126 -40q31 0 59 9t49 25t33 36.5t12 44.5zM1132 331q0 42 -26.5 70t-64.5 28q-37 0 -63.5 -28t-26.5 -70q0 -19 7 -36t19.5 -29.5t29 -20t34.5 -7.5
q19 0 35.5 7.5t29 20t19.5 29.5t7 36z" />
    <glyph glyph-name="or_nn_ddha" horiz-adv-x="1320" 
d="M1248 402q0 -51 -19 -95.5t-53 -77.5t-81 -52t-103 -19q27 -10 46 -13t39 -5.5t33 -2.5h163v-162h-162q-88 0 -160 30.5t-123 82t-79 119.5t-28 144q0 56 20 106t54.5 88.5t80 63t97.5 30.5v293q0 49 -18 94.5t-49 80.5t-72.5 56t-88.5 21q-20 0 -34.5 -8t-24 -21
t-14.5 -29.5t-5 -34.5q0 -32 4.5 -47.5t12.5 -26.5q35 -16 79 -48.5t84 -83.5l-114 -114q-66 66 -137.5 101.5t-140.5 35.5q-39 0 -73 -9.5t-61.5 -26t-48 -39t-30.5 -47.5q23 3 43 4t31 1q81 0 149 -23.5t117 -66t76.5 -101t27.5 -128.5q0 -57 -21 -107.5t-56.5 -88
t-83.5 -59.5t-102 -22q-81 0 -149 37.5t-117 103t-76.5 154t-27.5 189.5q0 93 34.5 166.5t93.5 124.5t137 78.5t166 27.5q4 0 15 -1q-5 21 -5 44q0 104 65.5 165.5t185.5 61.5q66 0 125 -22t103 -60v52h171v-722q48 -27 76 -78t28 -114zM1073 402q0 32 -22.5 54.5
t-53.5 22.5q-22 0 -41 -9.5t-33.5 -27t-23 -41t-8.5 -50.5q0 -23 9 -46q8 -4 27 -4q74 0 110 20.5t36 80.5zM513 472q0 36 -14.5 65.5t-40.5 50t-62.5 31.5t-79.5 11q-34 0 -56 -1t-34 -3q1 -58 16 -107.5t41 -85.5t61.5 -56t78.5 -20q18 0 34.5 9t29 25t19.5 37t7 44z" />
    <glyph glyph-name="or_nn_nna" horiz-adv-x="1334" 
d="M413 1106h18q-1 5 -1 9v9q0 43 20.5 83.5t56 71t83 49t101.5 18.5q93 0 168.5 -31.5t125.5 -89.5v66h170v-764q47 -17 77.5 -64t30.5 -113q0 -17 -4 -37t-11.5 -39.5t-18.5 -36.5t-24 -29q29 -21 46.5 -51.5t17.5 -65.5q0 -49 -25 -90.5t-68 -71.5t-99.5 -47t-120.5 -17
q-93 0 -174.5 32t-144.5 84.5t-103 120.5t-50 139q-91 5 -170 50t-138 118t-93 168.5t-34 202.5q0 70 28 130t77 103.5t115.5 68t143.5 24.5zM645 491q0 33 -19.5 63t-53.5 52t-78.5 35t-93.5 13q-79 0 -149 -38q12 -49 38 -90.5t63 -72t82 -48t93 -17.5q25 0 46.5 8
t37.5 22t25 33t9 40zM400 817q86 0 161.5 -25.5t132 -69.5t89.5 -103.5t33 -127.5q0 -75 -44 -136t-120 -94q4 -46 30 -88.5t66.5 -75.5t94 -52.5t113.5 -19.5q28 0 53.5 5t44.5 14t30.5 20.5t11.5 24.5q0 9 -4.5 18t-13 16.5t-19.5 12.5t-23 5h-130v127h130q12 0 23.5 9
t20.5 22t14 27t5 24q0 24 -12.5 37.5t-29.5 13.5q-39 0 -77.5 -14t-75.5 -46l-92 92q39 48 85 76t88 36v394q-20 55 -51.5 100t-70.5 77.5t-83 50t-89 17.5q-17 0 -33 -7t-28.5 -17.5t-20 -24.5t-7.5 -27q0 -40 25 -54q41 -19 75 -39.5t56 -38.5l-78 -135q-91 54 -157 79.5
t-109 25.5q-40 0 -74.5 -12t-60.5 -33.5t-41 -52.5t-15 -68q40 18 85.5 27.5t91.5 9.5z" />
    <glyph glyph-name="or_t_ka" horiz-adv-x="1289" 
d="M553 132q-21 -11 -43 -14.5t-47 -3.5q-54 0 -102 23t-84 63t-57 93.5t-21 114.5q0 29 3.5 51.5t12.5 43.5q-39 18 -70 50t-53 73.5t-33.5 90.5t-11.5 101q0 107 47 203t128 168t188.5 114.5t228.5 42.5q81 0 157.5 -19.5t144 -54t123.5 -83.5t96.5 -107.5t63 -125.5
t22.5 -138q0 -91 -27 -166t-81 -129l-126 110q36 47 49 90.5t13 94.5q0 74 -36 140.5t-96 116.5t-139 79.5t-164 29.5q-86 0 -162 -29.5t-133 -79.5t-90 -116.5t-33 -140.5q0 -60 23 -106.5t61 -67.5q28 28 70 43.5t88 15.5q56 0 101.5 -18.5t74.5 -51.5q29 32 68.5 51
t82.5 19q49 0 92 -19.5t75 -52t50.5 -75.5t18.5 -91v-465h-171v465q0 32 -19 54.5t-46 22.5t-47 -22.5t-20 -54.5v-465h-170v132zM553 440q0 21 -7 39.5t-19 32.5t-28.5 22t-35.5 8t-35.5 -11t-29 -29t-19.5 -42.5t-7 -51.5t7 -51t19 -42.5t28.5 -29.5t36.5 -11q19 0 35.5 8
t28.5 22.5t19 33t7 39.5v63zM200 -250l166 285l142 -71l-55 -108l563 -158l-60 -163z" />
    <glyph glyph-name="or_t_ta" horiz-adv-x="1360" 
d="M934 266q0 -56 -26.5 -103.5t-70 -82t-99.5 -53.5t-115 -19q-74 0 -141.5 38t-119 98.5t-82 136.5t-30.5 152q0 23 1 40.5t3 31.5q-45 14 -83 44.5t-65.5 73t-42.5 94.5t-15 108q0 72 22.5 139t63 125t97 105.5t125 81t146.5 52t162 18.5q83 0 162 -23.5t149.5 -66.5
t129.5 -102t101.5 -130.5t66.5 -152t24 -166.5q0 -55 -6 -103t-18 -93.5t-31 -90t-45 -92.5l170 -243l-123 -107l-243 337q33 46 56 91t38 92t21.5 98.5t6.5 110.5q0 64 -17.5 124t-49 113.5t-74.5 98t-94 76t-108 49.5t-116 18q-92 0 -173.5 -27.5t-142.5 -76t-97 -114
t-36 -141.5q0 -30 6.5 -58t18.5 -50t28 -36.5t36 -18.5q32 63 84 115.5t120 92.5l78 -117q-82 -59 -122.5 -143.5t-40.5 -176.5q0 -50 17 -97.5t44.5 -84t63.5 -59t75 -22.5q31 0 57 9t44.5 23t28.5 31t10 33q0 5 -4 14.5t-10.5 19t-15.5 16.5t-19 7q-34 0 -84 -40l-76 127
q45 8 83.5 24.5t66.5 38t43.5 45.5t15.5 48q0 11 -10.5 18.5t-25.5 7.5q-20 0 -57.5 -20t-77.5 -68l-96 96q52 73 113 113t118 40q43 0 80.5 -14.5t65.5 -40t44.5 -59.5t16.5 -73q0 -45 -21 -88.5t-51 -72.5q16 -12 29 -28t22.5 -34.5t15 -38t5.5 -38.5z" />
    <glyph glyph-name="or_t_t_va" horiz-adv-x="1382" 
d="M1001 313q33 46 56 91t38 92t21.5 98.5t6.5 110.5q0 64 -17.5 124t-49 113.5t-74.5 98t-94 76t-108 49.5t-116 18q-92 0 -173.5 -27.5t-142.5 -76t-97 -114t-36 -141.5q0 -30 6.5 -58t18.5 -50t28 -36.5t36 -18.5q32 63 84 115.5t120 92.5l78 -117q-82 -59 -122.5 -143.5
t-40.5 -176.5q0 -50 15 -92.5t41 -74t60.5 -49t73.5 -17.5q31 0 58.5 6t47.5 16.5t32 24t12 29.5q0 5 -4 13t-10.5 15.5t-15.5 13t-19 5.5q-17 0 -31 -6t-40 -26l-76 127q45 8 81.5 23t62 35t39 43t13.5 47q0 11 -10.5 18.5t-25.5 7.5q-10 0 -21 -1t-24.5 -7.5t-29.5 -19.5
t-36 -37l-96 96q26 36 51 61t50 40.5t51 22t55 6.5q43 0 80.5 -14.5t65.5 -40t44.5 -59.5t16.5 -73q0 -45 -21 -88.5t-51 -72.5q32 -23 52 -57t20 -72q0 -18 -5.5 -37.5t-14.5 -37.5t-20.5 -34t-22.5 -27v-129q0 -16 14.5 -27.5t33.5 -11.5q16 0 32 11.5t16 27.5v72h171
v-373h-171v98q-26 -10 -63 -10q-38 0 -75 17t-66.5 46t-47.5 67.5t-18 82.5v40q-20 -7 -42 -10t-42 -3q-74 0 -140 33t-115.5 88t-78.5 126.5t-29 147.5q0 23 1 40.5t3 31.5q-45 14 -83 44.5t-65.5 73t-42.5 94.5t-15 108q0 72 22.5 139t63 125t97 105.5t125 81t146.5 52
t162 18.5q83 0 162 -23.5t149.5 -66.5t129.5 -102t101.5 -130.5t66.5 -152t24 -166.5q0 -55 -6 -103t-18 -93.5t-31 -90t-45 -92.5l170 -213l-123 -107z" />
    <glyph glyph-name="or_t_t_ra" horiz-adv-x="1311" 
d="M934 266q0 -56 -26.5 -103.5t-70 -82t-99.5 -53.5t-115 -19q-74 0 -141.5 38t-119 98.5t-82 136.5t-30.5 152q0 23 1 40.5t3 31.5q-45 14 -83 44.5t-65.5 73t-42.5 94.5t-15 108q0 72 22.5 139t63 125t97 105.5t125 81t146.5 52t162 18.5q83 0 162 -23.5t149.5 -66.5
t129.5 -102t101.5 -130.5t66.5 -152t24 -166.5q0 -55 -6 -103t-18 -93.5t-31 -90t-45 -92.5l170 -243l-123 -107l-243 337q33 46 56 91t38 92t21.5 98.5t6.5 110.5q0 64 -17.5 124t-49 113.5t-74.5 98t-94 76t-108 49.5t-116 18q-92 0 -173.5 -27.5t-142.5 -76t-97 -114
t-36 -141.5q0 -30 6.5 -58t18.5 -50t28 -36.5t36 -18.5q32 63 84 115.5t120 92.5l78 -117q-82 -59 -122.5 -143.5t-40.5 -176.5q0 -50 17 -97.5t44.5 -84t63.5 -59t75 -22.5q31 0 57 9t44.5 23t28.5 31t10 33q0 5 -4 14.5t-10.5 19t-15.5 16.5t-19 7q-34 0 -84 -40l-76 127
q45 8 83.5 24.5t66.5 38t43.5 45.5t15.5 48q0 11 -10.5 18.5t-25.5 7.5q-20 0 -57.5 -20t-77.5 -68l-96 96q52 73 113 113t118 40q43 0 80.5 -14.5t65.5 -40t44.5 -59.5t16.5 -73q0 -45 -21 -88.5t-51 -72.5q16 -12 29 -28t22.5 -34.5t15 -38t5.5 -38.5zM236 -257h636v303
h171v-464h-807v161z" />
    <glyph glyph-name="or_t_tha" horiz-adv-x="1236" 
d="M918 57q-52 -39 -129.5 -60.5t-173.5 -21.5q-57 0 -113.5 14.5t-101 40.5t-72 63.5t-27.5 84.5q0 48 21.5 81.5t56 56.5t79 37.5t89.5 23.5q35 7 58.5 15.5t23.5 29.5q0 24 -27.5 40.5t-67.5 16.5q-25 0 -47 -8.5t-38.5 -24.5t-26.5 -37.5t-10 -48.5l-161 17q0 54 15 92
t45 65q-45 23 -75 64t-35 88q-36 15 -66 40.5t-51.5 58t-34 71.5t-12.5 81q0 81 45 155.5t121.5 130.5t178.5 89.5t216 33.5q118 0 218.5 -34.5t181.5 -96.5q86 -65 125 -144.5t39 -171.5q0 -45 -12 -97.5t-49 -114.5l-152 63q29 51 37.5 86t8.5 63q0 58 -31 109.5
t-84.5 90.5t-124.5 62t-151 23q-83 0 -156.5 -20t-129.5 -53.5t-88.5 -78.5t-32.5 -95q0 -26 7.5 -47t18.5 -31q26 51 76 85.5t116 45.5l55 -136q-49 -17 -78.5 -44.5t-29.5 -63.5q0 -27 16 -49t43 -37.5t64 -23.5t79 -8q40 0 76 6t62 16.5t41.5 24.5t15.5 30q0 15 -16 27
t-34.5 26t-34.5 34t-16 52q0 36 25.5 61.5t73.5 25.5q29 0 60.5 -17.5t57 -46.5t42 -68t16.5 -82q0 -69 -44 -124t-113 -84q27 -41 27 -82q0 -50 -25 -82.5t-63 -54t-82 -34t-82 -23t-63 -22t-25 -30.5q0 -14 18 -23t42.5 -13.5t50 -6t41.5 -1.5q64 0 119 12t96 35
t64.5 56.5t23.5 75.5v212h171v-528h-171v57z" />
    <glyph glyph-name="or_t_na" horiz-adv-x="1338" 
d="M224 440q0 26 3 49q-45 18 -79 51.5t-56 76.5t-33 92t-11 97q0 72 21 140.5t59 128.5t91.5 110t118 85.5t137.5 55.5t152 20t153 -22t138 -62t117 -96t91 -123t58.5 -143t20.5 -157q0 -68 -19 -137.5t-57 -134.5l-158 87q30 45 45.5 90.5t15.5 94.5q0 88 -32 167.5
t-86.5 140.5t-128.5 97t-158 36q-83 0 -157 -30.5t-129 -82.5t-87 -120.5t-32 -144.5q0 -59 18 -103.5t47 -58.5q35 57 91.5 98t130.5 67l94 -129q-46 -15 -83.5 -40.5t-64.5 -57.5t-41.5 -68.5t-14.5 -73.5q0 -42 17.5 -79t46.5 -64t68 -43t83 -16q43 0 79 12.5t61.5 34.5
t39.5 52t14 64q0 25 -3 43q-14 -7 -29 -11t-31 -4q-29 0 -52 9t-39.5 25t-25.5 37.5t-9 46.5q0 31 11.5 59.5t32 50t47.5 34t58 12.5q50 0 90 -22t67.5 -62t42 -95t14.5 -121q0 -69 -28 -129t-77.5 -104t-116.5 -69.5t-146 -25.5q-80 0 -151 29t-124 78.5t-84 116t-31 141.5
zM1294 209v-450h-171v276q-26 -1 -53.5 -8.5t-53 -18.5t-46.5 -25t-33 -27q25 -16 39.5 -43.5t14.5 -56.5q0 -22 -8.5 -42t-23.5 -35.5t-35.5 -24.5t-44.5 -9q-28 0 -53 13t-44 34.5t-30 51t-11 62.5q0 57 36 111.5t93.5 97t129.5 68.5t143 26h151z" />
    <glyph glyph-name="or_t_pa" horiz-adv-x="1349" 
d="M1039 105q-28 -27 -68 -51t-88 -41.5t-101.5 -27.5t-107.5 -10q-90 0 -170 29.5t-140 80.5t-95 119.5t-35 146.5q0 40 9.5 76t25.5 64q-49 19 -90 53.5t-70.5 79.5t-46 98t-16.5 109q0 69 21 134t59 122t91 105t117.5 82t138 53t151.5 19q61 0 120.5 -13.5t114 -37
t100.5 -56t80 -70.5v110h171v-1279h-171v105zM1039 831q0 71 -33.5 135t-90.5 112.5t-132 77t-159 28.5q-82 0 -155.5 -28.5t-129 -77t-88 -112.5t-32.5 -135q0 -35 12 -68t33 -60t50 -46t63 -27q50 45 116.5 69t145.5 24l26 -153q-53 -5 -100 -24t-81.5 -48t-54.5 -67
t-20 -80q0 -44 21.5 -82.5t57.5 -68t84 -46.5t102 -17q73 0 139 26t116 71t80 104.5t30 126.5v366zM746 -318l208 311l132 -87l-86 -132l470 -150l-54 -146z" />
    <glyph glyph-name="or_t_va" horiz-adv-x="1295" 
d="M223 440q0 26 3 49q-45 18 -78.5 51.5t-55.5 76.5t-33 92t-11 97q0 109 47.5 207t128.5 172t187.5 117.5t224.5 43.5q79 0 153.5 -22t140 -62t119.5 -96t93 -123t60.5 -143t21.5 -157q0 -68 -16.5 -129t-54.5 -126l-157 87q30 45 42.5 87.5t12.5 80.5q0 88 -33.5 167.5
t-90 140.5t-132 97t-159.5 36t-159 -30.5t-132 -82.5t-90.5 -120.5t-33.5 -144.5q0 -59 18 -103.5t47 -58.5q35 57 91.5 98t131.5 67l93 -129q-46 -15 -83.5 -40.5t-64.5 -57.5t-41.5 -68.5t-14.5 -73.5q0 -42 17.5 -79t47 -64t68.5 -43t83 -16q43 0 80 12.5t64.5 34.5
t43 52t15.5 64q0 25 -3 43q-14 -7 -29 -11t-31 -4q-29 0 -52 11t-39.5 29t-25.5 41t-9 47q0 31 11.5 58t32 46.5t47.5 30.5t58 11q50 0 90 -22t67.5 -62t42 -95t14.5 -121q0 -69 -29 -133.5t-91 -111.5q-5 -11 -8.5 -22.5t-3.5 -25.5q0 -17 7.5 -32.5t20.5 -27t30 -18
t37 -6.5q22 0 42 6.5t34 18t22.5 27t8.5 32.5v142h171v-456h-171v88q-44 -19 -107 -19q-48 0 -90.5 17t-76 46.5t-55.5 69t-28 84.5q-22 -5 -44.5 -6t-45.5 -1q-80 0 -151.5 29t-124.5 78.5t-84 116t-31 141.5z" />
    <glyph glyph-name="or_t_ma" horiz-adv-x="1309" 
d="M616 1346q116 0 218 -41.5t174 -117.5v104h171v-1096l-217 -140l482 -169l-73 -144l-757 289l394 251v548q0 73 -31 137.5t-84 112.5t-124.5 76t-152.5 28q-82 0 -154 -29.5t-126 -79.5t-85 -116t-31 -138q0 -44 14.5 -83.5t41 -72.5t63.5 -58t83 -39q73 59 153 100
t166 64l71 -141q-83 -30 -154 -70.5t-126 -87t-91 -97t-50 -102.5q31 -10 51.5 -36.5t20.5 -60.5q0 -21 -9.5 -39t-26.5 -31.5t-40 -21t-49 -7.5t-48.5 12t-39.5 32t-26.5 47.5t-9.5 58.5q0 63 24 124.5t70 116.5q-60 22 -108 60.5t-81.5 89.5t-51 112.5t-17.5 129.5
q0 101 44.5 195.5t121 168t179.5 117.5t221 44z" />
    <glyph glyph-name="glyph192" horiz-adv-x="2107" 
d="M222 806q0 -44 9.5 -77.5t25 -58.5t36 -40.5t43.5 -22.5q31 42 80 81t118 74l94 -127q-99 -57 -153 -132t-54 -152q0 -44 17 -82.5t46 -67.5t68 -46t83 -17q46 0 85.5 16t68.5 43.5t45.5 64t16.5 77.5q0 31 -6 52q-14 -7 -26.5 -10t-29.5 -3q-28 0 -52.5 10.5t-43 29
t-29 43t-10.5 52.5q0 29 12 54.5t33 45t48.5 30.5t58.5 11q45 0 83.5 -25t67.5 -68t45.5 -100.5t16.5 -121.5q0 -74 -30.5 -140.5t-83 -116t-122 -78.5t-148.5 -29t-148.5 29.5t-121.5 80.5t-82 119.5t-30 146.5q0 24 2 51.5t9 51.5q-57 19 -97.5 55.5t-67 83t-39 101.5
t-12.5 112q0 73 21.5 141.5t59.5 128.5t92 109.5t119 85.5t139.5 55.5t153.5 19.5q120 0 226.5 -43.5t187 -117.5t127 -172t46.5 -207q0 -128 -80 -261l-154 87q59 104 59 174q0 76 -32 144.5t-87.5 120.5t-129 82.5t-156.5 30.5q-86 0 -162 -30.5t-133 -82.5t-90 -120.5
t-33 -144.5zM1798 542q-44 -25 -103 -25q-57 0 -107 19.5t-88 53.5t-60 80t-22 98v511h171v-511q0 -18 8.5 -34.5t23 -29t34 -19.5t40.5 -7t40 7t33 19.5t22 29t8 34.5v511h171v-1279h-171v542zM1549 166q-16 -2 -34 -5t-35 -6t-31 -7t-22 -8q32 -31 48.5 -69.5t16.5 -82.5
q0 -38 -15.5 -70.5t-42.5 -56.5t-63 -38t-76 -14q-44 0 -82.5 15t-67 40.5t-45 59.5t-16.5 72q0 83 74 155l-109 55l88 124l144 -94q81 52 195 78.5t240 26.5v-519h-167v344zM1339 -12q0 20 -16 40t-40 33q-17 -11 -25 -28t-8 -37q0 -19 12.5 -32t32.5 -13q18 0 31 10.5
t13 26.5z" />
    <glyph glyph-name="or_t_sa" horiz-adv-x="1206" 
d="M191 162l196 184l-267 64l172 156q-59 16 -105.5 46.5t-78.5 72t-49.5 91.5t-17.5 105q0 94 41 178.5t111 148t163.5 101t198.5 37.5q106 -11 194 -47t148 -94v86h171v-958l63 -16l-57 -131l-512 119l-58 -54l571 -134l-60 -140zM897 888q0 54 -27.5 105t-74 91
t-109.5 67t-133 33q-69 0 -130.5 -24.5t-108 -66.5t-74 -97t-27.5 -115q0 -34 14 -64.5t37.5 -54t53.5 -39t63 -20.5q29 1 53.5 8t41.5 23l169 156l109 -110l-313 -293l456 -106v507z" />
    <glyph glyph-name="or_t_s_na" horiz-adv-x="1204" 
d="M529 1346q110 0 204.5 -33.5t164.5 -95.5v75h173v-1021l-478 108l-80 -91l367 -88q29 11 78.5 17t112.5 6v-425h-171v222q-28 -8 -55.5 -19.5t-52 -25.5t-43.5 -30t-31 -33q21 -11 33.5 -35t12.5 -56q0 -96 -112 -96q-27 0 -51 10.5t-42 28.5t-28.5 42.5t-10.5 51.5
q0 66 43.5 125.5t118.5 107.5l-461 109l200 213l-283 65l162 141q-52 10 -99 37t-82.5 67.5t-56.5 93t-21 113.5q0 84 38.5 159.5t105 132.5t155.5 90.5t189 33.5zM898 959q-20 51 -56.5 93t-85 71t-106.5 45t-119 16q-65 0 -122.5 -21t-101 -56.5t-68.5 -81.5t-25 -97
q0 -36 14.5 -67.5t38.5 -55.5t56.5 -38t68.5 -14q26 0 70 6l159 132l102 -107l-255 -218l430 -96v489z" />
    <glyph glyph-name="glyph195" horiz-adv-x="1963" 
d="M191 162l196 184l-267 64l172 156q-59 16 -105.5 46.5t-78.5 72t-49.5 91.5t-17.5 105q0 94 41 178.5t111 148t163.5 101t198.5 37.5q106 -11 194 -47t148 -94v86h171v-958l63 -16l-57 -131l-512 119l-58 -54l571 -134l-60 -140zM897 888q0 54 -27.5 105t-74 91
t-109.5 67t-133 33q-69 0 -130.5 -24.5t-108 -66.5t-74 -97t-27.5 -115q0 -34 14 -64.5t37.5 -54t53.5 -39t63 -20.5q29 1 53.5 8t41.5 23l169 156l109 -110l-313 -293l456 -106v507zM1655 542q-44 -25 -103 -25q-57 0 -107 19.5t-88 53.5t-60 80t-22 98v511h171v-511
q0 -18 8.5 -34.5t23 -29t34 -19.5t40.5 -7t40 7t33 19.5t22 29t8 34.5v511h171v-1279h-171v542z" />
    <glyph glyph-name="or_d_ga" horiz-adv-x="1305" 
d="M747 315q-26 -17 -62 -25t-78 -8q-68 0 -124.5 25t-97 67.5t-63 99.5t-22.5 121q-55 9 -102.5 35.5t-82 65.5t-54 89.5t-19.5 109.5q0 76 26 139t71 113.5t104.5 87.5t126.5 62t138 37t139 12q80 0 156 -19t143 -53.5t122.5 -82t95.5 -104.5t62 -122t22 -134
q0 -75 -20.5 -143t-58.5 -129l-158 77q62 94 62 195q0 72 -34.5 136t-93 112t-136.5 76.5t-164 28.5q-69 0 -144.5 -16.5t-139 -51.5t-105 -89.5t-41.5 -131.5q0 -32 11 -58.5t29.5 -46.5t42.5 -32.5t50 -16.5q30 43 75.5 76.5t123.5 65.5l73 -125q-37 -15 -65.5 -36
t-47.5 -45t-29 -48.5t-10 -47.5q0 -26 11 -49t29.5 -40.5t44 -28t54.5 -10.5t54.5 10.5t44.5 28t30 40.5t11 49v165h171v-504q28 -6 63.5 -20.5t66.5 -35.5v52h161v-536h-161v276q0 21 -18.5 43.5t-47.5 40.5t-65 29.5t-71 11.5q-24 0 -48 -6.5t-43 -16.5t-30.5 -23.5
t-11.5 -26.5q0 -28 29 -44q27 14 69 14q39 0 73 -14t59.5 -38.5t40.5 -57t15 -69.5t-15 -69t-41 -56t-60 -38t-72 -14t-72 14t-59.5 38t-41 56t-15.5 69q0 32 8 51q-37 24 -59.5 65.5t-22.5 92.5q0 40 17.5 75t45.5 62.5t63.5 46t71.5 26.5v75zM866 -179q0 19 -15 30.5
t-37 11.5q-21 0 -36.5 -11.5t-15.5 -30.5q0 -16 15.5 -26.5t36.5 -10.5q22 0 37 10.5t15 26.5z" />
    <glyph glyph-name="or_d_gha" horiz-adv-x="1183" 
d="M475 284q-26 0 -50.5 -4.5t-43.5 -12t-30 -18.5t-11 -23q0 -17 22.5 -33t67.5 -16v-116q-42 0 -62 -17t-20 -33t13 -27.5t32 -11.5q34 0 58 27t24 69h114q0 -35 17.5 -59t37.5 -24t33.5 26.5t13.5 62.5v71q-6 29 -25.5 54.5t-48.5 44t-65.5 29.5t-76.5 11zM555 610
q28 0 53 10t43.5 27t29 40t10.5 49v103h171v-1015h-171v31q-29 -19 -65 -19q-32 0 -58 12t-44 36q-22 -24 -55.5 -36t-75.5 -12q-37 0 -72 14.5t-62 39t-43.5 56t-16.5 65.5q0 52 40 96q-28 20 -44 52t-16 67q0 44 23.5 83t64 67.5t94.5 45t114 16.5q61 0 117 -18t99 -50
v121q-29 -15 -64.5 -25.5t-69.5 -10.5q-59 0 -111 19t-91 53.5t-61.5 83t-22.5 109.5q-51 4 -94.5 25.5t-75 55t-49 77t-17.5 92.5q0 84 44 153t120 118.5t176.5 77t213.5 27.5q112 0 214.5 -33.5t179.5 -91t123 -133t46 -159.5q0 -88 -89 -197l-142 89q62 74 62 108
q0 51 -32 97.5t-86.5 81.5t-126.5 55.5t-151 20.5q-81 0 -151 -14t-121.5 -41.5t-81.5 -67.5t-30 -91q0 -48 29.5 -78t70.5 -36q22 45 67.5 90t114.5 76l87 -123q-66 -38 -101.5 -80t-35.5 -99q0 -25 9.5 -45.5t26 -34.5t38 -22t46.5 -8z" />
    <glyph glyph-name="or_d_da" horiz-adv-x="1302" 
d="M864 191q-17 -8 -37 -11.5t-38 -3.5q-50 0 -88 16.5t-61 51.5q-30 -32 -76.5 -50t-98.5 -18q-53 0 -100 21t-82 57t-55.5 84t-20.5 102q0 76 21 139q-42 21 -76 53.5t-58 72t-37 84.5t-13 92q0 95 47.5 179.5t128.5 148t189 100.5t229 37q84 0 163 -17t148.5 -48
t127.5 -74t99.5 -94.5t64.5 -110t23 -121.5q0 -55 -26.5 -118.5t-76.5 -128.5l-135 89q32 43 49.5 83t17.5 75q0 60 -37.5 115t-100 96.5t-145 66.5t-172.5 25q-87 0 -164 -24.5t-135 -66.5t-92 -97t-34 -115q0 -54 24.5 -95.5t69.5 -55.5q23 35 57 66t70 54l100 -122
q-75 -55 -115.5 -131t-40.5 -157q0 -21 7 -39.5t19 -32.5t27.5 -22t33.5 -8q17 0 33 5t29 14t20.5 20.5t7.5 24.5v226h171v-226q0 -26 18.5 -45t44.5 -19q28 0 51.5 19t23.5 45v226h171v-628h-171v191z" />
    </font>
</defs>
</svg>
